  0
SECTION
  2
HEADER
  9
$ACADVER
  1
AC1015
  9
$ACADMAINTVER
 70
     6
  9
$DWGCODEPAGE
  3
ANSI_1252
  9
$INSBASE
 10
0.0
 20
0.0
 30
0.0
  9
$EXTMIN
 10
-74.0
 20
-74.0
 30
0.0
  9
$EXTMAX
 10
74.0
 20
74.0
 30
0.0
  9
$LIMMIN
 10
0.0
 20
0.0
  9
$LIMMAX
 10
420.0
 20
297.0
  9
$ORTHOMODE
 70
     0
  9
$REGENMODE
 70
     1
  9
$FILLMODE
 70
     1
  9
$QTEXTMODE
 70
     0
  9
$MIRRTEXT
 70
     1
  9
$LTSCALE
 40
1.0
  9
$ATTMODE
 70
     1
  9
$TEXTSIZE
 40
3.5
  9
$TRACEWID
 40
1.0
  9
$TEXTSTYLE
  7
Standard
  9
$CLAYER
  8
0
  9
$CELTYPE
  6
ByLayer
  9
$CECOLOR
 62
   256
  9
$CELTSCALE
 40
1.0
  9
$DISPSILH
 70
     0
  9
$DIMSCALE
 40
1.0
  9
$DIMASZ
 40
3.302
  9
$DIMEXO
 40
0.0
  9
$DIMDLI
 40
3.75
  9
$DIMRND
 40
0.0
  9
$DIMDLE
 40
0.0
  9
$DIMEXE
 40
1.0
  9
$DIMTP
 40
0.0
  9
$DIMTM
 40
0.0
  9
$DIMTXT
 40
3.5
  9
$DIMCEN
 40
2.5
  9
$DIMTSZ
 40
0.0
  9
$DIMTOL
 70
     0
  9
$DIMLIM
 70
     0
  9
$DIMTIH
 70
     1
  9
$DIMTOH
 70
     1
  9
$DIMSE1
 70
     0
  9
$DIMSE2
 70
     0
  9
$DIMTAD
 70
     1
  9
$DIMZIN
 70
     1
  9
$DIMBLK
  1

  9
$DIMASO
 70
     1
  9
$DIMSHO
 70
     1
  9
$DIMPOST
  1

  9
$DIMAPOST
  1

  9
$DIMALT
 70
     0
  9
$DIMALTD
 70
     3
  9
$DIMALTF
 40
0.0393700787
  9
$DIMLFAC
 40
1.0
  9
$DIMTOFL
 70
     1
  9
$DIMTVP
 40
0.0
  9
$DIMTIX
 70
     0
  9
$DIMSOXD
 70
     0
  9
$DIMSAH
 70
     0
  9
$DIMBLK1
  1

  9
$DIMBLK2
  1

  9
$DIMSTYLE
  2
ISO-25
  9
$DIMCLRD
 70
     0
  9
$DIMCLRE
 70
     0
  9
$DIMCLRT
 70
     0
  9
$DIMTFAC
 40
1.0
  9
$DIMGAP
 40
1.524
  9
$DIMJUST
 70
     0
  9
$DIMSD1
 70
     0
  9
$DIMSD2
 70
     0
  9
$DIMTOLJ
 70
     0
  9
$DIMTZIN
 70
     1
  9
$DIMALTZ
 70
     0
  9
$DIMALTTZ
 70
     0
  9
$DIMUPT
 70
     0
  9
$DIMDEC
 70
     2
  9
$DIMTDEC
 70
     2
  9
$DIMALTU
 70
     2
  9
$DIMALTTD
 70
     3
  9
$DIMTXSTY
  7
Standard
  9
$DIMAUNIT
 70
     0
  9
$DIMADEC
 70
     2
  9
$DIMALTRND
 40
0.0
  9
$DIMAZIN
 70
     0
  9
$DIMDSEP
 70
    44
  9
$DIMATFIT
 70
     3
  9
$DIMFRAC
 70
     0
  9
$DIMLDRBLK
  1

  9
$DIMLUNIT
 70
     2
  9
$DIMLWD
 70
    -2
  9
$DIMLWE
 70
    -2
  9
$DIMTMOVE
 70
     0
  9
$LUNITS
 70
     2
  9
$LUPREC
 70
     2
  9
$SKETCHINC
 40
1.0
  9
$FILLETRAD
 40
0.0
  9
$AUNITS
 70
     0
  9
$AUPREC
 70
     2
  9
$MENU
  1
.
  9
$ELEVATION
 40
0.0
  9
$PELEVATION
 40
0.0
  9
$THICKNESS
 40
0.0
  9
$LIMCHECK
 70
     0
  9
$CHAMFERA
 40
0.0
  9
$CHAMFERB
 40
0.0
  9
$CHAMFERC
 40
0.0
  9
$CHAMFERD
 40
0.0
  9
$SKPOLY
 70
     0
  9
$TDCREATE
 40
2460698.691566505
  9
$TDUCREATE
 40
2460698.462399838
  9
$TDUPDATE
 40
2460698.691627419
  9
$TDUUPDATE
 40
2460698.462460752
  9
$TDINDWG
 40
0.0000000116
  9
$TDUSRTIMER
 40
0.0000000116
  9
$USRTIMER
 70
     1
  9
$ANGBASE
 50
0.0
  9
$ANGDIR
 70
     0
  9
$PDMODE
 70
     0
  9
$PDSIZE
 40
-1.0
  9
$PLINEWID
 40
0.0
  9
$SPLFRAME
 70
     0
  9
$SPLINETYPE
 70
     6
  9
$SPLINESEGS
 70
     8
  9
$HANDSEED
  5
9B
  9
$SURFTAB1
 70
     6
  9
$SURFTAB2
 70
     6
  9
$SURFTYPE
 70
     6
  9
$SURFU
 70
     6
  9
$SURFV
 70
     6
  9
$UCSBASE
  2

  9
$UCSNAME
  2

  9
$UCSORG
 10
0.0
 20
0.0
 30
0.0
  9
$UCSXDIR
 10
1.0
 20
0.0
 30
0.0
  9
$UCSYDIR
 10
0.0
 20
1.0
 30
0.0
  9
$UCSORTHOREF
  2

  9
$UCSORTHOVIEW
 70
     0
  9
$UCSORGTOP
 10
0.0
 20
0.0
 30
0.0
  9
$UCSORGBOTTOM
 10
0.0
 20
0.0
 30
0.0
  9
$UCSORGLEFT
 10
0.0
 20
0.0
 30
0.0
  9
$UCSORGRIGHT
 10
0.0
 20
0.0
 30
0.0
  9
$UCSORGFRONT
 10
0.0
 20
0.0
 30
0.0
  9
$UCSORGBACK
 10
0.0
 20
0.0
 30
0.0
  9
$PUCSBASE
  2

  9
$PUCSNAME
  2

  9
$PUCSORG
 10
0.0
 20
0.0
 30
0.0
  9
$PUCSXDIR
 10
1.0
 20
0.0
 30
0.0
  9
$PUCSYDIR
 10
0.0
 20
1.0
 30
0.0
  9
$PUCSORTHOREF
  2

  9
$PUCSORTHOVIEW
 70
     0
  9
$PUCSORGTOP
 10
0.0
 20
0.0
 30
0.0
  9
$PUCSORGBOTTOM
 10
0.0
 20
0.0
 30
0.0
  9
$PUCSORGLEFT
 10
0.0
 20
0.0
 30
0.0
  9
$PUCSORGRIGHT
 10
0.0
 20
0.0
 30
0.0
  9
$PUCSORGFRONT
 10
0.0
 20
0.0
 30
0.0
  9
$PUCSORGBACK
 10
0.0
 20
0.0
 30
0.0
  9
$USERI1
 70
     0
  9
$USERI2
 70
     0
  9
$USERI3
 70
     0
  9
$USERI4
 70
     0
  9
$USERI5
 70
     0
  9
$USERR1
 40
0.0
  9
$USERR2
 40
0.0
  9
$USERR3
 40
0.0
  9
$USERR4
 40
0.0
  9
$USERR5
 40
0.0
  9
$WORLDVIEW
 70
     1
  9
$SHADEDGE
 70
     3
  9
$SHADEDIF
 70
    70
  9
$TILEMODE
 70
     1
  9
$MAXACTVP
 70
    64
  9
$PINSBASE
 10
0.0
 20
0.0
 30
0.0
  9
$PLIMCHECK
 70
     0
  9
$PEXTMIN
 10
1.0000000000E+20
 20
1.0000000000E+20
 30
1.0000000000E+20
  9
$PEXTMAX
 10
-1.0000000000E+20
 20
-1.0000000000E+20
 30
-1.0000000000E+20
  9
$PLIMMIN
 10
0.0
 20
0.0
  9
$PLIMMAX
 10
420.0
 20
297.0
  9
$UNITMODE
 70
     0
  9
$VISRETAIN
 70
     1
  9
$PLINEGEN
 70
     0
  9
$PSLTSCALE
 70
     1
  9
$TREEDEPTH
 70
  3020
  9
$CMLSTYLE
  2
Standard
  9
$CMLJUST
 70
     0
  9
$CMLSCALE
 40
20.0
  9
$PROXYGRAPHICS
 70
     1
  9
$MEASUREMENT
 70
     1
  9
$CELWEIGHT
370
    -1
  9
$ENDCAPS
280
     0
  9
$JOINSTYLE
280
     0
  9
$LWDISPLAY
290
     1
  9
$INSUNITS
 70
     4
  9
$HYPERLINKBASE
  1

  9
$STYLESHEET
  1

  9
$XEDIT
290
     1
  9
$CEPSNTYPE
380
     0
  9
$PSTYLEMODE
290
     1
  9
$FINGERPRINTGUID
  2
{05d9f184-0d7a-4a73-8ad2-d04d0bc7faae}
  9
$VERSIONGUID
  2
{FAEB1C32-E019-11D5-929B-00C0DF256EC4}
  9
$EXTNAMES
290
     1
  9
$PSVPSCALE
 40
0.0
  9
$OLESTARTUP
290
     0
  0
ENDSEC
  0
SECTION
  2
CLASSES
  0
CLASS
  1
ACDBDICTIONARYWDFLT
  2
AcDbDictionaryWithDefault
  3
ObjectDBX Classes
 90
        0
280
     0
281
     0
  0
CLASS
  1
VISUALSTYLE
  2
AcDbVisualStyle
  3
ObjectDBX Classes
 90
     4095
280
     0
281
     0
  0
CLASS
  1
MATERIAL
  2
AcDbMaterial
  3
ObjectDBX Classes
 90
     1153
280
     0
281
     0
  0
CLASS
  1
SCALE
  2
AcDbScale
  3
ObjectDBX Classes
 90
     1153
280
     0
281
     0
  0
CLASS
  1
TABLESTYLE
  2
AcDbTableStyle
  3
ObjectDBX Classes
 90
     4095
280
     0
281
     0
  0
CLASS
  1
MLEADERSTYLE
  2
AcDbMLeaderStyle
  3
ACDB_MLEADERSTYLE_CLASS
 90
     4095
280
     0
281
     0
  0
CLASS
  1
SUN
  2
AcDbSun
  3
SCENEOE
 90
     1153
280
     0
281
     0
  0
CLASS
  1
ACDBPLACEHOLDER
  2
AcDbPlaceHolder
  3
ObjectDBX Classes
 90
        0
280
     0
281
     0
  0
CLASS
  1
LAYOUT
  2
AcDbLayout
  3
ObjectDBX Classes
 90
        0
280
     0
281
     0
  0
ENDSEC
  0
SECTION
  2
TABLES
  0
TABLE
  2
VPORT
  5
8
330
0
100
AcDbSymbolTable
 70
     1
  0
VPORT
  5
29
330
8
100
AcDbSymbolTableRecord
100
AcDbViewportTableRecord
  2
*Active
 70
     0
 10
0.0
 20
0.0
 11
1.0
 21
1.0
 12
0.0
 22
0.0
 13
0.0
 23
0.0
 14
10.0
 24
10.0
 15
10.0
 25
10.0
 16
0.0
 26
0.0
 36
1.0
 17
0.0
 27
0.0
 37
0.0
 40
150.96
 41
1.0
 42
50.0
 43
0.0
 44
0.0
 50
0.0
 51
0.0
 71
     0
 72
   100
 73
     1
 74
     3
 75
     0
 76
     0
 77
     0
 78
     0
281
     0
 65
     1
110
0.0
120
0.0
130
0.0
111
1.0
121
0.0
131
0.0
112
0.0
122
1.0
132
0.0
 79
     0
146
0.0
  0
ENDTAB
  0
TABLE
  2
LTYPE
  5
5
330
0
100
AcDbSymbolTable
 70
     6
  0
LTYPE
  5
14
330
5
100
AcDbSymbolTableRecord
100
AcDbLinetypeTableRecord
  2
ByBlock
 70
     0
  3

 72
    65
 73
     0
 40
0.0
  0
LTYPE
  5
15
330
5
100
AcDbSymbolTableRecord
100
AcDbLinetypeTableRecord
  2
ByLayer
 70
     0
  3

 72
    65
 73
     0
 40
0.0
  0
LTYPE
  5
16
330
5
100
AcDbSymbolTableRecord
100
AcDbLinetypeTableRecord
  2
Continuous
 70
     0
  3
Solid line
 72
    65
 73
     0
 40
0.0
  0
LTYPE
  5
5E
330
5
100
AcDbSymbolTableRecord
100
AcDbLinetypeTableRecord
  2
HIDDEN
 70
     0
  3
Hidden __ __ __ __ __ __ __ __ __ __ __ __ __ __
 72
    65
 73
     2
 40
1.905
 49
1.27
 74
     0
 49
-0.635
 74
     0
  0
LTYPE
  5
5F
330
5
100
AcDbSymbolTableRecord
100
AcDbLinetypeTableRecord
  2
PHANTOM
 70
     0
  3
Phantom ______  __  __  ______  __  __  ______
 72
    65
 73
     6
 40
12.7
 49
6.35
 74
     0
 49
-1.27
 74
     0
 49
1.27
 74
     0
 49
-1.27
 74
     0
 49
1.27
 74
     0
 49
-1.27
 74
     0
  0
LTYPE
  5
60
330
5
100
AcDbSymbolTableRecord
100
AcDbLinetypeTableRecord
  2
CENTER
 70
     0
  3
Center ____ _ ____ _ ____ _ ____ _ ____ _ ____
 72
    65
 73
     4
 40
10.16
 49
6.35
 74
     0
 49
-1.27
 74
     0
 49
1.27
 74
     0
 49
-1.27
 74
     0
  0
LTYPE
  5
61
330
5
100
AcDbSymbolTableRecord
100
AcDbLinetypeTableRecord
  2
CENTERX2
 70
     0
  3
Center (2x) ________  __  ________  __  _____
 72
    65
 73
     4
 40
20.32
 49
12.7
 74
     0
 49
-2.54
 74
     0
 49
2.54
 74
     0
 49
-2.54
 74
     0
  0
LTYPE
  5
62
330
5
100
AcDbSymbolTableRecord
100
AcDbLinetypeTableRecord
  2
DOT2
 70
     0
  3
Dot (.5x) ........................................
 72
    65
 73
     2
 40
0.635
 49
0.0
 74
     0
 49
-0.635
 74
     0
  0
ENDTAB
  0
TABLE
  2
LAYER
  5
2
330
0
100
AcDbSymbolTable
 70
     1
  0
LAYER
  5
10
330
2
100
AcDbSymbolTableRecord
100
AcDbLayerTableRecord
  2
0
 70
     0
 62
     7
  6
Continuous
370
    -3
390
F
  0
ENDTAB
  0
TABLE
  2
STYLE
  5
3
330
0
100
AcDbSymbolTable
 70
     2
  0
STYLE
  5
11
330
3
100
AcDbSymbolTableRecord
100
AcDbTextStyleTableRecord
  2
Standard
 70
     0
 40
0.0
 41
1.0
 50
0.0
 71
     0
 42
3.5
  3
txt
  4

  0
STYLE
  5
97
330
3
100
AcDbSymbolTableRecord
100
AcDbTextStyleTableRecord
  2
SLDTEXTSTYLE0
 70
     0
 40
0.0
 41
0.7
 50
0.0
 71
     0
 42
3.5
  3
TXT
  4

  0
ENDTAB
  0
TABLE
  2
VIEW
  5
6
330
0
100
AcDbSymbolTable
 70
     0
  0
ENDTAB
  0
TABLE
  2
UCS
  5
7
330
0
100
AcDbSymbolTable
 70
     0
  0
ENDTAB
  0
TABLE
  2
APPID
  5
9
330
0
100
AcDbSymbolTable
 70
     1
  0
APPID
  5
12
330
9
100
AcDbSymbolTableRecord
100
AcDbRegAppTableRecord
  2
ACAD
 70
     0
  0
ENDTAB
  0
TABLE
  2
DIMSTYLE
  5
A
330
0
100
AcDbSymbolTable
 70
     1
100
AcDbDimStyleTable
  0
DIMSTYLE
105
27
330
A
100
AcDbSymbolTableRecord
100
AcDbDimStyleTableRecord
  2
ISO-25
 70
     0
 41
2.5
 42
0.625
 43
3.75
 44
1.25
 73
     0
 74
     0
 77
     1
 78
     8
140
2.5
141
2.5
143
0.0393700787
147
0.625
171
     3
172
     1
178
     0
271
     2
272
     2
274
     3
278
    44
283
     0
284
     8
340
11
  0
ENDTAB
  0
TABLE
  2
BLOCK_RECORD
  5
1
330
0
100
AcDbSymbolTable
 70
     1
  0
BLOCK_RECORD
  5
1F
330
1
100
AcDbSymbolTableRecord
100
AcDbBlockTableRecord
  2
*Model_Space
340
22
  0
BLOCK_RECORD
  5
1B
330
1
100
AcDbSymbolTableRecord
100
AcDbBlockTableRecord
  2
*Paper_Space
340
1E
  0
BLOCK_RECORD
  5
23
330
1
100
AcDbSymbolTableRecord
100
AcDbBlockTableRecord
  2
*Paper_Space0
340
26
  0
ENDTAB
  0
ENDSEC
  0
SECTION
  2
BLOCKS
  0
BLOCK
  5
20
330
1F
100
AcDbEntity
  8
0
100
AcDbBlockBegin
  2
*Model_Space
 70
     0
 10
0.0
 20
0.0
 30
0.0
  3
*Model_Space
  1

  0
ENDBLK
  5
21
330
1F
100
AcDbEntity
  8
0
100
AcDbBlockEnd
  0
BLOCK
  5
1C
330
1B
100
AcDbEntity
 67
     1
  8
0
100
AcDbBlockBegin
  2
*Paper_Space
 70
     0
 10
0.0
 20
0.0
 30
0.0
  3
*Paper_Space
  1

  0
ENDBLK
  5
1D
330
1B
100
AcDbEntity
 67
     1
  8
0
100
AcDbBlockEnd
  0
BLOCK
  5
24
330
23
100
AcDbEntity
  8
0
100
AcDbBlockBegin
  2
*Paper_Space0
 70
     0
 10
0.0
 20
0.0
 30
0.0
  3
*Paper_Space0
  1

  0
ENDBLK
  5
25
330
23
100
AcDbEntity
  8
0
100
AcDbBlockEnd
  0
ENDSEC
  0
SECTION
  2
ENTITIES
  0
ARC
  5
63
330
1F
100
AcDbEntity
  8
0
  6
CENTERX2
 62
     7
100
AcDbCircle
 10
0.0
 20
0.0
 30
0.0
 40
67.0
100
AcDbArc
 50
180.0
 51
0.0
  0
LWPOLYLINE
  5
64
330
1F
100
AcDbEntity
  8
0
  6
Continuous
 62
     7
100
AcDbPolyline
 90
       16
 70
   128
 43
0.0
 10
-60.1573288441
 20
-21.4265500526
 10
-59.8411247829
 20
-21.3073593475
 10
-59.8411247829
 20
-21.3073593475
 10
-59.1694501034
 20
-23.093116559
 10
-59.1694501034
 20
-23.093116559
 10
-59.4856560329
 20
-23.2123072642
 10
-59.4856560329
 20
-23.2123072642
 10
-59.7583924111
 20
-22.4866462065
 10
-59.7583924111
 20
-22.4866462065
 10
-62.6974949752
 20
-23.5916141552
 10
-62.6974949752
 20
-23.5916141552
 10
-62.8222946547
 20
-23.2599835462
 10
-62.8222946547
 20
-23.2599835462
 10
-59.8831920906
 20
-22.1550155975
 10
-59.8831920906
 20
-22.1550155975
 10
-60.1573307124
 20
-21.4265500526
  0
LWPOLYLINE
  5
65
330
1F
100
AcDbEntity
  8
0
  6
Continuous
 62
     7
100
AcDbPolyline
 90
       24
 70
   128
 43
0.0
 10
-58.5117042065
 20
-24.6992000664
 10
-57.6787937179
 20
-26.5094965407
 10
-57.6787937179
 20
-26.5094965407
 10
-57.9900917948
 20
-26.6525253869
 10
-57.9900917948
 20
-26.6525253869
 10
-58.6778922756
 20
-25.1577337202
 10
-58.6778922756
 20
-25.1577337202
 10
-59.6657728846
 20
-25.6120606433
 10
-59.6657728846
 20
-25.6120606433
 10
-58.9835813782
 20
-27.0942321176
 10
-58.9835813782
 20
-27.0942321176
 10
-59.2927760897
 20
-27.236559842
 10
-59.2927760897
 20
-27.236559842
 10
-59.9749675961
 20
-25.7543883676
 10
-59.9749675961
 20
-25.7543883676
 10
-61.2138498076
 20
-26.3244003869
 10
-61.2138498076
 20
-26.3244003869
 10
-60.5316583012
 20
-27.8065718612
 10
-60.5316583012
 20
-27.8065718612
 10
-60.8429563782
 20
-27.9496007074
 10
-60.8429563782
 20
-27.9496007074
 10
-61.6702800961
 20
-26.1519244253
 10
-61.6702800961
 20
-26.1519244253
 10
-58.5117264102
 20
-24.6992000664
  0
LWPOLYLINE
  5
66
330
1F
100
AcDbEntity
  8
0
  6
Continuous
 62
     7
100
AcDbPolyline
 90
       16
 70
   128
 43
0.0
 10
-56.211233139
 20
-29.5079636419
 10
-58.5509054675
 20
-32.5683602766
 10
-58.5509054675
 20
-32.5683602766
 10
-58.7247836727
 20
-32.2360285458
 10
-58.7247836727
 20
-32.2360285458
 10
-57.961262038
 20
-31.2179996996
 10
-57.961262038
 20
-31.2179996996
 10
-58.6581771022
 20
-29.8844660458
 10
-58.6581771022
 20
-29.8844660458
 10
-59.9293109163
 20
-29.9328434496
 10
-59.9293109163
 20
-29.9328434496
 10
-60.1094992175
 20
-29.5878915266
 10
-60.1094992175
 20
-29.5878915266
 10
-56.2512259804
 20
-29.4322424881
 10
-56.2512259804
 20
-29.4322424881
 10
-56.211262038
 20
-29.5079636419
  0
LWPOLYLINE
  5
67
330
1F
100
AcDbEntity
  8
0
  6
Continuous
 62
     7
100
AcDbPolyline
 90
        6
 70
   128
 43
0.0
 10
-56.8878352642
 20
-29.8129516227
 10
-58.2872836727
 20
-29.8669380009
 10
-58.2872836727
 20
-29.8669380009
 10
-57.7340985765
 20
-30.9249307894
 10
-57.7340985765
 20
-30.9249307894
 10
-56.8878445701
 20
-29.8129516227
  0
LWPOLYLINE
  5
68
330
1F
100
AcDbEntity
  8
0
  6
Continuous
 62
     7
100
AcDbPolyline
 90
       26
 70
   128
 43
0.0
 10
-57.6205253601
 20
-34.1726398268
 10
-54.4248158855
 20
-32.7353401473
 10
-54.4248158855
 20
-32.7353401473
 10
-54.3946676483
 20
-32.7830164293
 10
-54.3946676483
 20
-32.7830164293
 10
-56.046510597
 20
-35.4963577755
 10
-56.046510597
 20
-35.4963577755
 10
-52.8949681291
 20
-35.1556125832
 10
-52.8949681291
 20
-35.1556125832
 10
-52.8648198919
 20
-35.2032888652
 10
-52.8648198919
 20
-35.2032888652
 10
-55.5311860778
 20
-37.4777279678
 10
-55.5311860778
 20
-37.4777279678
 10
-55.7141788662
 20
-37.1888657883
 10
-55.7141788662
 20
-37.1888657883
 10
-53.7973118791
 20
-35.5755845383
 10
-53.7973118791
 20
-35.5755845383
 10
-56.5506171675
 20
-35.8651478396
 10
-56.5506171675
 20
-35.8651478396
 10
-56.5975923278
 20
-35.7915300511
 10
-56.5975923278
 20
-35.7915300511
 10
-55.1483735778
 20
-33.4049114614
 10
-55.1483735778
 20
-33.4049114614
 10
-57.4424440906
 20
-34.4551919101
 10
-57.4424440906
 20
-34.4551919101
 10
-57.6205290265
 20
-34.1726398268
  0
LWPOLYLINE
  5
69
330
1F
100
AcDbEntity
  8
0
  6
Continuous
 62
     7
100
AcDbPolyline
 90
       62
 70
   128
 43
0.0
 10
-49.9047040939
 20
-39.2689110192
 10
-49.4595020895
 20
-39.8017635833
 10
-49.4595020895
 20
-39.8017635833
 10
-49.3683562562
 20
-39.9118397051
 10
-49.2863250062
 20
-40.0142034871
 10
-49.2127072177
 20
-40.1081538076
 10
-49.1489051344
 20
-40.1936906666
 10
-49.0935165126
 20
-40.270814064
 10
-49.0472424741
 20
-40.3402251217
 10
-49.010083019
 20
-40.4012227179
 10
-48.9820381472
 20
-40.4538068525
 10
-48.9820381472
 20
-40.4538068525
 10
-48.9511887882
 20
-40.5225167884
 10
-48.9266495254
 20
-40.5926289679
 10
-48.9077192369
 20
-40.6627411474
 10
-48.8943979228
 20
-40.7328533269
 10
-48.8873867049
 20
-40.8043677499
 10
-48.8859844613
 20
-40.875882173
 10
-48.8908923139
 20
-40.9480977179
 10
-48.9014091408
 20
-41.0210143846
 10
-48.9182360639
 20
-41.0932299294
 10
-48.9413730831
 20
-41.1626409871
 10
-48.9715213203
 20
-41.2306498012
 10
-49.0079796536
 20
-41.2958541281
 10
-49.0514492049
 20
-41.3589550897
 10
-49.1012288523
 20
-41.4199526858
 10
-49.1573185959
 20
-41.4781457948
 10
-49.2204195575
 20
-41.5349366602
 10
-49.2204195575
 20
-41.5349366602
 10
-49.2877272498
 20
-41.5875207948
 10
-49.3557360639
 20
-41.6330937115
 10
-49.4244459998
 20
-41.672356532
 10
-49.4945581793
 20
-41.7039070128
 10
-49.5646703587
 20
-41.7291473974
 10
-49.6361847818
 20
-41.747376564
 10
-49.7076992049
 20
-41.7585945128
 10
-49.7806158716
 20
-41.7628012435
 10
-49.8528314164
 20
-41.7599967563
 10
-49.9250469613
 20
-41.7515832948
 10
-49.9958602626
 20
-41.7361586153
 10
-50.0666735639
 20
-41.7151249615
 10
-50.1360846216
 20
-41.6870800897
 10
-50.2047945575
 20
-41.6534262435
 10
-50.2735044934
 20
-41.6127611794
 10
-50.3408121857
 20
-41.566487141
 10
-50.3408121857
 20
-41.566487141
 10
-50.3933963203
 20
-41.5244198333
 10
-50.452290551
 20
-41.4718356987
 10
-50.5188971216
 20
-41.4080336153
 10
-50.5918137882
 20
-41.3330135833
 10
-50.6717416728
 20
-41.2467756025
 10
-50.7586807754
 20
-41.1500207948
 10
-50.8519299741
 20
-41.0420480384
 10
-50.9528915126
 20
-40.9228573333
 10
-50.9528915126
 20
-40.9228573333
 10
-51.11204616
 20
-40.7321522051
 10
-51.11204616
 20
-40.7321522051
 10
-52.3558362241
 20
-41.7719158269
 10
-52.3558362241
 20
-41.7719158269
 10
-52.5794940767
 20
-41.504788423
 10
-52.5794940767
 20
-41.504788423
 10
-49.9047144293
 20
-39.2689110192
  0
LWPOLYLINE
  5
6A
330
1F
100
AcDbEntity
  8
0
  6
Continuous
 62
     7
100
AcDbPolyline
 90
       40
 70
   128
 43
0.0
 10
-49.9404668808
 20
-39.7526850576
 10
-50.8498266087
 20
-40.5127010833
 10
-50.8498266087
 20
-40.5127010833
 10
-50.4768298139
 20
-40.9705336153
 10
-50.4768298139
 20
-40.9705336153
 10
-50.4207400703
 20
-41.036439064
 10
-50.3667536921
 20
-41.0960344166
 10
-50.3148706793
 20
-41.1500207948
 10
-50.2657921536
 20
-41.1976970769
 10
-50.2188169934
 20
-41.2397643846
 10
-50.1739451985
 20
-41.2762227179
 10
-50.131176769
 20
-41.3063709551
 10
-50.0912128267
 20
-41.3309102179
 10
-50.0119860639
 20
-41.3666674294
 10
-49.9299548139
 20
-41.3898044487
 10
-49.8472224421
 20
-41.398919032
 10
-49.7616855831
 20
-41.395413423
 10
-49.6775509677
 20
-41.3792876217
 10
-49.5976230831
 20
-41.3505416281
 10
-49.522603051
 20
-41.3105776858
 10
-49.451088628
 20
-41.258694673
 10
-49.451088628
 20
-41.258694673
 10
-49.3886887882
 20
-41.1990993205
 10
-49.3375068972
 20
-41.1331938717
 10
-49.2961407113
 20
-41.0602772051
 10
-49.2652913523
 20
-40.9803493205
 10
-49.2463610639
 20
-40.8976169487
 10
-49.2400509677
 20
-40.8162868205
 10
-49.2470621857
 20
-40.735657814
 10
-49.2666935959
 20
-40.6557299294
 10
-49.2821182754
 20
-40.6143637435
 10
-49.303853051
 20
-40.5687908269
 10
-49.3304956793
 20
-40.520413423
 10
-49.36204616
 20
-40.4685304102
 10
-49.3999067369
 20
-40.4131417884
 10
-49.4433762882
 20
-40.3535464358
 10
-49.4917536921
 20
-40.2911465961
 10
-49.5457400703
 20
-40.2252411474
 10
-49.5457400703
 20
-40.2252411474
 10
-49.9404716408
 20
-39.7526850576
  0
LWPOLYLINE
  5
6B
330
1F
100
AcDbEntity
  8
0
  6
Continuous
 62
     7
100
AcDbPolyline
 90
        8
 70
   128
 43
0.0
 10
-47.2352206707
 20
-42.4724615034
 10
-47.0017698652
 20
-42.7304743239
 10
-47.0017698652
 20
-42.7304743239
 10
-49.5804958267
 20
-45.06100317
 10
-49.5804958267
 20
-45.06100317
 10
-49.8139693844
 20
-44.8029903495
 10
-49.8139693844
 20
-44.8029903495
 10
-47.2352434229
 20
-42.4724615034
  0
LWPOLYLINE
  5
6C
330
1F
100
AcDbEntity
  8
0
  6
Continuous
 62
     7
100
AcDbPolyline
 90
       20
 70
   128
 43
0.0
 10
-48.0256974697
 20
-46.7028136742
 10
-45.5780982067
 20
-44.2208425204
 10
-45.5780982067
 20
-44.2208425204
 10
-45.5241118285
 20
-44.2741277768
 10
-45.5241118285
 20
-44.2741277768
 10
-45.747769681
 20
-47.800770405
 10
-45.747769681
 20
-47.800770405
 10
-43.8743722451
 20
-45.9007303409
 10
-43.8743722451
 20
-45.9007303409
 10
-43.6296807387
 20
-46.1426173601
 10
-43.6296807387
 20
-46.1426173601
 10
-46.0772969246
 20
-48.624588514
 10
-46.0772969246
 20
-48.624588514
 10
-46.1326855464
 20
-48.569901014
 10
-46.1326855464
 20
-48.569901014
 10
-45.918843399
 20
-45.0797167191
 10
-45.918843399
 20
-45.0797167191
 10
-47.7691038156
 20
-46.9559186422
 10
-47.7691038156
 20
-46.9559186422
 10
-48.0257143926
 20
-46.7028136742
  0
LWPOLYLINE
  5
6D
330
1F
100
AcDbEntity
  8
0
  6
Continuous
 62
     7
100
AcDbPolyline
 90
       16
 70
   128
 43
0.0
 10
-41.039288044
 20
-48.4714081871
 10
-42.0482195459
 20
-52.1593088281
 10
-42.0482195459
 20
-52.1593088281
 10
-42.3321738728
 20
-51.9181229307
 10
-42.3321738728
 20
-51.9181229307
 10
-42.0096578472
 20
-50.696768764
 10
-42.0096578472
 20
-50.696768764
 10
-43.1489807638
 20
-49.7306229307
 10
-43.1489807638
 20
-49.7306229307
 10
-44.2995216292
 20
-50.2494530589
 10
-44.2995216292
 20
-50.2494530589
 10
-44.5939927831
 20
-49.9998536999
 10
-44.5939927831
 20
-49.9998536999
 10
-41.1038084882
 20
-48.4160195653
 10
-41.1038084882
 20
-48.4160195653
 10
-41.0393052831
 20
-48.4714081871
  0
LWPOLYLINE
  5
6E
330
1F
100
AcDbEntity
  8
0
  6
Continuous
 62
     7
100
AcDbPolyline
 90
        6
 70
   128
 43
0.0
 10
-41.5469110012
 20
-49.0042607512
 10
-42.8145456677
 20
-49.575675014
 10
-42.8145456677
 20
-49.575675014
 10
-41.9107996741
 20
-50.3420011358
 10
-41.9107996741
 20
-50.3420011358
 10
-41.5469174625
 20
-49.0042607512
  0
LWPOLYLINE
  5
6F
330
1F
100
AcDbEntity
  8
0
  6
Continuous
 62
     7
100
AcDbPolyline
 90
       22
 70
   128
 43
0.0
 10
-38.3767187595
 20
-50.6087552497
 10
-38.0913676439
 20
-50.8183906664
 10
-38.0913676439
 20
-50.8183906664
 10
-38.8640038619
 20
-51.8700733587
 10
-38.8640038619
 20
-51.8700733587
 10
-36.9723772593
 20
-51.6401054099
 10
-36.9723772593
 20
-51.6401054099
 10
-36.5930703683
 20
-51.9191518843
 10
-36.5930703683
 20
-51.9191518843
 10
-38.8647049837
 20
-52.1869804099
 10
-38.8647049837
 20
-52.1869804099
 10
-38.5477979324
 20
-54.8000613394
 10
-38.5477979324
 20
-54.8000613394
 10
-38.9193924837
 20
-54.5273249612
 10
-38.9193924837
 20
-54.5273249612
 10
-39.1907266183
 20
-52.3145845766
 10
-39.1907266183
 20
-52.3145845766
 10
-40.1512634773
 20
-53.622176724
 10
-40.1512634773
 20
-53.622176724
 10
-40.4366200478
 20
-53.4125413074
 10
-40.4366200478
 20
-53.4125413074
 10
-38.3767242144
 20
-50.6087552497
  0
LWPOLYLINE
  5
70
330
1F
100
AcDbEntity
  8
0
  6
Continuous
 62
     7
100
AcDbPolyline
 90
       16
 70
   128
 43
0.0
 10
-33.839404583
 20
-53.7430639247
 10
-34.3182936914
 20
-57.5368339567
 10
-34.3182936914
 20
-57.5368339567
 10
-34.6330973773
 20
-57.3384164888
 10
-34.6330973773
 20
-57.3384164888
 10
-34.4865629222
 20
-56.0841095978
 10
-34.4865629222
 20
-56.0841095978
 10
-35.7506855184
 20
-55.2876352388
 10
-35.7506855184
 20
-55.2876352388
 10
-36.8163906466
 20
-55.9642177708
 10
-36.8163906466
 20
-55.9642177708
 10
-37.1438145248
 20
-55.7580879631
 10
-37.1438145248
 20
-55.7580879631
 10
-33.9109419286
 20
-53.697491008
 10
-33.9109419286
 20
-53.697491008
 10
-33.8394275056
 20
-53.7430639247
  0
LWPOLYLINE
  5
71
330
1F
100
AcDbEntity
  8
0
  6
Continuous
 62
     7
100
AcDbPolyline
 90
        6
 70
   128
 43
0.0
 10
-34.2670977116
 20
-54.3418219375
 10
-35.440789685
 20
-55.0871144054
 10
-35.440789685
 20
-55.0871144054
 10
-34.4374843966
 20
-55.7188251426
 10
-34.4374843966
 20
-55.7188251426
 10
-34.2671118004
 20
-54.3418219375
  0
LWPOLYLINE
  5
72
330
1F
100
AcDbEntity
  8
0
  6
Continuous
 62
     7
100
AcDbPolyline
 90
        8
 70
   128
 43
0.0
 10
-29.6482294798
 20
-58.4535088496
 10
-28.4794678673
 20
-59.0312332085
 10
-28.4794678673
 20
-59.0312332085
 10
-28.6077731558
 20
-59.2906482726
 10
-28.6077731558
 20
-59.2906482726
 10
-29.7765431879
 20
-58.7129239137
 10
-29.7765431879
 20
-58.7129239137
 10
-29.6482378994
 20
-58.4535088496
  0
LWPOLYLINE
  5
73
330
1F
100
AcDbEntity
  8
0
  6
Continuous
 62
     7
100
AcDbPolyline
 90
       16
 70
   128
 43
0.0
 10
-22.0405906439
 20
-59.565123796
 10
-21.798711561
 20
-63.4156846934
 10
-21.798711561
 20
-63.4156846934
 10
-22.1485713366
 20
-63.2782648216
 10
-22.1485713366
 20
-63.2782648216
 10
-22.2397171699
 20
-62.0064298857
 10
-22.2397171699
 20
-62.0064298857
 10
-23.6426618815
 20
-61.4567503986
 10
-23.6426618815
 20
-61.4567503986
 10
-24.5716482597
 20
-62.3282447896
 10
-24.5716482597
 20
-62.3282447896
 10
-24.9341282276
 20
-62.186618187
 10
-24.9341282276
 20
-62.186618187
 10
-22.1205264648
 20
-59.5335733152
 10
-22.1205264648
 20
-59.5335733152
 10
-22.0405985802
 20
-59.565123796
  0
LWPOLYLINE
  5
74
330
1F
100
AcDbEntity
  8
0
  6
Continuous
 62
     7
100
AcDbPolyline
 90
        6
 70
   128
 43
0.0
 10
-22.3511904478
 20
-60.2403040845
 10
-23.3727299905
 20
-61.2001398216
 10
-23.3727299905
 20
-61.2001398216
 10
-22.260049702
 20
-61.6362375781
 10
-22.260049702
 20
-61.6362375781
 10
-22.3511955353
 20
-60.2403040845
  0
LWPOLYLINE
  5
75
330
1F
100
AcDbEntity
  8
0
  6
Continuous
 62
     7
100
AcDbPolyline
 90
      175
 70
   128
 43
0.0
 10
-20.0185626745
 20
-63.2597802312
 10
-19.6834310197
 20
-63.1791512248
 10
-19.6834310197
 20
-63.1791512248
 10
-19.6476738082
 20
-63.3312946543
 10
-19.6035031351
 20
-63.4673122825
 10
-19.5516201223
 20
-63.5872041094
 10
-19.4913236479
 20
-63.690970135
 10
-19.422613712
 20
-63.7786103594
 10
-19.3454903146
 20
-63.8494236607
 10
-19.2599534556
 20
-63.9048122825
 10
-19.1667042569
 20
-63.9433739812
 10
-19.1667042569
 20
-63.9433739812
 10
-19.0832707633
 20
-63.964407635
 10
-18.9984350261
 20
-63.9742233401
 10
-18.9143004107
 20
-63.9742233401
 10
-18.8287635518
 20
-63.9637065132
 10
-18.7467323018
 20
-63.9433739812
 10
-18.6710111479
 20
-63.913225744
 10
-18.602301212
 20
-63.8739629235
 10
-18.5399013723
 20
-63.8248843978
 10
-18.4852138723
 20
-63.7687946543
 10
-18.4403420774
 20
-63.7077970581
 10
-18.4038837441
 20
-63.6418916094
 10
-18.3765399941
 20
-63.5710783081
 10
-18.3765399941
 20
-63.5710783081
 10
-18.3576097056
 20
-63.4855414491
 10
-18.352701853
 20
-63.397200103
 10
-18.3625175582
 20
-63.304652026
 10
-18.3863556992
 20
-63.2085983401
 10
-18.3863556992
 20
-63.2085983401
 10
-18.4115960838
 20
-63.1384861607
 10
-18.4438476864
 20
-63.0627650068
 10
-18.4838116287
 20
-62.9821360004
 10
-18.5300856671
 20
-62.8958980196
 10
-18.5840720454
 20
-62.8040510645
 10
-18.6450696415
 20
-62.7072962568
 10
-18.7137795774
 20
-62.6049324748
 10
-18.7887996095
 20
-62.4976608401
 10
-18.7887996095
 20
-62.4976608401
 10
-18.8638196415
 20
-62.3910903273
 10
-18.930426212
 20
-62.292933276
 10
-18.9893204428
 20
-62.2031896863
 10
-19.0405023338
 20
-62.1218595581
 10
-19.0832707633
 20
-62.0496440132
 10
-19.1176257313
 20
-61.9851408081
 10
-19.1442683595
 20
-61.9297521863
 10
-19.1631986479
 20
-61.882777026
 10
-19.1631986479
 20
-61.882777026
 10
-19.1856345454
 20
-61.8105614812
 10
-19.2024614684
 20
-61.7390470581
 10
-19.2136794171
 20
-61.667532635
 10
-19.2185872697
 20
-61.5967193337
 10
-19.2178861479
 20
-61.5266071543
 10
-19.21087493
 20
-61.4571960966
 10
-19.1982547377
 20
-61.3884861607
 10
-19.180025571
 20
-61.3197762248
 10
-19.180025571
 20
-61.3197762248
 10
-19.1400616287
 20
-61.2160101991
 10
-19.0888797377
 20
-61.120657635
 10
-19.0264798979
 20
-61.0344196543
 10
-18.9528621095
 20
-60.9572962568
 10
-18.8694286159
 20
-60.8906896863
 10
-18.7775816607
 20
-60.8367033081
 10
-18.6787234877
 20
-60.796038244
 10
-18.5721529748
 20
-60.7679933722
 10
-18.4613757313
 20
-60.7532698145
 10
-18.3512996095
 20
-60.7518675709
 10
-18.2405223659
 20
-60.7658900068
 10
-18.1304462441
 20
-60.7932337568
 10
-18.1304462441
 20
-60.7932337568
 10
-18.0168645133
 20
-60.8367033081
 10
-17.9123973659
 20
-60.8934941735
 10
-17.8156425582
 20
-60.9643074748
 10
-17.7280023338
 20
-61.0477409684
 10
-17.6866361479
 20
-61.0961183722
 10
-17.6459710838
 20
-61.1501047504
 10
-17.6074093851
 20
-61.2111023466
 10
-17.5688476864
 20
-61.2784100389
 10
-17.532389353
 20
-61.3520278273
 10
-17.4966321415
 20
-61.4312545901
 10
-17.4622771736
 20
-61.5174925709
 10
-17.4293244492
 20
-61.6100406478
 10
-17.4293244492
 20
-61.6100406478
 10
-17.7644606671
 20
-61.7306335966
 10
-17.7644606671
 20
-61.7306335966
 10
-17.7918044171
 20
-61.6570158081
 10
-17.8191481671
 20
-61.589006994
 10
-17.8464919171
 20
-61.5266071543
 10
-17.8738356671
 20
-61.4705174107
 10
-17.9011794171
 20
-61.4200366414
 10
-17.9278220454
 20
-61.3751648466
 10
-17.9551657954
 20
-61.3366031478
 10
-17.9818084236
 20
-61.3036504235
 10
-18.0378981671
 20
-61.2475606799
 10
-18.1002980069
 20
-61.2005855196
 10
-18.1690079428
 20
-61.1627249427
 10
-18.2440279748
 20
-61.1339789491
 10
-18.2440279748
 20
-61.1339789491
 10
-18.3421850261
 20
-61.1115430517
 10
-18.4361353466
 20
-61.1073363209
 10
-18.5258789364
 20
-61.120657635
 10
-18.6107146736
 20
-61.1529092376
 10
-18.6864358274
 20
-61.1998843978
 10
-18.7488356671
 20
-61.2587786286
 10
-18.797213071
 20
-61.3302930517
 10
-18.8322691607
 20
-61.4130254235
 10
-18.8322691607
 20
-61.4130254235
 10
-18.8462915966
 20
-61.4677129235
 10
-18.8547050582
 20
-61.5231015453
 10
-18.8568084236
 20
-61.5798924107
 10
-18.8533028146
 20
-61.6373843978
 10
-18.8420848659
 20
-61.6976808722
 10
-18.8224534556
 20
-61.7635863209
 10
-18.7944085838
 20
-61.8343996222
 10
-18.7579502505
 20
-61.910120776
 10
-18.7579502505
 20
-61.910120776
 10
-18.7432266928
 20
-61.9353611607
 10
-18.7207907954
 20
-61.9704172504
 10
-18.6906425582
 20
-62.0145879235
 10
-18.6541842248
 20
-62.0685743017
 10
-18.6100135518
 20
-62.1316752632
 10
-18.5581305389
 20
-62.2038908081
 10
-18.4992363082
 20
-62.2852209363
 10
-18.4333308595
 20
-62.3763667696
 10
-18.4333308595
 20
-62.3763667696
 10
-18.3541040966
 20
-62.4871440132
 10
-18.2832907954
 20
-62.5930134043
 10
-18.219488712
 20
-62.6946760645
 10
-18.1641000902
 20
-62.7907297504
 10
-18.1164238082
 20
-62.8825767055
 10
-18.0764598659
 20
-62.9688146863
 10
-18.0442082633
 20
-63.0508459363
 10
-18.0196690005
 20
-63.1279693337
 10
-18.0014398338
 20
-63.2015871222
 10
-17.9881185197
 20
-63.2738026671
 10
-17.98040618
 20
-63.3446159684
 10
-17.976900571
 20
-63.414027026
 10
-17.9790039364
 20
-63.4820358401
 10
-17.9860151543
 20
-63.5479412889
 10
-17.9986353466
 20
-63.6131456158
 10
-18.0154622697
 20
-63.6762465773
 10
-18.0154622697
 20
-63.6762465773
 10
-18.0477138723
 20
-63.7638868017
 10
-18.0869766928
 20
-63.8452169299
 10
-18.1346529748
 20
-63.9216392055
 10
-18.1893404748
 20
-63.9924525068
 10
-18.2524414364
 20
-64.0569557119
 10
-18.3225536159
 20
-64.1165510645
 10
-18.4003781351
 20
-64.1698363209
 10
-18.4859149941
 20
-64.2182137248
 10
-18.5756585838
 20
-64.2581776671
 10
-18.6668044171
 20
-64.289027026
 10
-18.7593524941
 20
-64.3107618017
 10
-18.851900571
 20
-64.3226808722
 10
-18.9465520133
 20
-64.3247842376
 10
-19.0419045774
 20
-64.3177730196
 10
-19.1386593851
 20
-64.3016472184
 10
-19.2361153146
 20
-64.2757057119
 10
-19.2361153146
 20
-64.2757057119
 10
-19.309733103
 20
-64.2497642055
 10
-19.3805464043
 20
-64.2196159684
 10
-19.4478540966
 20
-64.1845598786
 10
-19.51165618
 20
-64.1452970581
 10
-19.5719526543
 20
-64.101126385
 10
-19.6294446415
 20
-64.0527489812
 10
-19.6834310197
 20
-64.0001648466
 10
-19.7339117889
 20
-63.9426728594
 10
-19.7808869492
 20
-63.8795718978
 10
-19.8250576223
 20
-63.8108619619
 10
-19.8657226864
 20
-63.7351408081
 10
-19.9028821415
 20
-63.6524084363
 10
-19.9365359877
 20
-63.5640670901
 10
-19.9673853466
 20
-63.4694156478
 10
-19.9947290966
 20
-63.3677529876
 10
-20.0185672377
 20
-63.2597802312
  0
LWPOLYLINE
  5
76
330
1F
100
AcDbEntity
  8
0
  6
Continuous
 62
     7
100
AcDbPolyline
 90
        8
 70
   128
 43
0.0
 10
-15.2823701501
 20
-61.6409163861
 10
-14.9437325121
 20
-61.7285566104
 10
-14.9437325121
 20
-61.7285566104
 10
-15.8187325121
 20
-65.1128715143
 10
-15.8187325121
 20
-65.1128715143
 10
-16.157374339
 20
-65.0252312899
 10
-16.157374339
 20
-65.0252312899
 10
-15.282374339
 20
-61.6409163861
  0
LWPOLYLINE
  5
77
330
1F
100
AcDbEntity
  8
0
  6
Continuous
 62
     7
100
AcDbPolyline
 90
       26
 70
   128
 43
0.0
 10
-10.9914168715
 20
-66.0851709225
 10
-10.0112516075
 20
-62.706464993
 10
-10.0112516075
 20
-62.706464993
 10
-9.9544607421
 20
-62.7141773327
 10
-9.9544607421
 20
-62.7141773327
 10
-8.9553621844
 20
-65.7437246084
 10
-8.9553621844
 20
-65.7437246084
 10
-7.1646971203
 20
-63.1117133904
 10
-7.1646971203
 20
-63.1117133904
 10
-7.1086073767
 20
-63.1194257302
 10
-7.1086073767
 20
-63.1194257302
 10
-7.1051017677
 20
-66.6390571404
 10
-7.1051017677
 20
-66.6390571404
 10
-7.4444447164
 20
-66.5906797366
 10
-7.4444447164
 20
-66.5906797366
 10
-7.4311234023
 20
-64.0757558584
 10
-7.4311234023
 20
-64.0757558584
 10
-9.0016362229
 20
-66.3684241276
 10
-9.0016362229
 20
-66.3684241276
 10
-9.0878742036
 20
-66.3565050571
 10
-9.0878742036
 20
-66.3565050571
 10
-9.9698854216
 20
-63.6957478455
 10
-9.9698854216
 20
-63.6957478455
 10
-10.6590881459
 20
-66.1328472045
 10
-10.6590881459
 20
-66.1328472045
 10
-10.9914198767
 20
-66.0851709225
  0
LWPOLYLINE
  5
78
330
1F
100
AcDbEntity
  8
0
  6
Continuous
 62
     7
100
AcDbPolyline
 90
       76
 70
   128
 43
0.0
 10
-3.1159315258
 20
-63.3208753914
 10
-2.9231232357
 20
-63.3391045581
 10
-2.7387282037
 20
-63.3727584042
 10
-2.563447755
 20
-63.4232391735
 10
-2.3965807678
 20
-63.489845744
 10
-2.2395294857
 20
-63.571876994
 10
-2.0908916652
 20
-63.6707351671
 10
-1.951368428
 20
-63.7850180196
 10
-1.8202586524
 20
-63.9161277953
 10
-1.7024701909
 20
-64.0584555196
 10
-1.6015086524
 20
-64.2070933401
 10
-1.517374037
 20
-64.3627423786
 10
-1.4500663447
 20
-64.5247015132
 10
-1.4002866973
 20
-64.6936718658
 10
-1.3680350947
 20
-64.8696534363
 10
-1.3519092934
 20
-65.0526462248
 10
-1.353311537
 20
-65.2419491094
 10
-1.353311537
 20
-65.2419491094
 10
-1.3708395819
 20
-65.4291486286
 10
-1.4051945498
 20
-65.6079346863
 10
-1.4549741973
 20
-65.7790084042
 10
-1.5215807678
 20
-65.9416686607
 10
-1.6043131396
 20
-66.0959154555
 10
-1.7031713127
 20
-66.2424499107
 10
-1.8188564088
 20
-66.381272026
 10
-1.9499661845
 20
-66.5116806799
 10
-2.0929950306
 20
-66.6294691414
 10
-2.2416328511
 20
-66.7304306799
 10
-2.3972818896
 20
-66.8145652953
 10
-2.5592410242
 20
-66.8811718658
 10
-2.7282113768
 20
-66.9309515132
 10
-2.9027907037
 20
-66.9639042376
 10
-3.0843812486
 20
-66.9800300389
 10
-3.2722818896
 20
-66.9786277953
 10
-3.2722818896
 20
-66.9786277953
 10
-3.4615847742
 20
-66.9603986286
 10
-3.6424741973
 20
-66.9267447824
 10
-3.8149501588
 20
-66.8762640132
 10
-3.9790126588
 20
-66.8096574427
 10
-4.1353628191
 20
-66.7276261927
 10
-4.282598396
 20
-66.6287680196
 10
-4.4221216332
 20
-66.5137840453
 10
-4.552530287
 20
-66.3826742696
 10
-4.6703187486
 20
-66.2403465453
 10
-4.771280287
 20
-66.0917087248
 10
-4.8554149024
 20
-65.9374619299
 10
-4.9220214729
 20
-65.7762039171
 10
-4.9718011204
 20
-65.6100380517
 10
-5.0047538447
 20
-65.4368609683
 10
-5.020879646
 20
-65.2580749107
 10
-5.0194774024
 20
-65.0729787568
 10
-5.0194774024
 20
-65.0729787568
 10
-5.0096616973
 20
-64.9488801991
 10
-4.9921336524
 20
-64.8275861286
 10
-4.9668932678
 20
-64.7083954235
 10
-4.9346416652
 20
-64.5927103273
 10
-4.8946777229
 20
-64.4791285965
 10
-4.8470014409
 20
-64.368351353
 10
-4.7923139409
 20
-64.2603785965
 10
-4.7299141011
 20
-64.1552103273
 10
-4.6612041652
 20
-64.0542487889
 10
-4.5875863768
 20
-63.9588962248
 10
-4.5083596139
 20
-63.8705548786
 10
-4.4235238768
 20
-63.787121385
 10
-4.3344814088
 20
-63.7106991094
 10
-4.2398299665
 20
-63.6398858081
 10
-4.1395695498
 20
-63.575382603
 10
-4.0344012806
 20
-63.517189494
 10
-3.9257274024
 20
-63.4653064812
 10
-3.8149501588
 20
-63.4218369299
 10
-3.7027706716
 20
-63.3853785965
 10
-3.5891889409
 20
-63.3573337248
 10
-3.4735038447
 20
-63.3363000709
 10
-3.3557153832
 20
-63.3236798786
 10
-3.236524678
 20
-63.3180709042
 10
-3.1159317293
 20
-63.3208753914
  0
LWPOLYLINE
  5
79
330
1F
100
AcDbEntity
  8
0
  6
Continuous
 62
     7
100
AcDbPolyline
 90
       92
 70
   128
 43
0.0
 10
-3.1166318804
 20
-63.6623217055
 10
-3.212686537
 20
-63.6609194619
 10
-3.3073379793
 20
-63.6651261927
 10
-3.4019894216
 20
-63.6763441414
 10
-3.4945374986
 20
-63.6931710645
 10
-3.5870855755
 20
-63.7170092055
 10
-3.6782314088
 20
-63.7471574427
 10
-3.7686761204
 20
-63.783615776
 10
-3.8584197101
 20
-63.8263842055
 10
-3.9453588127
 20
-63.8747616094
 10
-4.0273900627
 20
-63.927345744
 10
-4.1045134601
 20
-63.9848377312
 10
-4.1774301268
 20
-64.0465364491
 10
-4.2461400627
 20
-64.1138441414
 10
-4.3106432678
 20
-64.1846574427
 10
-4.3702386204
 20
-64.2603785965
 10
-4.4249261204
 20
-64.341007603
 10
-4.4747057678
 20
-64.4251422183
 10
-4.5188764409
 20
-64.5120813209
 10
-4.5567370178
 20
-64.6018249107
 10
-4.5882874986
 20
-64.6936718658
 10
-4.614229005
 20
-64.7890244299
 10
-4.634561537
 20
-64.8871814812
 10
-4.6485839729
 20
-64.9874418978
 10
-4.6569974345
 20
-65.0912079235
 10
-4.6569974345
 20
-65.0912079235
 10
-4.6576985563
 20
-65.243351353
 10
-4.6450783639
 20
-65.3905869299
 10
-4.6191368575
 20
-65.5322135324
 10
-4.5784717934
 20
-65.6682311607
 10
-4.525186537
 20
-65.7993409363
 10
-4.4571777229
 20
-65.9248417376
 10
-4.3758475947
 20
-66.0447335645
 10
-4.2811961524
 20
-66.1597175389
 10
-4.1760278832
 20
-66.2655869299
 10
-4.0645495178
 20
-66.3581350068
 10
-3.947462178
 20
-66.4373617696
 10
-3.8233636204
 20
-66.5039683401
 10
-3.6936560883
 20
-66.5572535965
 10
-3.5576384601
 20
-66.5979186607
 10
-3.4160118575
 20
-66.6252624107
 10
-3.267374037
 20
-66.6392848465
 10
-3.267374037
 20
-66.6392848465
 10
-3.1671136204
 20
-66.6413882119
 10
-3.0682554473
 20
-66.6371814812
 10
-2.9707995178
 20
-66.6266646542
 10
-2.8754469537
 20
-66.6098377312
 10
-2.7814966332
 20
-66.5867007119
 10
-2.6889485563
 20
-66.5579547183
 10
-2.5978027229
 20
-66.5221975068
 10
-2.508760255
 20
-66.4808313209
 10
-2.4225222742
 20
-66.4338561607
 10
-2.3404910242
 20
-66.3819731478
 10
-2.2633676268
 20
-66.3251822824
 10
-2.1904509601
 20
-66.2641846863
 10
-2.1217410242
 20
-66.1975781158
 10
-2.0579389409
 20
-66.1267648145
 10
-1.9990447101
 20
-66.0517447824
 10
-1.9443572101
 20
-65.971115776
 10
-1.8945775627
 20
-65.8869811607
 10
-1.8511080114
 20
-65.8000420581
 10
-1.8132474345
 20
-65.7109995901
 10
-1.7809958319
 20
-65.6184515132
 10
-1.7550543255
 20
-65.5238000709
 10
-1.7354229152
 20
-65.4263441414
 10
-1.7214004793
 20
-65.3267848465
 10
-1.7129870178
 20
-65.2237199427
 10
-1.7129870178
 20
-65.2237199427
 10
-1.7108836524
 20
-65.1213561607
 10
-1.7150903832
 20
-65.021095744
 10
-1.7249060883
 20
-64.9229386927
 10
-1.7410318896
 20
-64.8268850068
 10
-1.763467787
 20
-64.7329346863
 10
-1.7922137806
 20
-64.641788853
 10
-1.8272698704
 20
-64.5520452632
 10
-1.8679349345
 20
-64.4651061607
 10
-1.9142089729
 20
-64.3809715453
 10
-1.9660919857
 20
-64.3003425389
 10
-2.0228828511
 20
-64.2239202632
 10
-2.0845815691
 20
-64.1517047183
 10
-2.1518892614
 20
-64.0829947824
 10
-2.2241048063
 20
-64.0184915773
 10
-2.3012282037
 20
-63.958195103
 10
-2.3839605755
 20
-63.9014042376
 10
-2.4694974345
 20
-63.8495212248
 10
-2.5571376588
 20
-63.8039483081
 10
-2.6461801268
 20
-63.7646854876
 10
-2.7373259601
 20
-63.7317327632
 10
-2.829874037
 20
-63.705090135
 10
-2.9238243575
 20
-63.684757603
 10
-3.0191769216
 20
-63.6700340453
 10
-3.1166328511
 20
-63.6623217055
  0
LWPOLYLINE
  5
7A
330
1F
100
AcDbEntity
  8
0
  6
Continuous
 62
     7
100
AcDbPolyline
 90
       57
 70
   128
 43
0.0
 10
0.7373439148
 20
-66.9852423952
 10
0.6216588323
 20
-63.5041726836
 10
0.6216588323
 20
-63.5041726836
 10
1.343814281
 20
-63.4803345426
 10
1.343814281
 20
-63.4803345426
 10
1.5324160439
 20
-63.4761278119
 10
1.7076964926
 20
-63.4761278119
 10
1.8696556272
 20
-63.4803345426
 10
2.0182934477
 20
-63.489449126
 10
2.1536099541
 20
-63.5020693183
 10
2.2763062682
 20
-63.5195973631
 10
2.3849801464
 20
-63.5420332606
 10
2.4810338323
 20
-63.567974767
 10
2.4810338323
 20
-63.567974767
 10
2.6058335118
 20
-63.6121454401
 10
2.7236219733
 20
-63.6647295747
 10
2.8351003387
 20
-63.7257271708
 10
2.940268608
 20
-63.7951382285
 10
3.0384256592
 20
-63.8729627477
 10
3.1295714926
 20
-63.9592007285
 10
3.2144072298
 20
-64.0538521708
 10
3.2929328708
 20
-64.1569170747
 10
3.3637461721
 20
-64.2669931965
 10
3.42544489
 20
-64.3819771708
 10
3.4787301464
 20
-64.5032712413
 10
3.5229008195
 20
-64.6294731644
 10
3.558658031
 20
-64.7619851836
 10
3.5853006592
 20
-64.8994050554
 10
3.6035298259
 20
-65.0424339016
 10
3.6126444092
 20
-65.1910717221
 10
3.6126444092
 20
-65.1910717221
 10
3.613345531
 20
-65.3200781324
 10
3.6070354349
 20
-65.4448778119
 10
3.593012999
 20
-65.5668730042
 10
3.5726804669
 20
-65.6846614657
 10
3.5446355951
 20
-65.7989443183
 10
3.5088783836
 20
-65.9090204401
 10
3.4668110759
 20
-66.0162920747
 10
3.4170314285
 20
-66.1193569785
 10
3.3616428067
 20
-66.2175140298
 10
3.3020474541
 20
-66.3086598631
 10
3.237544249
 20
-66.3941967221
 10
3.1688343131
 20
-66.4727223631
 10
3.0959176464
 20
-66.5456390298
 10
3.0180931272
 20
-66.6115444785
 10
2.9360618772
 20
-66.6718409529
 10
2.8498238964
 20
-66.7251262093
 10
2.7565746977
 20
-66.7728024913
 10
2.6542109157
 20
-66.8141686772
 10
2.5427325503
 20
-66.8506270106
 10
2.4214384798
 20
-66.8814763695
 10
2.2917309477
 20
-66.9067167542
 10
2.1522077105
 20
-66.9256470426
 10
2.0028687682
 20
-66.9396694785
 10
1.8451163644
 20
-66.9480829401
 10
1.8451163644
 20
-66.9480829401
 10
0.7373439285
 20
-66.9852423952
  0
LWPOLYLINE
  5
7B
330
1F
100
AcDbEntity
  8
0
  6
Continuous
 62
     7
100
AcDbPolyline
 90
       58
 70
   128
 43
0.0
 10
1.0598590598
 20
-66.6451983247
 10
1.4623038644
 20
-66.6318770106
 10
1.4623038644
 20
-66.6318770106
 10
1.6354809477
 20
-66.6248657926
 10
1.7953367169
 20
-66.6150500875
 10
1.9404689285
 20
-66.603131017
 10
2.0722798259
 20
-66.5891085811
 10
2.1900682874
 20
-66.572281658
 10
2.2938343131
 20
-66.5533513695
 10
2.3842790246
 20
-66.5323177157
 10
2.4600001785
 20
-66.5084795747
 10
2.4600001785
 20
-66.5084795747
 10
2.5546516208
 20
-66.469917876
 10
2.6436940887
 20
-66.4257472029
 10
2.7271275823
 20
-66.3745653119
 10
2.8049521015
 20
-66.3177744465
 10
2.8778687682
 20
-66.2546734849
 10
2.9444753387
 20
-66.1852624272
 10
3.0061740567
 20
-66.1095412734
 10
3.0622638003
 20
-66.0275100234
 10
3.1120434477
 20
-65.9405709208
 10
3.1548118772
 20
-65.8487239657
 10
3.1905690887
 20
-65.7526702798
 10
3.2186139605
 20
-65.6524098631
 10
3.2403487362
 20
-65.5479427157
 10
3.2543711721
 20
-65.4385677157
 10
3.2606812682
 20
-65.3249859849
 10
3.2606812682
 20
-65.2071975234
 10
3.2606812682
 20
-65.2071975234
 10
3.2529689285
 20
-65.0838000875
 10
3.237544249
 20
-64.9646093824
 10
3.2144072298
 20
-64.8510276516
 10
3.1842589926
 20
-64.7416526516
 10
3.1463984157
 20
-64.637886626
 10
3.100825499
 20
-64.5383273311
 10
3.0482413644
 20
-64.4443770106
 10
2.98794489
 20
-64.3546334208
 10
2.9213383195
 20
-64.2711999272
 10
2.8491227746
 20
-64.1947776516
 10
2.7705971336
 20
-64.1253665939
 10
2.6864625182
 20
-64.0629667542
 10
2.5967189285
 20
-64.0082792542
 10
2.5013663644
 20
-63.9606029721
 10
2.4004048259
 20
-63.919937908
 10
2.2931331913
 20
-63.8869851836
 10
2.2931331913
 20
-63.8869851836
 10
2.2040907233
 20
-63.8666526516
 10
2.1017269413
 20
-63.8498257285
 10
1.9867429669
 20
-63.8365044144
 10
1.8577365567
 20
-63.8266887093
 10
1.7161099541
 20
-63.8203786131
 10
1.5618631592
 20
-63.8182752477
 10
1.3935939285
 20
-63.8189763695
 10
1.2127045054
 20
-63.8231831003
 10
1.2127045054
 20
-63.8231831003
 10
0.9666107554
 20
-63.8315965619
 10
0.9666107554
 20
-63.8315965619
 10
1.0598599541
 20
-66.6451983247
  0
LWPOLYLINE
  5
7C
330
1F
100
AcDbEntity
  8
0
  6
Continuous
 62
     7
100
AcDbPolyline
 90
       24
 70
   128
 43
0.0
 10
5.4395310581
 20
-63.2906639268
 10
7.4159955041
 20
-63.0831318755
 10
7.4159955041
 20
-63.0831318755
 10
7.4517527157
 20
-63.4231759461
 10
7.4517527157
 20
-63.4231759461
 10
5.8195411772
 20
-63.594249664
 10
5.8195411772
 20
-63.594249664
 10
5.933122908
 20
-64.6725749845
 10
5.933122908
 20
-64.6725749845
 10
7.5513120106
 20
-64.5029035102
 10
7.5513120106
 20
-64.5029035102
 10
7.5863681003
 20
-64.8408442153
 10
7.5863681003
 20
-64.8408442153
 10
5.9681789977
 20
-65.0105156897
 10
5.9681789977
 20
-65.0105156897
 10
6.1105067221
 20
-66.362979632
 10
6.1105067221
 20
-66.362979632
 10
7.7286958247
 20
-66.1933081576
 10
7.7286958247
 20
-66.1933081576
 10
7.7644530362
 20
-66.5333522281
 10
7.7644530362
 20
-66.5333522281
 10
5.8020131324
 20
-66.7394820358
 10
5.8020131324
 20
-66.7394820358
 10
5.4395331644
 20
-63.2906639268
  0
LWPOLYLINE
  5
7D
330
1F
100
AcDbEntity
  8
0
  6
Continuous
 62
     7
100
AcDbPolyline
 90
       12
 70
   128
 43
0.0
 10
9.2799663544
 20
-62.8131331872
 10
9.626323339
 20
-62.7549400783
 10
9.626323339
 20
-62.7549400783
 10
10.1479579543
 20
-65.8707253347
 10
10.1479579543
 20
-65.8707253347
 10
11.4730781467
 20
-65.6491708475
 10
11.4730781467
 20
-65.6491708475
 10
11.5284667684
 20
-65.9822037001
 10
11.5284667684
 20
-65.9822037001
 10
9.8569924095
 20
-66.2619512962
 10
9.8569924095
 20
-66.2619512962
 10
9.2799691723
 20
-62.8131331872
  0
LWPOLYLINE
  5
7E
330
1F
100
AcDbEntity
  8
0
  6
Continuous
 62
     7
100
AcDbPolyline
 90
       59
 70
   128
 43
0.0
 10
15.3519809246
 20
-61.6218710875
 10
16.0194537961
 20
-61.4339704465
 10
16.0194537961
 20
-61.4339704465
 10
16.1533680589
 20
-61.3968109914
 10
16.2767654948
 20
-61.3645593888
 10
16.388944982
 20
-61.3372156388
 10
16.4906076422
 20
-61.3140786196
 10
16.5817534756
 20
-61.2951483311
 10
16.6616813602
 20
-61.2811258952
 10
16.7303912961
 20
-61.2720113119
 10
16.788584405
 20
-61.2671034593
 10
16.788584405
 20
-61.2671034593
 10
16.8671100461
 20
-61.2664023375
 10
16.9435323217
 20
-61.2713101901
 10
17.017851232
 20
-61.281827017
 10
17.0900667768
 20
-61.2986539401
 10
17.1594778345
 20
-61.3210898375
 10
17.2274866486
 20
-61.3498358311
 10
17.2926909756
 20
-61.3841907991
 10
17.3564930589
 20
-61.4241547414
 10
17.4167895333
 20
-61.469727658
 10
17.4714770333
 20
-61.5195073055
 10
17.5219578025
 20
-61.5748959273
 10
17.5675307191
 20
-61.6351924016
 10
17.6074946615
 20
-61.6996956068
 10
17.6425507512
 20
-61.7698077863
 10
17.6734001102
 20
-61.8441266965
 10
17.6986404948
 20
-61.9240545811
 10
17.6986404948
 20
-61.9240545811
 10
17.7280876102
 20
-62.0586699657
 10
17.7386044371
 20
-62.1897797414
 10
17.7308920974
 20
-62.317383908
 10
17.7049505909
 20
-62.4407813439
 10
17.6614810397
 20
-62.5578686837
 10
17.5997823217
 20
-62.6665425619
 10
17.5212566807
 20
-62.7668029786
 10
17.4252029948
 20
-62.8579488119
 10
17.369814373
 20
-62.9007172414
 10
17.3074145333
 20
-62.9413823055
 10
17.2380034756
 20
-62.980645126
 10
17.1629834435
 20
-63.0178045811
 10
17.0809521935
 20
-63.0535617927
 10
16.9919097256
 20
-63.0879167606
 10
16.8965571615
 20
-63.120869485
 10
16.7948945012
 20
-63.1517188439
 10
16.7948945012
 20
-63.1517188439
 10
18.4383239884
 20
-64.3709696452
 10
18.4383239884
 20
-64.3709696452
 10
18.0239610076
 20
-64.488056985
 10
18.0239610076
 20
-64.488056985
 10
16.3826348858
 20
-63.2674039401
 10
16.3826348858
 20
-63.2674039401
 10
16.1912286358
 20
-63.3213903183
 10
16.1912286358
 20
-63.3213903183
 10
16.6294297576
 20
-64.8799840683
 10
16.6294297576
 20
-64.8799840683
 10
16.2942935397
 20
-64.9739343888
 10
16.2942935397
 20
-64.9739343888
 10
15.3519858474
 20
-61.6218710875
  0
LWPOLYLINE
  5
7F
330
1F
100
AcDbEntity
  8
0
  6
Continuous
 62
     7
100
AcDbPolyline
 90
       40
 70
   128
 43
0.0
 10
15.779659152
 20
-61.856045767
 10
16.0993816807
 20
-62.9953686837
 10
16.0993816807
 20
-62.9953686837
 10
16.6771060397
 20
-62.8383174016
 10
16.6771060397
 20
-62.8383174016
 10
16.7577350461
 20
-62.8144792606
 10
16.8327550781
 20
-62.7899399978
 10
16.901465014
 20
-62.765400735
 10
16.9638648538
 20
-62.7401603504
 10
17.0206557191
 20
-62.7142188439
 10
17.0711364884
 20
-62.6882773375
 10
17.1160082833
 20
-62.6616347093
 10
17.154569982
 20
-62.6349920811
 10
17.2204754307
 20
-62.5767989721
 10
17.2744618089
 20
-62.512295767
 10
17.3172302384
 20
-62.4400802221
 10
17.3480795974
 20
-62.3608534593
 10
17.3677110076
 20
-62.2774199657
 10
17.3740211038
 20
-62.1925842286
 10
17.3684121294
 20
-62.1077484914
 10
17.3501829627
 20
-62.0215105106
 10
17.3501829627
 20
-62.0215105106
 10
17.3214369691
 20
-61.9408815042
 10
17.2821741486
 20
-61.8665625939
 10
17.233095623
 20
-61.7999560234
 10
17.1727991486
 20
-61.7403606709
 10
17.1054914563
 20
-61.6898799016
 10
17.034678155
 20
-61.6520193247
 10
16.9582558794
 20
-61.6253766965
 10
16.8783279948
 20
-61.6106531388
 10
16.8341573217
 20
-61.6078486516
 10
16.7850787961
 20
-61.6092508952
 10
16.7296901743
 20
-61.613457626
 10
16.6686925781
 20
-61.6218710875
 10
16.6020860076
 20
-61.6330890363
 10
16.5305715845
 20
-61.6485137157
 10
16.4527470653
 20
-61.6674440042
 10
16.3693135717
 20
-61.6898799016
 10
16.3693135717
 20
-61.6898799016
 10
15.7796701422
 20
-61.856045767
  0
LWPOLYLINE
  5
80
330
1F
100
AcDbEntity
  8
0
  6
Continuous
 62
     7
100
AcDbPolyline
 90
       76
 70
   128
 43
0.0
 10
20.8650678396
 20
-59.8458625395
 10
21.0487728921
 20
-59.7869683087
 10
21.2310645587
 20
-59.7463032446
 10
21.41125286
 20
-59.7238673471
 10
21.5893377959
 20
-59.7196606164
 10
21.7653193664
 20
-59.7336830523
 10
21.9398986934
 20
-59.765233533
 10
22.1123746549
 20
-59.8157143023
 10
22.2834483728
 20
-59.8844242382
 10
22.4468097511
 20
-59.9685588536
 10
22.597550937
 20
-60.0653136612
 10
22.7349708087
 20
-60.175389783
 10
22.8590693664
 20
-60.2973849754
 10
22.9705477318
 20
-60.4334026036
 10
23.0694059049
 20
-60.5813393023
 10
23.1549427639
 20
-60.7425973151
 10
23.2278594305
 20
-60.9164755202
 10
23.2278594305
 20
-60.9164755202
 10
23.2846502959
 20
-61.0945604561
 10
23.3232119946
 20
-61.2712431484
 10
23.3442456485
 20
-61.4472247189
 10
23.3470501357
 20
-61.6225051677
 10
23.3316254562
 20
-61.7963833728
 10
23.29797161
 20
-61.9688593343
 10
23.246789719
 20
-62.1406341741
 10
23.1773786613
 20
-62.311707892
 10
23.0925429241
 20
-62.4750692702
 10
22.9957881164
 20
-62.6258104561
 10
22.8857119946
 20
-62.7632303279
 10
22.7637168023
 20
-62.8880300074
 10
22.6284002959
 20
-62.9995083728
 10
22.481164719
 20
-63.0976654241
 10
22.3213089498
 20
-63.183202283
 10
22.1488329882
 20
-63.2554178279
 10
22.1488329882
 20
-63.2554178279
 10
21.968644687
 20
-63.3129098151
 10
21.7898586293
 20
-63.3521726356
 10
21.6124748152
 20
-63.3739074112
 10
21.4364932446
 20
-63.3767118984
 10
21.2612127959
 20
-63.3619883407
 10
21.0880357126
 20
-63.3290356164
 10
20.9155597511
 20
-63.2785548471
 10
20.7451871549
 20
-63.2091437895
 10
20.5818257767
 20
-63.1250091741
 10
20.4317857126
 20
-63.0282543664
 10
20.2943658408
 20
-62.9195804882
 10
20.1702672831
 20
-62.7982864177
 10
20.0594900395
 20
-62.6657743984
 10
19.96203411
 20
-62.5199410651
 10
19.8778994946
 20
-62.3621886612
 10
19.8063850716
 20
-62.1925171869
 10
19.8063850716
 20
-62.1925171869
 10
19.7671222511
 20
-62.0747287254
 10
19.7355717703
 20
-61.9569402638
 10
19.7117336293
 20
-61.8384506805
 10
19.6963089498
 20
-61.7199610971
 10
19.68859661
 20
-61.600770392
 10
19.68859661
 20
-61.4808785651
 10
19.6963089498
 20
-61.3602856164
 10
19.7124347511
 20
-61.2396926677
 10
19.7362728921
 20
-61.1205019625
 10
19.7664211293
 20
-61.0048168664
 10
19.8042817062
 20
-60.8926373792
 10
19.8491535011
 20
-60.783963501
 10
19.9010365139
 20
-60.6787952318
 10
19.9606318664
 20
-60.5771325715
 10
20.0265373152
 20
-60.479676642
 10
20.1001551036
 20
-60.3850251997
 10
20.1793818664
 20
-60.29528161
 10
20.2635164818
 20
-60.2125492382
 10
20.3525589498
 20
-60.1354258407
 10
20.4458081485
 20
-60.0646125395
 10
20.543264078
 20
-60.0008104561
 10
20.6463289818
 20
-59.9426173471
 10
20.7536006164
 20
-59.8914354561
 10
20.8650789818
 20
-59.8458625395
  0
LWPOLYLINE
  5
81
330
1F
100
AcDbEntity
  8
0
  6
Continuous
 62
     7
100
AcDbPolyline
 90
       92
 70
   128
 43
0.0
 10
20.9975838661
 20
-60.1592639818
 10
20.9092496549
 20
-60.1950211933
 10
20.8237127959
 20
-60.2363873792
 10
20.7416815459
 20
-60.2833625395
 10
20.6631559049
 20
-60.3352455523
 10
20.5881358728
 20
-60.3934386612
 10
20.5166214498
 20
-60.4565396228
 10
20.4479115139
 20
-60.5245484369
 10
20.382707187
 20
-60.5988673471
 10
20.3224107126
 20
-60.6766918664
 10
20.2677232126
 20
-60.7573208728
 10
20.218644687
 20
-60.8400532446
 10
20.1765773793
 20
-60.9248889818
 10
20.1394179241
 20
-61.0125292061
 10
20.1085685652
 20
-61.1029739177
 10
20.0833281805
 20
-61.1955219946
 10
20.0643978921
 20
-61.2908745587
 10
20.0517776998
 20
-61.3876293664
 10
20.0454676036
 20
-61.4843841741
 10
20.0461687254
 20
-61.5811389818
 10
20.0524788216
 20
-61.6778937895
 10
20.0658001357
 20
-61.7753497189
 10
20.0861326677
 20
-61.8728056484
 10
20.1120741741
 20
-61.9702615779
 10
20.1450268985
 20
-62.0684186292
 10
20.1450268985
 20
-62.0684186292
 10
20.2032200075
 20
-62.2079418664
 10
20.2726310652
 20
-62.3376493984
 10
20.351857828
 20
-62.4568401036
 10
20.4423025395
 20
-62.5662151036
 10
20.5425629562
 20
-62.6650732766
 10
20.6533401998
 20
-62.7534146228
 10
20.7746342703
 20
-62.8319402638
 10
20.9064451677
 20
-62.8999490779
 10
21.0438650395
 20
-62.9553376997
 10
21.1819860331
 20
-62.9967038856
 10
21.3208081485
 20
-63.0233465138
 10
21.4596302639
 20
-63.0359667061
 10
21.5998546228
 20
-63.0345644625
 10
21.7400789818
 20
-63.0184386612
 10
21.8803033408
 20
-62.9875893023
 10
22.0219299434
 20
-62.9427175074
 10
22.0219299434
 20
-62.9427175074
 10
22.1144780203
 20
-62.9055580523
 10
22.2035204882
 20
-62.8627896228
 10
22.2883562254
 20
-62.8158144625
 10
22.3689852318
 20
-62.7632303279
 10
22.4461086293
 20
-62.7050372189
 10
22.5197264177
 20
-62.6426373792
 10
22.5891374754
 20
-62.5746285651
 10
22.6543418023
 20
-62.5017118984
 10
22.7146382767
 20
-62.424588501
 10
22.7693257767
 20
-62.3453617382
 10
22.8184043023
 20
-62.2633304882
 10
22.8611727318
 20
-62.178494751
 10
22.8976310652
 20
-62.0915556484
 10
22.9284804241
 20
-62.0018120587
 10
22.953019687
 20
-61.9092639818
 10
22.9719499754
 20
-61.8146125395
 10
22.9845701677
 20
-61.7185588536
 10
22.9908802639
 20
-61.6218040459
 10
22.9901791421
 20
-61.5250492382
 10
22.9831679241
 20
-61.4282944305
 10
22.96984661
 20
-61.3315396228
 10
22.9502151998
 20
-61.2347848151
 10
22.9242736934
 20
-61.1380300074
 10
22.891320969
 20
-61.0405740779
 10
22.891320969
 20
-61.0405740779
 10
22.8534603921
 20
-60.9459226356
 10
22.8106919626
 20
-60.8554779241
 10
22.7630156805
 20
-60.7699410651
 10
22.7104315459
 20
-60.6886109369
 10
22.6536406805
 20
-60.6114875395
 10
22.5912408408
 20
-60.5385708728
 10
22.5246342703
 20
-60.4705620587
 10
22.4531198472
 20
-60.4067599754
 10
22.3773986934
 20
-60.3478657446
 10
22.2988730523
 20
-60.2945804882
 10
22.2175429241
 20
-60.2462030843
 10
22.132707187
 20
-60.2041357766
 10
22.0443658408
 20
-60.1676774433
 10
21.9532200075
 20
-60.1368280843
 10
21.8585685652
 20
-60.1115876997
 10
21.7611126357
 20
-60.0919562895
 10
21.6622544626
 20
-60.0779338536
 10
21.5647985331
 20
-60.0709226356
 10
21.4680437254
 20
-60.069520392
 10
21.3719900395
 20
-60.0744282446
 10
21.2773385972
 20
-60.0863473151
 10
21.1833882767
 20
-60.1045764818
 10
21.090139078
 20
-60.1284146228
 10
20.9975910011
 20
-60.1592639818
  0
LWPOLYLINE
  5
82
330
1F
100
AcDbEntity
  8
0
  6
Continuous
 62
     7
100
AcDbPolyline
 90
      145
 70
   128
 43
0.0
 10
27.6980251074
 20
-57.8557920196
 10
27.532561166
 20
-58.1614811222
 10
27.532561166
 20
-58.1614811222
 10
27.4498287942
 20
-58.1194138145
 10
27.3663953006
 20
-58.0829554811
 10
27.2815595634
 20
-58.0514050004
 10
27.1967238263
 20
-58.025463494
 10
27.1104858455
 20
-58.0051309619
 10
27.0242478647
 20
-57.9897062824
 10
26.9366076404
 20
-57.9791894555
 10
26.8482662942
 20
-57.9742816029
 10
26.6715836019
 20
-57.9798905773
 10
26.4956020314
 20
-58.0058320837
 10
26.3196204609
 20
-58.052807244
 10
26.1450411339
 20
-58.1208160581
 10
26.1450411339
 20
-58.1208160581
 10
26.0517919352
 20
-58.1656878529
 10
25.9627494673
 20
-58.2161686222
 10
25.8786148519
 20
-58.2708561222
 10
25.7979858455
 20
-58.3311525965
 10
25.7222646916
 20
-58.3956558017
 10
25.6500491468
 20
-58.4657679811
 10
25.5827414545
 20
-58.5407880132
 10
25.5196404929
 20
-58.6207158978
 10
25.4621485057
 20
-58.7041493914
 10
25.4109666147
 20
-58.7889851286
 10
25.3653936981
 20
-58.8759242311
 10
25.3268319993
 20
-58.9642655773
 10
25.2945803968
 20
-59.0554114106
 10
25.2686388904
 20
-59.1479594876
 10
25.2490074801
 20
-59.2426109299
 10
25.235686166
 20
-59.3386646158
 10
25.2286749481
 20
-59.4361205452
 10
25.2286749481
 20
-59.5328753529
 10
25.235686166
 20
-59.6303312824
 10
25.2490074801
 20
-59.7270860901
 10
25.2686388904
 20
-59.8238408978
 10
25.2952815186
 20
-59.9205957055
 10
25.3282342429
 20
-60.0166493914
 10
25.3681981852
 20
-60.1134041991
 10
25.3681981852
 20
-60.1134041991
 10
25.4383103647
 20
-60.2536285581
 10
25.5182382493
 20
-60.3819338465
 10
25.6086829609
 20
-60.4990211863
 10
25.7082422557
 20
-60.6041894555
 10
25.8176172557
 20
-60.6974386542
 10
25.9368079609
 20
-60.7794699042
 10
26.0658143711
 20
-60.8495820837
 10
26.2046364865
 20
-60.9084763145
 10
26.3490675763
 20
-60.9533481093
 10
26.4941997878
 20
-60.9834963465
 10
26.6407342429
 20
-60.998921026
 10
26.7879698198
 20
-60.9982199042
 10
26.9366076404
 20
-60.9834963465
 10
27.0866477045
 20
-60.9526469876
 10
27.2373888904
 20
-60.9070740709
 10
27.3888311981
 20
-60.8467775965
 10
27.3888311981
 20
-60.8467775965
 10
27.5493880891
 20
-60.7654474683
 10
27.6959225442
 20
-60.6700949042
 10
27.8277334416
 20
-60.5621221478
 10
27.9455219032
 20
-60.4401269555
 10
28.0492879288
 20
-60.3055115709
 10
28.1390315186
 20
-60.1575748722
 10
28.2140515506
 20
-59.9956157376
 10
28.2750491468
 20
-59.8210364106
 10
28.2750491468
 20
-59.8210364106
 10
28.6122887301
 20
-59.8988609299
 10
28.6122887301
 20
-59.8988609299
 10
28.5835427365
 20
-59.9998224683
 10
28.5498888904
 20
-60.0986806414
 10
28.5099249481
 20
-60.1947343273
 10
28.4643520314
 20
-60.287983526
 10
28.4131701404
 20
-60.3784282376
 10
28.3570803968
 20
-60.4667695837
 10
28.294680557
 20
-60.5523064427
 10
28.2266717429
 20
-60.6350388145
 10
28.1537550763
 20
-60.7142655773
 10
28.0752294352
 20
-60.7899867311
 10
27.9924970634
 20
-60.8608000324
 10
27.9048568391
 20
-60.9281077247
 10
27.8116076404
 20
-60.9919098081
 10
27.7141517109
 20
-61.0508040388
 10
27.611086807
 20
-61.1061926606
 10
27.5038151724
 20
-61.1573745517
 10
27.5038151724
 20
-61.1573745517
 10
27.399348025
 20
-61.2015452247
 10
27.2962831211
 20
-61.2401069235
 10
27.1932182173
 20
-61.272358526
 10
27.091555557
 20
-61.299702276
 10
26.9905940186
 20
-61.3214370517
 10
26.8903336019
 20
-61.3375628529
 10
26.7914754288
 20
-61.3480796799
 10
26.6926172557
 20
-61.3529875324
 10
26.5951613263
 20
-61.3522864106
 10
26.4977053968
 20
-61.3459763145
 10
26.4016517109
 20
-61.334057244
 10
26.3062991468
 20
-61.3165291991
 10
26.2116477045
 20
-61.2933921799
 10
26.1183985057
 20
-61.2653473081
 10
26.025149307
 20
-61.2309923401
 10
25.9333023519
 20
-61.1910283978
 10
25.9333023519
 20
-61.1910283978
 10
25.7839634096
 20
-61.1132038786
 10
25.6451412942
 20
-61.022759167
 10
25.5161348839
 20
-60.9210965068
 10
25.3969441788
 20
-60.807514776
 10
25.2875691788
 20
-60.6827150965
 10
25.1880098839
 20
-60.5452952247
 10
25.0982662942
 20
-60.3966574042
 10
25.0190395314
 20
-60.2361005132
 10
25.0190395314
 20
-60.2361005132
 10
24.9496284737
 20
-60.0608200645
 10
24.8991477045
 20
-59.8862407376
 10
24.8668961019
 20
-59.7109602888
 10
24.8535747878
 20
-59.5363809619
 10
24.8584826404
 20
-59.3611005132
 10
24.8816196596
 20
-59.1865211863
 10
24.9229858455
 20
-59.0119418593
 10
24.9832823198
 20
-58.8373625324
 10
25.0597045955
 20
-58.6683921799
 10
25.1508504288
 20
-58.5113408978
 10
25.2567198198
 20
-58.3655075645
 10
25.3766116468
 20
-58.2308921799
 10
25.5105259096
 20
-58.1081958658
 10
25.6598648519
 20
-57.9967175004
 10
25.8232262301
 20
-57.8964570837
 10
26.0006100442
 20
-57.8081157376
 10
26.0006100442
 20
-57.8081157376
 10
26.1120884096
 20
-57.7618416991
 10
26.223566775
 20
-57.7218777568
 10
26.3343440186
 20
-57.6889250324
 10
26.4451212622
 20
-57.6622824042
 10
26.5558985057
 20
-57.642650994
 10
26.6659746275
 20
-57.6300308017
 10
26.7760507493
 20
-57.6237207055
 10
26.8861268711
 20
-57.6244218273
 10
26.9948007493
 20
-57.6314330452
 10
27.1013712622
 20
-57.6447543593
 10
27.2058384096
 20
-57.6643857696
 10
27.3089033134
 20
-57.6896261542
 10
27.4091637301
 20
-57.7218777568
 10
27.5073207814
 20
-57.7604394555
 10
27.6040755891
 20
-57.8046101286
 10
27.6980259096
 20
-57.8557920196
  0
LWPOLYLINE
  5
83
330
1F
100
AcDbEntity
  8
0
  6
Continuous
 62
     7
100
AcDbPolyline
 90
       22
 70
   128
 43
0.0
 10
29.1634351015
 20
-56.4281137984
 10
29.4761500112
 20
-56.2605456894
 10
29.4761500112
 20
-56.2605456894
 10
30.0924360688
 20
-57.4096843112
 10
30.0924360688
 20
-57.4096843112
 10
30.6975041778
 20
-55.605697933
 10
30.6975041778
 20
-55.605697933
 10
31.1118671586
 20
-55.3841434458
 10
31.1118671586
 20
-55.3841434458
 10
30.3763903958
 20
-57.5464030612
 10
30.3763903958
 20
-57.5464030612
 10
32.8674761329
 20
-58.3842436061
 10
32.8674761329
 20
-58.3842436061
 10
32.4622277355
 20
-58.6015913625
 10
32.4622277355
 20
-58.6015913625
 10
30.3518511329
 20
-57.8941594715
 10
30.3518511329
 20
-57.8941594715
 10
31.1174761329
 20
-59.3223445676
 10
31.1174761329
 20
-59.3223445676
 10
30.8047758124
 20
-59.4899126766
 10
30.8047758124
 20
-59.4899126766
 10
29.1634496906
 20
-56.4281137984
  0
LWPOLYLINE
  5
84
330
1F
100
AcDbEntity
  8
0
  6
Continuous
 62
     7
100
AcDbPolyline
 90
       24
 70
   128
 43
0.0
 10
32.7683985233
 20
-54.3974867471
 10
34.4672171659
 20
-53.3437006894
 10
34.4672171659
 20
-53.3437006894
 10
34.6488077108
 20
-53.6360684778
 10
34.6488077108
 20
-53.6360684778
 10
33.2458629993
 20
-54.5061606253
 10
33.2458629993
 20
-54.5061606253
 10
33.8207828711
 20
-55.4330436381
 10
33.8207828711
 20
-55.4330436381
 10
35.2118085121
 20
-54.5699627086
 10
35.2118085121
 20
-54.5699627086
 10
35.3912956916
 20
-54.8602271317
 10
35.3912956916
 20
-54.8602271317
 10
34.0002700506
 20
-55.7233080612
 10
34.0002700506
 20
-55.7233080612
 10
34.7217243775
 20
-56.8864691189
 10
34.7217243775
 20
-56.8864691189
 10
36.1127500185
 20
-56.0233881894
 10
36.1127500185
 20
-56.0233881894
 10
36.2943405634
 20
-56.3157559778
 10
36.2943405634
 20
-56.3157559778
 10
34.6074415249
 20
-57.3625308176
 10
34.6074415249
 20
-57.3625308176
 10
32.768399057
 20
-54.3974867471
  0
LWPOLYLINE
  5
85
330
1F
100
AcDbEntity
  8
0
  6
Continuous
 62
     7
100
AcDbPolyline
 90
       16
 70
   128
 43
0.0
 10
35.9520614147
 20
-52.7896739983
 10
35.7585647292
 20
-52.5141331329
 10
35.7585647292
 20
-52.5141331329
 10
37.3143539921
 20
-51.4203831329
 10
37.3143539921
 20
-51.4203831329
 10
37.5078636074
 20
-51.6959239983
 10
37.5078636074
 20
-51.6959239983
 10
36.8754517485
 20
-52.1404352162
 10
36.8754517485
 20
-52.1404352162
 10
38.6752313959
 20
-54.7009320111
 10
38.6752313959
 20
-54.7009320111
 10
38.3863692164
 20
-54.9042573316
 10
38.3863692164
 20
-54.9042573316
 10
36.586589569
 20
-52.3437605367
 10
36.586589569
 20
-52.3437605367
 10
35.9520743446
 20
-52.7896739983
  0
LWPOLYLINE
  5
86
330
1F
100
AcDbEntity
  8
0
  6
Continuous
 62
     7
100
AcDbPolyline
 90
       59
 70
   128
 43
0.0
 10
38.7341082096
 20
-50.3082677858
 10
39.2795866506
 20
-49.8742733948
 10
39.2795866506
 20
-49.8742733948
 10
39.3896627724
 20
-49.788035414
 10
39.4913254326
 20
-49.709509773
 10
39.5845746313
 20
-49.6400987153
 10
39.6701114903
 20
-49.5791011191
 10
39.7465337659
 20
-49.5265169845
 10
39.8152437018
 20
-49.4823463115
 10
39.8755401762
 20
-49.4465890999
 10
39.927423189
 20
-49.4192453499
 10
39.927423189
 20
-49.4192453499
 10
39.9996387339
 20
-49.3876948691
 10
40.0718542788
 20
-49.3624544845
 10
40.1447709454
 20
-49.3435241961
 10
40.2183887339
 20
-49.3309040038
 10
40.2920065224
 20
-49.3245939076
 10
40.3656243108
 20
-49.3238927858
 10
40.4399432211
 20
-49.330202882
 10
40.5142621313
 20
-49.3428230743
 10
40.5878799198
 20
-49.3617533627
 10
40.6579920993
 20
-49.3869937474
 10
40.7260009134
 20
-49.4185442281
 10
40.7919063621
 20
-49.456404805
 10
40.8543062018
 20
-49.5012765999
 10
40.9139015544
 20
-49.5517573691
 10
40.9713935416
 20
-49.6092493563
 10
41.0260810416
 20
-49.6730514397
 10
41.0260810416
 20
-49.6730514397
 10
41.1060089262
 20
-49.7866331704
 10
41.1670065224
 20
-49.9037205102
 10
41.2097749518
 20
-50.0250145807
 10
41.2336130929
 20
-50.1498142602
 10
41.2385209454
 20
-50.2753150615
 10
41.2237973877
 20
-50.4001147409
 10
41.1901435416
 20
-50.522811055
 10
41.1361571634
 20
-50.6448062474
 10
41.1011010736
 20
-50.7058038435
 10
41.0597348877
 20
-50.7682036833
 10
41.0113574839
 20
-50.8313046448
 10
40.9559688621
 20
-50.8951067281
 10
40.8935690224
 20
-50.960311055
 10
40.8248590865
 20
-51.0269176256
 10
40.7491379326
 20
-51.0942253179
 10
40.6671066826
 20
-51.1629352538
 10
40.6671066826
 20
-51.1629352538
 10
42.665303798
 20
-51.6537205102
 10
42.665303798
 20
-51.6537205102
 10
42.3266619711
 20
-51.9229512794
 10
42.3266619711
 20
-51.9229512794
 10
40.3298670993
 20
-51.4314649012
 10
40.3298670993
 20
-51.4314649012
 10
40.173516939
 20
-51.5555634589
 10
40.173516939
 20
-51.5555634589
 10
41.1866379326
 20
-52.8295017602
 10
41.1866379326
 20
-52.8295017602
 10
40.9132004326
 20
-53.0475506384
 10
40.9132004326
 20
-53.0475506384
 10
38.7341138941
 20
-50.3082677858
  0
LWPOLYLINE
  5
87
330
1F
100
AcDbEntity
  8
0
  6
Continuous
 62
     7
100
AcDbPolyline
 90
       40
 70
   128
 43
0.0
 10
39.2206907272
 20
-50.3580474333
 10
39.9610770352
 20
-51.2891371768
 10
39.9610770352
 20
-51.2891371768
 10
40.4357364903
 20
-50.9189448691
 10
40.4357364903
 20
-50.9189448691
 10
40.501641939
 20
-50.8656596127
 10
40.5612372916
 20
-50.8137765999
 10
40.6152236698
 20
-50.7639969525
 10
40.6636010736
 20
-50.7163206704
 10
40.7063695031
 20
-50.6707477538
 10
40.7435289583
 20
-50.6265770807
 10
40.7743783172
 20
-50.584509773
 10
40.7996187018
 20
-50.5445458307
 10
40.8374792788
 20
-50.4653190679
 10
40.8627196634
 20
-50.3832878179
 10
40.8732364903
 20
-50.2998543243
 10
40.8711331249
 20
-50.2143174653
 10
40.8564095672
 20
-50.1294817281
 10
40.829766939
 20
-50.0488527217
 10
40.7919063621
 20
-49.9724304461
 10
40.7414255929
 20
-49.8995137794
 10
40.7414255929
 20
-49.8995137794
 10
40.6832324839
 20
-49.8357116961
 10
40.6187292788
 20
-49.7831275615
 10
40.5465137339
 20
-49.740359132
 10
40.4679880929
 20
-49.7088086512
 10
40.3859568429
 20
-49.6884761191
 10
40.3053278365
 20
-49.6800626576
 10
40.2239977083
 20
-49.685671632
 10
40.1440698236
 20
-49.7031996768
 10
40.1020025159
 20
-49.7179232345
 10
40.0564295993
 20
-49.7382557666
 10
40.0073510736
 20
-49.7634961512
 10
39.9540658172
 20
-49.795046632
 10
39.89657383
 20
-49.8315049653
 10
39.8362773557
 20
-49.873572273
 10
39.7717741506
 20
-49.921248555
 10
39.7030642147
 20
-49.9745338115
 10
39.7030642147
 20
-49.9745338115
 10
39.2206924198
 20
-50.3580474333
  0
LWPOLYLINE
  5
88
330
1F
100
AcDbEntity
  8
0
  6
Continuous
 62
     7
100
AcDbPolyline
 90
       18
 70
   128
 43
0.0
 10
41.7738854885
 20
-47.8390079659
 10
42.0718870024
 20
-47.5676738313
 10
42.0718870024
 20
-47.5676738313
 10
43.6977884447
 20
-48.0304142159
 10
43.6977884447
 20
-48.0304142159
 10
43.3794791498
 20
-46.3778701454
 10
43.3794791498
 20
-46.3778701454
 10
43.6774559127
 20
-46.1065360108
 10
43.6774559127
 20
-46.1065360108
 10
44.0855087973
 20
-48.1965800813
 10
44.0855087973
 20
-48.1965800813
 10
45.2073036691
 20
-49.4291521967
 10
45.2073036691
 20
-49.4291521967
 10
44.9527964575
 20
-49.660522389
 10
44.9527964575
 20
-49.660522389
 10
43.8310015857
 20
-48.4279502736
 10
43.8310015857
 20
-48.4279502736
 10
41.7739102396
 20
-47.8390079659
  0
LWPOLYLINE
  5
89
330
1F
100
AcDbEntity
  8
0
  6
Continuous
 62
     7
100
AcDbPolyline
 90
      106
 70
   128
 43
0.0
 10
47.7709174156
 20
-43.4836858793
 10
47.5444823173
 20
-43.7311818729
 10
47.5444823173
 20
-43.7311818729
 10
47.456842093
 20
-43.6393349178
 10
47.3804198173
 20
-43.5439823537
 10
47.3145143686
 20
-43.4458253024
 10
47.2598268686
 20
-43.3434615203
 10
47.2163573173
 20
-43.2382932511
 10
47.183404593
 20
-43.1289182511
 10
47.1616698173
 20
-43.0167387639
 10
47.1504518686
 20
-42.9010536678
 10
47.1504518686
 20
-42.7853685716
 10
47.1616698173
 20
-42.6731890845
 10
47.1841057148
 20
-42.5645152062
 10
47.2170584391
 20
-42.4586458152
 10
47.2612291122
 20
-42.356983155
 10
47.3159166122
 20
-42.2588261037
 10
47.3818220609
 20
-42.1634735396
 10
47.4589454584
 20
-42.0723277062
 10
47.4589454584
 20
-42.0723277062
 10
47.542378952
 20
-41.9888942127
 10
47.6286169327
 20
-41.915977546
 10
47.7183605225
 20
-41.854278828
 10
47.8116097212
 20
-41.803096937
 10
47.9076634071
 20
-41.7624318729
 10
48.007222702
 20
-41.7329847575
 10
48.1102876058
 20
-41.7147555909
 10
48.2161569968
 20
-41.7070432511
 10
48.3220263879
 20
-41.7091466165
 10
48.4243901699
 20
-41.7203645652
 10
48.5225472212
 20
-41.7413982191
 10
48.6178997853
 20
-41.7708453345
 10
48.7083444968
 20
-41.810108155
 10
48.7959847212
 20
-41.8584855588
 10
48.8794182148
 20
-41.9166786678
 10
48.9593460994
 20
-41.9832852383
 10
48.9593460994
 20
-41.9832852383
 10
49.0610087596
 20
-42.0884535075
 10
49.1472467404
 20
-42.2041386037
 10
49.2180600417
 20
-42.329639405
 10
49.2734486635
 20
-42.4649559114
 10
49.2965856827
 20
-42.5399759434
 10
49.3183204584
 20
-42.6255128024
 10
49.3386529904
 20
-42.7208653665
 10
49.3582844007
 20
-42.8267347575
 10
49.3751113238
 20
-42.9424198537
 10
49.391237125
 20
-43.067920655
 10
49.4059606827
 20
-43.2032371614
 10
49.4192819968
 20
-43.3490704947
 10
49.4192819968
 20
-43.3490704947
 10
49.5237491443
 20
-44.6258132832
 10
49.5237491443
 20
-44.6258132832
 10
50.6139935353
 20
-43.4360095973
 10
50.6139935353
 20
-43.4360095973
 10
50.8628917725
 20
-43.6638741806
 10
50.8628917725
 20
-43.6638741806
 10
49.2587251058
 20
-45.4145753024
 10
49.2587251058
 20
-45.4145753024
 10
49.097467093
 20
-43.4542387639
 10
49.097467093
 20
-43.4542387639
 10
49.0855480225
 20
-43.3119110396
 10
49.0729278302
 20
-43.1801001421
 10
49.0589053943
 20
-43.0602083152
 10
49.0448829584
 20
-42.9508333152
 10
49.0294582789
 20
-42.8533773857
 10
49.0133324776
 20
-42.767139405
 10
48.9965055545
 20
-42.6921193729
 10
48.9789775096
 20
-42.6283172896
 10
48.936910202
 20
-42.5168389242
 10
48.882222702
 20
-42.4144751421
 10
48.8149150096
 20
-42.3219270652
 10
48.734987125
 20
-42.2384935716
 10
48.734987125
 20
-42.2384935716
 10
48.6795985032
 20
-42.1922195332
 10
48.6207042725
 20
-42.1522555909
 10
48.5597066763
 20
-42.1200039883
 10
48.495904593
 20
-42.0940624819
 10
48.4285969007
 20
-42.0744310716
 10
48.359185843
 20
-42.0625120011
 10
48.2869702981
 20
-42.0569030268
 10
48.2119502661
 20
-42.0583052703
 10
48.136930234
 20
-42.0660176101
 10
48.0647146891
 20
-42.0807411678
 10
47.9953036314
 20
-42.1024759434
 10
47.9286970609
 20
-42.1305208152
 10
47.8648949776
 20
-42.165576905
 10
47.8045985032
 20
-42.2076442127
 10
47.7464053943
 20
-42.2560216165
 10
47.6910167725
 20
-42.3114102383
 10
47.6910167725
 20
-42.3114102383
 10
47.6384326379
 20
-42.3745111998
 10
47.5928597212
 20
-42.439014405
 10
47.5557002661
 20
-42.5063220973
 10
47.5255520289
 20
-42.5750320332
 10
47.5024150096
 20
-42.6465464562
 10
47.4869903302
 20
-42.7201642447
 10
47.4792779904
 20
-42.7958853986
 10
47.4792779904
 20
-42.8737099178
 10
47.4869903302
 20
-42.9522355588
 10
47.5031161314
 20
-43.030060078
 10
47.5269542725
 20
-43.1071834755
 10
47.5599069968
 20
-43.1836057511
 10
47.5998709391
 20
-43.259326905
 10
47.6489494648
 20
-43.3350480588
 10
47.7057403302
 20
-43.4093669691
 10
47.7709446571
 20
-43.4836858793
  0
LWPOLYLINE
  5
8A
330
1F
100
AcDbEntity
  8
0
  6
Continuous
 62
     7
100
AcDbPolyline
 90
      100
 70
   128
 43
0.0
 10
50.625115633
 20
-41.1793316431
 10
50.4947208504
 20
-41.0741633739
 10
50.3755301453
 20
-40.9717995919
 10
50.2661551453
 20
-40.8715391752
 10
50.1672969722
 20
-40.7733821239
 10
50.0789556261
 20
-40.6780295598
 10
50.0018322287
 20
-40.5847803611
 10
49.9345245363
 20
-40.4943356495
 10
49.877733671
 20
-40.4059943034
 10
49.8300573889
 20
-40.3190552008
 10
49.788691203
 20
-40.2328172201
 10
49.7550373569
 20
-40.1472803611
 10
49.7276936069
 20
-40.0617435021
 10
49.706659953
 20
-39.9769077649
 10
49.6933386389
 20
-39.8927731495
 10
49.686327421
 20
-39.809339656
 10
49.686327421
 20
-39.7259061624
 10
49.6926375171
 20
-39.6438749124
 10
49.7052577094
 20
-39.5639470277
 10
49.7234868761
 20
-39.4861225085
 10
49.7480261389
 20
-39.4111024765
 10
49.7781743761
 20
-39.337484688
 10
49.8146327094
 20
-39.2666713867
 10
49.8574011389
 20
-39.197260329
 10
49.9057785428
 20
-39.1306537585
 10
49.9057785428
 20
-39.1306537585
 10
49.959764921
 20
-39.0668516752
 10
50.0172569081
 20
-39.0079574444
 10
50.0782545043
 20
-38.954672188
 10
50.1434588312
 20
-38.906995906
 10
50.2114676453
 20
-38.8642274765
 10
50.2836831902
 20
-38.8270680213
 10
50.3587032222
 20
-38.7955175406
 10
50.4379299851
 20
-38.7688749124
 10
50.5199612351
 20
-38.7485423803
 10
50.6047969722
 20
-38.7345199444
 10
50.6917360748
 20
-38.7268076047
 10
50.7821807863
 20
-38.7261064829
 10
50.8740277415
 20
-38.7317154572
 10
50.9693803056
 20
-38.7443356495
 10
51.0668362351
 20
-38.763265938
 10
51.1670966517
 20
-38.7885063226
 10
51.2701615556
 20
-38.821459047
 10
51.3774331902
 20
-38.8642274765
 10
51.487509312
 20
-38.9154093675
 10
51.6010910428
 20
-38.9764069636
 10
51.7181783825
 20
-39.0458180213
 10
51.839472453
 20
-39.1243436624
 10
51.9635710107
 20
-39.2126850085
 10
52.0911751774
 20
-39.3094398162
 10
52.0911751774
 20
-39.3094398162
 10
52.2152737351
 20
-39.4097002329
 10
52.3295565876
 20
-39.5092595277
 10
52.4347248569
 20
-39.607416579
 10
52.530077421
 20
-39.7034702649
 10
52.6156142799
 20
-39.7995239508
 10
52.6913354338
 20
-39.8934742713
 10
52.7579420043
 20
-39.9860223483
 10
52.8147328697
 20
-40.0778693034
 10
52.8631102735
 20
-40.1683140149
 10
52.9051775812
 20
-40.2580576047
 10
52.9395325492
 20
-40.3471000726
 10
52.9668762992
 20
-40.4354414188
 10
52.987909953
 20
-40.5230816431
 10
53.0012312671
 20
-40.6093196239
 10
53.0082424851
 20
-40.6955576047
 10
53.0075413633
 20
-40.7810944636
 10
53.0005301453
 20
-40.8645279572
 10
52.987909953
 20
-40.9458580854
 10
52.9689796646
 20
-41.0250848483
 10
52.9437392799
 20
-41.1022082457
 10
52.912889921
 20
-41.176527156
 10
52.8757304658
 20
-41.2487427008
 10
52.8322609146
 20
-41.3188548803
 10
52.7831823889
 20
-41.3868636944
 10
52.7831823889
 20
-41.3868636944
 10
52.7298971325
 20
-41.449964656
 10
52.6731062671
 20
-41.5074566431
 10
52.6135109146
 20
-41.5600407777
 10
52.5497088312
 20
-41.607015938
 10
52.4831022607
 20
-41.6490832457
 10
52.4122889594
 20
-41.685541579
 10
52.338671171
 20
-41.716390938
 10
52.2615477735
 20
-41.7423324444
 10
52.1816198889
 20
-41.7619638547
 10
52.0988875171
 20
-41.7752851688
 10
52.0140517799
 20
-41.7815952649
 10
51.9271126774
 20
-41.7822963867
 10
51.8373690876
 20
-41.7759862906
 10
51.7455221325
 20
-41.7626649765
 10
51.6508706902
 20
-41.743734688
 10
51.5541158825
 20
-41.7177931816
 10
51.4538554658
 20
-41.6841393354
 10
51.3493883184
 20
-41.6406697842
 10
51.2400133184
 20
-41.5873845277
 10
51.1264315876
 20
-41.524984688
 10
51.0079420043
 20
-41.4527691431
 10
50.8845445684
 20
-41.3714390149
 10
50.7569404017
 20
-41.2802931816
 10
50.6251295043
 20
-41.1793316431
  0
LWPOLYLINE
  5
8B
330
1F
100
AcDbEntity
  8
0
  6
Continuous
 62
     7
100
AcDbPolyline
 90
       85
 70
   128
 43
0.0
 10
50.8333444595
 20
-40.9255255534
 10
50.9469444081
 20
-41.012464656
 10
51.0549171646
 20
-41.090990297
 10
51.1579820684
 20
-41.1611024765
 10
51.2568402415
 20
-41.2235023162
 10
51.3493883184
 20
-41.2781898162
 10
51.4377296646
 20
-41.3244638547
 10
51.5211631581
 20
-41.3623244316
 10
51.5989876774
 20
-41.3924726688
 10
51.6740077094
 20
-41.415609688
 10
51.7469243761
 20
-41.4331377329
 10
51.8184387992
 20
-41.4457579252
 10
51.8878498569
 20
-41.4534702649
 10
51.955858671
 20
-41.4555736303
 10
52.0224652415
 20
-41.4520680213
 10
52.0876695684
 20
-41.4436545598
 10
52.1507705299
 20
-41.4303332457
 10
52.2692601133
 20
-41.3903693034
 10
52.3744283825
 20
-41.3356818034
 10
52.4655742158
 20
-41.2669718675
 10
52.5433987351
 20
-41.1835383739
 10
52.5433987351
 20
-41.1835383739
 10
52.6057985748
 20
-41.0881858098
 10
52.6513714915
 20
-40.9837186624
 10
52.6794163633
 20
-40.8708380534
 10
52.6899331902
 20
-40.7488428611
 10
52.6885309466
 20
-40.6850407777
 10
52.6808186069
 20
-40.6212386944
 10
52.6681984146
 20
-40.5567354893
 10
52.6492681261
 20
-40.4915311624
 10
52.6254299851
 20
-40.4256257136
 10
52.5952817479
 20
-40.3597202649
 10
52.5602256581
 20
-40.2931136944
 10
52.5188594722
 20
-40.2258060021
 10
52.5188594722
 20
-40.2258060021
 10
52.4627697287
 20
-40.1430736303
 10
52.4003698889
 20
-40.0603412585
 10
52.331659953
 20
-39.9783100085
 10
52.256639921
 20
-39.8962787585
 10
52.1753097928
 20
-39.8149486303
 10
52.0883706902
 20
-39.7336185021
 10
51.9944203697
 20
-39.6522883739
 10
51.8948610748
 20
-39.5716593675
 10
51.8948610748
 20
-39.5716593675
 10
51.7924972928
 20
-39.4938348483
 10
51.6929379979
 20
-39.4223204252
 10
51.5954820684
 20
-39.3578172201
 10
51.5008306261
 20
-39.2989229893
 10
51.4082825492
 20
-39.2477410983
 10
51.3185389594
 20
-39.2021681816
 10
51.2308987351
 20
-39.1636064829
 10
51.1460629979
 20
-39.1313548803
 10
51.0633306261
 20
-39.1054133739
 10
50.9841038633
 20
-39.0850808419
 10
50.9069804658
 20
-39.0703572842
 10
50.8326615556
 20
-39.0612427008
 10
50.7611471325
 20
-39.0577370919
 10
50.6924371966
 20
-39.0598404572
 10
50.6258306261
 20
-39.0682539188
 10
50.5627296646
 20
-39.0815752329
 10
50.4456423248
 20
-39.1215391752
 10
50.3418762992
 20
-39.1755255534
 10
50.2514315876
 20
-39.2442354893
 10
50.1743081902
 20
-39.3262667393
 10
50.1743081902
 20
-39.3262667393
 10
50.1112072287
 20
-39.4223204252
 10
50.0663354338
 20
-39.5267875726
 10
50.0375894402
 20
-39.6410704252
 10
50.0270726133
 20
-39.7644678611
 10
50.0291759787
 20
-39.8282699444
 10
50.0361871966
 20
-39.8927731495
 10
50.0488073889
 20
-39.9579774765
 10
50.0677376774
 20
-40.0231818034
 10
50.0908746966
 20
-40.0897883739
 10
50.120321812
 20
-40.1556938226
 10
50.1553779017
 20
-40.2230015149
 10
50.195341844
 20
-40.2903092072
 10
50.2430181261
 20
-40.3590191431
 10
50.2998089915
 20
-40.431234688
 10
50.3657144402
 20
-40.5062547201
 10
50.441435594
 20
-40.5840792393
 10
50.5255702094
 20
-40.6647082457
 10
50.6188194081
 20
-40.7488428611
 10
50.721884312
 20
-40.8357819636
 10
50.8333626774
 20
-40.9255255534
  0
LWPOLYLINE
  5
8C
330
1F
100
AcDbEntity
  8
0
  6
Continuous
 62
     7
100
AcDbPolyline
 90
      106
 70
   128
 43
0.0
 10
52.7829229832
 20
-37.2469835141
 10
52.5936360719
 20
-37.5218232577
 10
52.5936360719
 20
-37.5218232577
 10
52.4947778989
 20
-37.4432976166
 10
52.4057354309
 20
-37.3598641231
 10
52.3279109117
 20
-37.2715227769
 10
52.2599020976
 20
-37.1789747
 10
52.2017089886
 20
-37.0808176487
 10
52.1547338283
 20
-36.9784538666
 10
52.1175743732
 20
-36.8704811102
 10
52.090931745
 20
-36.7583016231
 10
52.0748059437
 20
-36.6440187705
 10
52.070599213
 20
-36.5318392833
 10
52.0769093091
 20
-36.4217631615
 10
52.0951384758
 20
-36.3130892833
 10
52.1238844694
 20
-36.2072198923
 10
52.1645495335
 20
-36.1020516231
 10
52.2164325463
 20
-35.999687841
 10
52.2795335078
 20
-35.8987263025
 10
52.2795335078
 20
-35.8987263025
 10
52.3496456873
 20
-35.804775982
 10
52.4253668412
 20
-35.7213424884
 10
52.504593604
 20
-35.6477247
 10
52.5894293412
 20
-35.5846237384
 10
52.6784718091
 20
-35.5320396038
 10
52.7731232514
 20
-35.4892711743
 10
52.8712803027
 20
-35.45631845
 10
52.9750463283
 20
-35.4338825525
 10
53.0802145976
 20
-35.4212623602
 10
53.1825783796
 20
-35.4184578731
 10
53.2821376745
 20
-35.4247679692
 10
53.3802947258
 20
-35.4415948923
 10
53.4749461681
 20
-35.4675363987
 10
53.5681953668
 20
-35.5025924884
 10
53.6586400783
 20
-35.5481654051
 10
53.7462803027
 20
-35.6028529051
 10
53.7462803027
 20
-35.6028529051
 10
53.8612642771
 20
-35.6925964949
 10
53.9622258155
 20
-35.7942591551
 10
54.0491649181
 20
-35.9085420077
 10
54.1220815848
 20
-36.034042809
 10
54.1557354309
 20
-36.1048561102
 10
54.1886881553
 20
-36.1861862384
 10
54.2223420014
 20
-36.2773320718
 10
54.2552947258
 20
-36.3782936102
 10
54.2889485719
 20
-36.4897719756
 10
54.3219012963
 20
-36.6117671679
 10
54.3555551424
 20
-36.7435780654
 10
54.3885078668
 20
-36.8852046679
 10
54.3885078668
 20
-36.8852046679
 10
54.668255463
 20
-38.128994732
 10
54.668255463
 20
-38.128994732
 10
55.5783115527
 20
-36.8052767833
 10
55.5783115527
 20
-36.8052767833
 10
55.8552546617
 20
-36.9952807897
 10
55.8552546617
 20
-36.9952807897
 10
54.5168131553
 20
-38.9429971359
 10
54.5168131553
 20
-38.9429971359
 10
54.0863243732
 20
-37.0338424884
 10
54.0863243732
 20
-37.0338424884
 10
54.0547738924
 20
-36.8950203731
 10
54.0239245335
 20
-36.7674162064
 10
53.9937762963
 20
-36.6503288666
 10
53.9643291809
 20
-36.5451605974
 10
53.9355831873
 20
-36.4512102769
 10
53.9075383155
 20
-36.3684779051
 10
53.8808956873
 20
-36.296963482
 10
53.8542530591
 20
-36.2366670077
 10
53.7974621937
 20
-36.1321998602
 10
53.7294533796
 20
-36.0389506615
 10
53.6502266168
 20
-35.9569194115
 10
53.5597819053
 20
-35.8861061102
 10
53.5597819053
 20
-35.8861061102
 10
53.4980831873
 20
-35.8482455333
 10
53.4349822258
 20
-35.8173961743
 10
53.3704790207
 20
-35.7935580333
 10
53.3038724501
 20
-35.7767311102
 10
53.2351625142
 20
-35.7669154051
 10
53.1650503348
 20
-35.7641109179
 10
53.0928347899
 20
-35.7690187705
 10
53.0192170014
 20
-35.7802367192
 10
52.9463003348
 20
-35.7984658859
 10
52.8775903989
 20
-35.8230051487
 10
52.8123860719
 20
-35.8538545077
 10
52.750687354
 20
-35.890312841
 10
52.6931953668
 20
-35.9337823923
 10
52.6392089886
 20
-35.9835620397
 10
52.5887282194
 20
-36.0389506615
 10
52.5417530591
 20
-36.1013505013
 10
52.5417530591
 20
-36.1013505013
 10
52.4982835078
 20
-36.170761559
 10
52.4625262963
 20
-36.2408737384
 10
52.4344814245
 20
-36.3123881615
 10
52.4141488924
 20
-36.3853048282
 10
52.4015287001
 20
-36.4589226166
 10
52.3973219694
 20
-36.5332415269
 10
52.4001264565
 20
-36.6089626808
 10
52.4106432835
 20
-36.6853849564
 10
52.4288724501
 20
-36.761807232
 10
52.4555150783
 20
-36.8361261423
 10
52.4905711681
 20
-36.909042809
 10
52.5326384758
 20
-36.9798561102
 10
52.583119245
 20
-37.0492671679
 10
52.6420134758
 20
-37.117275982
 10
52.7086200463
 20
-37.1831814308
 10
52.7829389565
 20
-37.2469835141
  0
LWPOLYLINE
  5
8D
330
1F
100
AcDbEntity
  8
0
  6
Continuous
 62
     7
100
AcDbPolyline
 90
       20
 70
   128
 43
0.0
 10
54.815530777
 20
-31.9472955081
 10
54.8527101354
 20
-31.8869990337
 10
54.8527101354
 20
-31.8869990337
 10
56.9189160649
 20
-33.1728564055
 10
56.9189160649
 20
-33.1728564055
 10
57.1425739175
 20
-32.8138820466
 10
57.1425739175
 20
-32.8138820466
 10
57.4272293662
 20
-32.9912658607
 10
57.4272293662
 20
-32.9912658607
 10
57.2035715136
 20
-33.3502402196
 10
57.2035715136
 20
-33.3502402196
 10
57.892774238
 20
-33.7793267581
 10
57.892774238
 20
-33.7793267581
 10
57.7090803278
 20
-34.0752001555
 10
57.7090803278
 20
-34.0752001555
 10
57.0198776034
 20
-33.6461136171
 10
57.0198776034
 20
-33.6461136171
 10
56.1371652636
 20
-35.0630807645
 10
56.1371652636
 20
-35.0630807645
 10
54.8155506803
 20
-31.9472955081
  0
LWPOLYLINE
  5
8E
330
1F
100
AcDbEntity
  8
0
  6
Continuous
 62
     7
100
AcDbPolyline
 90
        6
 70
   128
 43
0.0
 10
56.7352175713
 20
-33.468729803
 10
55.4998455521
 20
-32.699599194
 10
55.4998455521
 20
-32.699599194
 10
56.1911516419
 20
-34.3416264376
 10
56.1911516419
 20
-34.3416264376
 10
56.7352221547
 20
-33.468729803
  0
LWPOLYLINE
  5
8F
330
1F
100
AcDbEntity
  8
0
  6
Continuous
 62
     7
100
AcDbPolyline
 90
        8
 70
   128
 43
0.0
 10
57.6609373093
 20
-31.1748512396
 10
58.2751326644
 20
-30.0299193486
 10
58.2751326644
 20
-30.0299193486
 10
58.5289387542
 20
-30.1659369768
 10
58.5289387542
 20
-30.1659369768
 10
57.9147560618
 20
-31.3108688678
 10
57.9147560618
 20
-31.3108688678
 10
57.6609499721
 20
-31.1748512396
  0
LWPOLYLINE
  5
90
330
1F
100
AcDbEntity
  8
0
  6
Continuous
 62
     7
100
AcDbPolyline
 90
      106
 70
   128
 43
0.0
 10
58.3492219448
 20
-27.7269195891
 10
58.2083046495
 20
-28.0298042045
 10
58.2083046495
 20
-28.0298042045
 10
58.0975274059
 20
-27.9688066084
 10
57.9958647456
 20
-27.901498916
 10
57.9040177905
 20
-27.8278811276
 10
57.8212854187
 20
-27.7472521212
 10
57.748368752
 20
-27.6610141404
 10
57.6845666687
 20
-27.5670638199
 10
57.6298791687
 20
-27.467504525
 10
57.5850073738
 20
-27.3609340122
 10
57.5506524059
 20
-27.2508578904
 10
57.5275153866
 20
-27.1407817686
 10
57.5155963161
 20
-27.0314067686
 10
57.5148951943
 20
-26.9213306468
 10
57.5261131431
 20
-26.811254525
 10
57.5485490405
 20
-26.7011784032
 10
57.5822028866
 20
-26.5911022814
 10
57.6277758033
 20
-26.4810261596
 10
57.6277758033
 20
-26.4810261596
 10
57.6817621815
 20
-26.3765590122
 10
57.7420586559
 20
-26.2819075699
 10
57.8086652264
 20
-26.1963707109
 10
57.8815818931
 20
-26.1199484353
 10
57.9608086559
 20
-26.052640743
 10
58.0463455148
 20
-25.994447634
 10
58.13819247
 20
-25.9460702302
 10
58.2363495213
 20
-25.9068074096
 10
58.3373110597
 20
-25.8766591725
 10
58.4382725982
 20
-25.8570277622
 10
58.5378318931
 20
-25.8465109353
 10
58.6366900661
 20
-25.8465109353
 10
58.7348471174
 20
-25.8563266404
 10
58.8323030469
 20
-25.8759580507
 10
58.9290578546
 20
-25.905405166
 10
59.0251115405
 20
-25.9446679866
 10
59.0251115405
 20
-25.9446679866
 10
59.1534168289
 20
-26.0140790443
 10
59.2705041687
 20
-26.0975125378
 10
59.3756724379
 20
-26.1956695891
 10
59.4689216366
 20
-26.3078490763
 10
59.5137934315
 20
-26.3723522814
 10
59.56006747
 20
-26.4466711917
 10
59.607743752
 20
-26.5308058071
 10
59.6575233995
 20
-26.6254572494
 10
59.7087052905
 20
-26.7299243968
 10
59.7619905469
 20
-26.8442072494
 10
59.8166780469
 20
-26.9683058071
 10
59.8727677905
 20
-27.1029211917
 10
59.8727677905
 20
-27.1029211917
 10
60.3565418289
 20
-28.2829091725
 10
60.3565418289
 20
-28.2829091725
 10
61.033124361
 20
-26.8252769609
 10
61.033124361
 20
-26.8252769609
 10
61.3381123418
 20
-26.9669035635
 10
61.3381123418
 20
-26.9669035635
 10
60.3425193931
 20
-29.111635134
 10
60.3425193931
 20
-29.111635134
 10
59.5993302905
 20
-27.299936416
 10
59.5993302905
 20
-27.299936416
 10
59.5453439123
 20
-27.1681255186
 10
59.4934608995
 20
-27.0468314481
 10
59.4443823738
 20
-26.9367553263
 10
59.3981083354
 20
-26.8378971532
 10
59.3539376623
 20
-26.7502569289
 10
59.3125714764
 20
-26.6731335314
 10
59.2740097777
 20
-26.6072280827
 10
59.2382525661
 20
-26.5518394609
 10
59.1646347777
 20
-26.4585902622
 10
59.0812012841
 20
-26.3779612558
 10
58.9893543289
 20
-26.3106535635
 10
58.8883927905
 20
-26.2552649417
 10
58.8883927905
 20
-26.2552649417
 10
58.82178622
 20
-26.2279211917
 10
58.7544785277
 20
-26.2082897814
 10
58.6864697136
 20
-26.1956695891
 10
58.6177597777
 20
-26.1900606148
 10
58.5490498418
 20
-26.1921639802
 10
58.4789376623
 20
-26.2012785635
 10
58.4088254828
 20
-26.2174043648
 10
58.3380121815
 20
-26.2412425058
 10
58.2693022456
 20
-26.271390743
 10
58.2055001623
 20
-26.3064468327
 10
58.1459048097
 20
-26.3478130186
 10
58.0919184315
 20
-26.3947881789
 10
58.0414376623
 20
-26.4473723135
 10
57.9965658674
 20
-26.5048643007
 10
57.9559008033
 20
-26.568666384
 10
57.9201435918
 20
-26.6380774417
 10
57.9201435918
 20
-26.6380774417
 10
57.888593111
 20
-26.7137985955
 10
57.8654560918
 20
-26.7888186276
 10
57.8493302905
 20
-26.8638386596
 10
57.8416179507
 20
-26.9388586917
 10
57.8416179507
 20
-27.0131776019
 10
57.8493302905
 20
-27.0874965122
 10
57.86475497
 20
-27.1618154225
 10
57.8878919892
 20
-27.2354332109
 10
57.9187413482
 20
-27.3076487558
 10
57.9580041687
 20
-27.3763586917
 10
58.0042782072
 20
-27.4422641404
 10
58.0582645854
 20
-27.5053651019
 10
58.1192621815
 20
-27.5649604545
 10
58.1886732392
 20
-27.6217513199
 10
58.2650955148
 20
-27.6757376981
 10
58.3492301302
 20
-27.7269195891
  0
LWPOLYLINE
  5
91
330
1F
100
AcDbEntity
  8
0
  6
Continuous
 62
     7
100
AcDbPolyline
 90
      132
 70
   128
 43
0.0
 10
59.640288353
 20
-21.9443184792
 10
59.9473909029
 20
-22.0663136715
 10
59.9473909029
 20
-22.0663136715
 10
59.4902594927
 20
-23.2147511715
 10
59.4902594927
 20
-23.2147511715
 10
60.3049630183
 20
-23.7244667164
 10
60.3049630183
 20
-23.7244667164
 10
60.3189854542
 20
-23.6108849856
 10
60.3379157427
 20
-23.5057167164
 10
60.3631561273
 20
-23.4089619087
 10
60.3940054863
 20
-23.3206205625
 10
60.3940054863
 20
-23.3206205625
 10
60.4416817683
 20
-23.2147511715
 10
60.4963692683
 20
-23.117295242
 10
60.5580679863
 20
-23.0289538959
 10
60.627479044
 20
-22.9483248895
 10
60.7046024414
 20
-22.8768104664
 10
60.788035935
 20
-22.813008383
 10
60.8791817683
 20
-22.758320883
 10
60.9780399414
 20
-22.7120468446
 10
61.0811048452
 20
-22.6755885112
 10
61.1855719927
 20
-22.6496470048
 10
61.2921425055
 20
-22.6349234471
 10
61.3994141401
 20
-22.6307167164
 10
61.5087891401
 20
-22.6384290561
 10
61.6202675055
 20
-22.6566582228
 10
61.7324469927
 20
-22.6861053382
 10
61.8467298452
 20
-22.7260692805
 10
61.8467298452
 20
-22.7260692805
 10
61.9245543645
 20
-22.7597231266
 10
61.9988732747
 20
-22.7968825818
 10
62.0689854542
 20
-22.8382487677
 10
62.1362931465
 20
-22.8838216843
 10
62.2000952299
 20
-22.93290021
 10
62.2603917042
 20
-22.9861854664
 10
62.3171825696
 20
-23.0436774536
 10
62.370467826
 20
-23.1046750497
 10
62.4195463517
 20
-23.168477133
 10
62.4637170247
 20
-23.2343825818
 10
62.5022787235
 20
-23.3016902741
 10
62.5359325696
 20
-23.3711013318
 10
62.5646785632
 20
-23.441914633
 10
62.5878155824
 20
-23.5141301779
 10
62.6060447491
 20
-23.5884490882
 10
62.6186649414
 20
-23.6648713638
 10
62.6263772811
 20
-23.7419947612
 10
62.6291817683
 20
-23.8198192805
 10
62.6256761593
 20
-23.8983449215
 10
62.6179638196
 20
-23.9768705625
 10
62.6039413837
 20
-24.0567984471
 10
62.5850110952
 20
-24.1374274536
 10
62.5604718324
 20
-24.21805646
 10
62.5303235952
 20
-24.30008771
 10
62.5303235952
 20
-24.30008771
 10
62.4882562876
 20
-24.3947391523
 10
62.4398788837
 20
-24.4823793766
 10
62.3858925055
 20
-24.5637095048
 10
62.3262971529
 20
-24.6380284151
 10
62.2603917042
 20
-24.7053361074
 10
62.1881761593
 20
-24.7656325818
 10
62.1103516401
 20
-24.81961896
 10
62.0262170247
 20
-24.8665941202
 10
61.9385768004
 20
-24.9058569407
 10
61.8495343324
 20
-24.9367062997
 10
61.7583884991
 20
-24.9584410754
 10
61.6651393004
 20
-24.9724635112
 10
61.5704878581
 20
-24.9773713638
 10
61.4744341722
 20
-24.9738657548
 10
61.3762771209
 20
-24.9619466843
 10
61.276717826
 20
-24.9416141523
 10
61.276717826
 20
-24.9416141523
 10
61.4085287235
 20
-24.6106846651
 10
61.4085287235
 20
-24.6106846651
 10
61.5059846529
 20
-24.6240059792
 10
61.5971304863
 20
-24.6275115882
 10
61.6826673452
 20
-24.621201492
 10
61.7611929863
 20
-24.6050756907
 10
61.8355118965
 20
-24.5791341843
 10
61.9070263196
 20
-24.5433769728
 10
61.9764373773
 20
-24.4978040561
 10
62.042342826
 20
-24.4431165561
 10
62.1033404222
 20
-24.3807167164
 10
62.1566256786
 20
-24.3127079023
 10
62.2007963517
 20
-24.2390901138
 10
62.237254685
 20
-24.1605644728
 10
62.237254685
 20
-24.1605644728
 10
62.264598435
 20
-24.08133771
 10
62.2835287235
 20
-24.0014098254
 10
62.2933444286
 20
-23.9214819407
 10
62.2947466722
 20
-23.8415540561
 10
62.2877354542
 20
-23.7616261715
 10
62.2716096529
 20
-23.6809971651
 10
62.2470703901
 20
-23.6003681587
 10
62.213416544
 20
-23.5197391523
 10
62.1727514799
 20
-23.4412135112
 10
62.1250751978
 20
-23.3689979664
 10
62.0710888196
 20
-23.3016902741
 10
62.0107923452
 20
-23.2406926779
 10
61.9434846529
 20
-23.1846029343
 10
61.8691657427
 20
-23.1348232869
 10
61.7885367363
 20
-23.089951492
 10
61.7015976337
 20
-23.0513897933
 10
61.7015976337
 20
-23.0513897933
 10
61.6209686273
 20
-23.0226437997
 10
61.5410407427
 20
-23.0023112677
 10
61.4625151017
 20
-22.9896910754
 10
61.3853917042
 20
-22.9854843446
 10
61.3096705504
 20
-22.9889899536
 10
61.2353516401
 20
-23.0002079023
 10
61.1617338517
 20
-23.0198393125
 10
61.0895183068
 20
-23.0471830625
 10
61.0201072491
 20
-23.0815380305
 10
60.955604044
 20
-23.1229042164
 10
60.8960086914
 20
-23.1712816202
 10
60.8406200696
 20
-23.226670242
 10
60.7901393004
 20
-23.28836896
 10
60.7445663837
 20
-23.3570788959
 10
60.7032001978
 20
-23.4328000497
 10
60.6667418645
 20
-23.5155324215
 10
60.6667418645
 20
-23.5155324215
 10
60.6400992363
 20
-23.5898513318
 10
60.6176633388
 20
-23.6697792164
 10
60.5994341722
 20
-23.7560171971
 10
60.5847106145
 20
-23.8478641523
 10
60.5734926658
 20
-23.9460212036
 10
60.5671825696
 20
-24.0497872292
 10
60.5643780824
 20
-24.1591622292
 10
60.5650792042
 20
-24.2748473254
 10
60.5650792042
 20
-24.2748473254
 10
59.0843099735
 20
-23.3402519728
 10
59.0843099735
 20
-23.3402519728
 10
59.6402995568
 20
-21.9443184792
  0
CIRCLE
  5
92
330
1F
100
AcDbEntity
  8
0
  6
Continuous
 62
     7
370
    25
100
AcDbCircle
 10
0.0
 20
-55.0
 30
0.0
 40
2.5
  0
CIRCLE
  5
93
330
1F
100
AcDbEntity
  8
0
  6
Continuous
 62
     7
370
    25
100
AcDbCircle
 10
-55.0
 20
0.0
 30
0.0
 40
2.500000000000016
  0
CIRCLE
  5
94
330
1F
100
AcDbEntity
  8
0
  6
Continuous
 62
     7
370
    25
100
AcDbCircle
 10
55.0
 20
0.0
 30
0.0
 40
2.500000000000016
  0
CIRCLE
  5
95
330
1F
100
AcDbEntity
  8
0
  6
Continuous
 62
     7
370
    25
100
AcDbCircle
 10
0.0
 20
55.0
 30
0.0
 40
2.5
  0
CIRCLE
  5
96
330
1F
100
AcDbEntity
  8
0
  6
Continuous
 62
     7
370
    25
100
AcDbCircle
 10
0.0
 20
0.0
 30
0.0
 40
73.99999999999999
  0
MTEXT
  5
98
330
1F
100
AcDbEntity
  8
0
  6
Continuous
 62
     7
100
AcDbMText
 10
-74.0
 20
-75.0195663917
 30
0.0
 40
4.83362
 41
0.0
 71
     1
 72
     1
  1
SOLIDWORKS Educational Product.
  7
SLDTEXTSTYLE0
 73
     1
 44
1.0
  0
MTEXT
  5
99
330
1F
100
AcDbEntity
  8
0
  6
Continuous
 62
     7
100
AcDbMText
 10
-74.0
 20
-82.2699963917
 30
0.0
 40
4.83362
 41
0.0
 71
     1
 72
     1
  1
For Instructional Use Only.
  7
SLDTEXTSTYLE0
 73
     1
 44
1.0
  0
ENDSEC
  0
SECTION
  2
OBJECTS
  0
DICTIONARY
  5
C
330
0
100
AcDbDictionary
281
     1
  3
ACAD_GROUP
350
D
  3
ACAD_LAYOUT
350
1A
  3
ACAD_MLINESTYLE
350
17
  3
ACAD_PLOTSETTINGS
350
19
  3
ACAD_PLOTSTYLENAME
350
E
  3
ACAD_SCALELIST
350
47
  3
DWGPROPS
350
9A
  0
DICTIONARY
  5
D
102
{ACAD_REACTORS
330
C
102
}
330
C
100
AcDbDictionary
281
     1
  0
DICTIONARY
  5
1A
102
{ACAD_REACTORS
330
C
102
}
330
C
100
AcDbDictionary
281
     1
  3
Layout1
350
1E
  3
Layout2
350
26
  3
Model
350
22
  0
DICTIONARY
  5
17
102
{ACAD_REACTORS
330
C
102
}
330
C
100
AcDbDictionary
281
     1
  3
Standard
350
18
  0
DICTIONARY
  5
19
102
{ACAD_REACTORS
330
C
102
}
330
C
100
AcDbDictionary
281
     1
  0
ACDBDICTIONARYWDFLT
  5
E
102
{ACAD_REACTORS
330
C
102
}
330
C
100
AcDbDictionary
281
     1
  3
Normal
350
F
100
AcDbDictionaryWithDefault
340
F
  0
DICTIONARY
  5
47
102
{ACAD_REACTORS
330
C
102
}
330
C
100
AcDbDictionary
281
     1
  3
A0
350
48
  3
A1
350
49
  3
A2
350
4A
  3
A3
350
4B
  3
A4
350
4C
  3
A5
350
4D
  3
A6
350
4E
  3
A7
350
4F
  3
A8
350
50
  3
A9
350
51
  3
B0
350
52
  3
B1
350
53
  3
B2
350
54
  3
B3
350
55
  3
B4
350
56
  3
B5
350
57
  3
B6
350
58
  0
XRECORD
  5
9A
102
{ACAD_REACTORS
330
C
102
}
330
C
100
AcDbXrecord
280
     1
  1
DWGPROPS COOKIE
  2

  3

  4

  6

  7

  8
vijay
  9

300
=
301
=
302
=
303
=
304
=
305
=
306
=
307
=
308
=
309
=
 40
0.0
 41
2460698.462399838
 42
2460698.462460752
  1

 90
        0
  0
LAYOUT
  5
1E
102
{ACAD_REACTORS
330
1A
102
}
330
1A
100
AcDbPlotSettings
  1

  2
none_device
  4

  6

 40
0.0
 41
0.0
 42
0.0
 43
0.0
 44
0.0
 45
0.0
 46
0.0
 47
0.0
 48
0.0
 49
0.0
140
0.0
141
0.0
142
1.0
143
1.0
 70
   688
 72
     1
 73
     0
 74
     5
  7

 75
    16
147
1.0
148
0.0
149
0.0
100
AcDbLayout
  1
Layout1
 70
     1
 71
     1
 10
0.0
 20
0.0
 11
420.0
 21
297.0
 12
0.0
 22
0.0
 32
0.0
 14
1.0000000000E+20
 24
1.0000000000E+20
 34
1.0000000000E+20
 15
-1.0000000000E+20
 25
-1.0000000000E+20
 35
-1.0000000000E+20
146
0.0
 13
0.0
 23
0.0
 33
0.0
 16
1.0
 26
0.0
 36
0.0
 17
0.0
 27
1.0
 37
0.0
 76
     0
330
1B
  0
LAYOUT
  5
26
102
{ACAD_REACTORS
330
1A
102
}
330
1A
100
AcDbPlotSettings
  1

  2
none_device
  4

  6

 40
0.0
 41
0.0
 42
0.0
 43
0.0
 44
0.0
 45
0.0
 46
0.0
 47
0.0
 48
0.0
 49
0.0
140
0.0
141
0.0
142
1.0
143
1.0
 70
   688
 72
     1
 73
     0
 74
     5
  7

 75
    16
147
1.0
148
0.0
149
0.0
100
AcDbLayout
  1
Layout2
 70
     1
 71
     2
 10
0.0
 20
0.0
 11
0.0
 21
0.0
 12
0.0
 22
0.0
 32
0.0
 14
0.0
 24
0.0
 34
0.0
 15
0.0
 25
0.0
 35
0.0
146
0.0
 13
0.0
 23
0.0
 33
0.0
 16
1.0
 26
0.0
 36
0.0
 17
0.0
 27
1.0
 37
0.0
 76
     0
330
23
  0
LAYOUT
  5
22
102
{ACAD_REACTORS
330
1A
102
}
330
1A
100
AcDbPlotSettings
  1

  2
none_device
  4
ANSI_A_(11.00_x_8.50_Inches)
  6

 40
6.35
 41
19.05
 42
6.35000508
 43
19.05000254
 44
279.4
 45
215.9
 46
133.34999746
 47
88.89999873
 48
0.0
 49
0.0
140
0.0
141
0.0
142
0.0568581081
143
1.0
 70
  1696
 72
     0
 73
     0
 74
     0
  7

 75
     0
147
0.0179189148
148
-1300.4909072572
149
0.0
100
AcDbLayout
  1
Model
 70
     1
 71
     0
 10
0.0
 20
0.0
 11
420.0
 21
297.0
 12
0.0
 22
0.0
 32
0.0
 14
-74.0
 24
-74.0
 34
0.0
 15
74.0
 25
74.0
 35
0.0
146
0.0
 13
0.0
 23
0.0
 33
0.0
 16
1.0
 26
0.0
 36
0.0
 17
0.0
 27
1.0
 37
0.0
 76
     0
330
1F
331
29
  0
MLINESTYLE
  5
18
102
{ACAD_REACTORS
330
17
102
}
330
17
100
AcDbMlineStyle
  2
Standard
 70
     0
  3

 62
   256
 51
90.0
 52
90.0
 71
     2
 49
0.5
 62
   256
  6
BYLAYER
 49
-0.5
 62
   256
  6
BYLAYER
  0
ACDBPLACEHOLDER
  5
F
102
{ACAD_REACTORS
330
E
102
}
330
E
  0
SCALE
  5
48
102
{ACAD_REACTORS
330
47
102
}
330
47
100
AcDbScale
 70
     0
300
1:1
140
1.0
141
1.0
290
     1
  0
SCALE
  5
49
102
{ACAD_REACTORS
330
47
102
}
330
47
100
AcDbScale
 70
     0
300
1:2
140
1.0
141
2.0
290
     0
  0
SCALE
  5
4A
102
{ACAD_REACTORS
330
47
102
}
330
47
100
AcDbScale
 70
     0
300
1:4
140
1.0
141
4.0
290
     0
  0
SCALE
  5
4B
102
{ACAD_REACTORS
330
47
102
}
330
47
100
AcDbScale
 70
     0
300
1:5
140
1.0
141
5.0
290
     0
  0
SCALE
  5
4C
102
{ACAD_REACTORS
330
47
102
}
330
47
100
AcDbScale
 70
     0
300
1:8
140
1.0
141
8.0
290
     0
  0
SCALE
  5
4D
102
{ACAD_REACTORS
330
47
102
}
330
47
100
AcDbScale
 70
     0
300
1:10
140
1.0
141
10.0
290
     0
  0
SCALE
  5
4E
102
{ACAD_REACTORS
330
47
102
}
330
47
100
AcDbScale
 70
     0
300
1:16
140
1.0
141
16.0
290
     0
  0
SCALE
  5
4F
102
{ACAD_REACTORS
330
47
102
}
330
47
100
AcDbScale
 70
     0
300
1:20
140
1.0
141
20.0
290
     0
  0
SCALE
  5
50
102
{ACAD_REACTORS
330
47
102
}
330
47
100
AcDbScale
 70
     0
300
1:30
140
1.0
141
30.0
290
     0
  0
SCALE
  5
51
102
{ACAD_REACTORS
330
47
102
}
330
47
100
AcDbScale
 70
     0
300
1:40
140
1.0
141
40.0
290
     0
  0
SCALE
  5
52
102
{ACAD_REACTORS
330
47
102
}
330
47
100
AcDbScale
 70
     0
300
1:50
140
1.0
141
50.0
290
     0
  0
SCALE
  5
53
102
{ACAD_REACTORS
330
47
102
}
330
47
100
AcDbScale
 70
     0
300
1:100
140
1.0
141
100.0
290
     0
  0
SCALE
  5
54
102
{ACAD_REACTORS
330
47
102
}
330
47
100
AcDbScale
 70
     0
300
2:1
140
2.0
141
1.0
290
     0
  0
SCALE
  5
55
102
{ACAD_REACTORS
330
47
102
}
330
47
100
AcDbScale
 70
     0
300
4:1
140
4.0
141
1.0
290
     0
  0
SCALE
  5
56
102
{ACAD_REACTORS
330
47
102
}
330
47
100
AcDbScale
 70
     0
300
8:1
140
8.0
141
1.0
290
     0
  0
SCALE
  5
57
102
{ACAD_REACTORS
330
47
102
}
330
47
100
AcDbScale
 70
     0
300
10:1
140
10.0
141
1.0
290
     0
  0
SCALE
  5
58
102
{ACAD_REACTORS
330
47
102
}
330
47
100
AcDbScale
 70
     0
300
100:1
140
100.0
141
1.0
290
     0
  0
ENDSEC
  0
EOF
