  0
SECTION
  2
HEADER
  9
$ACADVER
  1
AC1015
  9
$ACADMAINTVER
 70
     6
  9
$DWGCODEPAGE
  3
ANSI_1252
  9
$INSBASE
 10
0.0
 20
0.0
 30
0.0
  9
$EXTMIN
 10
-50.0
 20
-50.0
 30
0.0
  9
$EXTMAX
 10
50.0
 20
50.0
 30
0.0
  9
$LIMMIN
 10
0.0
 20
0.0
  9
$LIMMAX
 10
420.0
 20
297.0
  9
$ORTHOMODE
 70
     0
  9
$REGENMODE
 70
     1
  9
$FILLMODE
 70
     1
  9
$QTEXTMODE
 70
     0
  9
$MIRRTEXT
 70
     1
  9
$LTSCALE
 40
1.0
  9
$ATTMODE
 70
     1
  9
$TEXTSIZE
 40
3.5
  9
$TRACEWID
 40
1.0
  9
$TEXTSTYLE
  7
Standard
  9
$CLAYER
  8
0
  9
$CELTYPE
  6
ByLayer
  9
$CECOLOR
 62
   256
  9
$CELTSCALE
 40
1.0
  9
$DISPSILH
 70
     0
  9
$DIMSCALE
 40
1.0
  9
$DIMASZ
 40
3.302
  9
$DIMEXO
 40
0.0
  9
$DIMDLI
 40
3.75
  9
$DIMRND
 40
0.0
  9
$DIMDLE
 40
0.0
  9
$DIMEXE
 40
1.0
  9
$DIMTP
 40
0.0
  9
$DIMTM
 40
0.0
  9
$DIMTXT
 40
3.5
  9
$DIMCEN
 40
2.5
  9
$DIMTSZ
 40
0.0
  9
$DIMTOL
 70
     0
  9
$DIMLIM
 70
     0
  9
$DIMTIH
 70
     1
  9
$DIMTOH
 70
     1
  9
$DIMSE1
 70
     0
  9
$DIMSE2
 70
     0
  9
$DIMTAD
 70
     1
  9
$DIMZIN
 70
     1
  9
$DIMBLK
  1

  9
$DIMASO
 70
     1
  9
$DIMSHO
 70
     1
  9
$DIMPOST
  1

  9
$DIMAPOST
  1

  9
$DIMALT
 70
     0
  9
$DIMALTD
 70
     3
  9
$DIMALTF
 40
0.0393700787
  9
$DIMLFAC
 40
1.0
  9
$DIMTOFL
 70
     1
  9
$DIMTVP
 40
0.0
  9
$DIMTIX
 70
     0
  9
$DIMSOXD
 70
     0
  9
$DIMSAH
 70
     0
  9
$DIMBLK1
  1

  9
$DIMBLK2
  1

  9
$DIMSTYLE
  2
ISO-25
  9
$DIMCLRD
 70
     0
  9
$DIMCLRE
 70
     0
  9
$DIMCLRT
 70
     0
  9
$DIMTFAC
 40
1.0
  9
$DIMGAP
 40
1.524
  9
$DIMJUST
 70
     0
  9
$DIMSD1
 70
     0
  9
$DIMSD2
 70
     0
  9
$DIMTOLJ
 70
     0
  9
$DIMTZIN
 70
     1
  9
$DIMALTZ
 70
     0
  9
$DIMALTTZ
 70
     0
  9
$DIMUPT
 70
     0
  9
$DIMDEC
 70
     2
  9
$DIMTDEC
 70
     2
  9
$DIMALTU
 70
     2
  9
$DIMALTTD
 70
     3
  9
$DIMTXSTY
  7
Standard
  9
$DIMAUNIT
 70
     0
  9
$DIMADEC
 70
     2
  9
$DIMALTRND
 40
0.0
  9
$DIMAZIN
 70
     0
  9
$DIMDSEP
 70
    44
  9
$DIMATFIT
 70
     3
  9
$DIMFRAC
 70
     0
  9
$DIMLDRBLK
  1

  9
$DIMLUNIT
 70
     2
  9
$DIMLWD
 70
    -2
  9
$DIMLWE
 70
    -2
  9
$DIMTMOVE
 70
     0
  9
$LUNITS
 70
     2
  9
$LUPREC
 70
     2
  9
$SKETCHINC
 40
1.0
  9
$FILLETRAD
 40
0.0
  9
$AUNITS
 70
     0
  9
$AUPREC
 70
     2
  9
$MENU
  1
.
  9
$ELEVATION
 40
0.0
  9
$PELEVATION
 40
0.0
  9
$THICKNESS
 40
0.0
  9
$LIMCHECK
 70
     0
  9
$CHAMFERA
 40
0.0
  9
$CHAMFERB
 40
0.0
  9
$CHAMFERC
 40
0.0
  9
$CHAMFERD
 40
0.0
  9
$SKPOLY
 70
     0
  9
$TDCREATE
 40
2460698.694279954
  9
$TDUCREATE
 40
2460698.465113287
  9
$TDUPDATE
 40
2460698.69434125
  9
$TDUUPDATE
 40
2460698.465174584
  9
$TDINDWG
 40
0.0000000116
  9
$TDUSRTIMER
 40
0.0000000116
  9
$USRTIMER
 70
     1
  9
$ANGBASE
 50
0.0
  9
$ANGDIR
 70
     0
  9
$PDMODE
 70
     0
  9
$PDSIZE
 40
-1.0
  9
$PLINEWID
 40
0.0
  9
$SPLFRAME
 70
     0
  9
$SPLINETYPE
 70
     6
  9
$SPLINESEGS
 70
     8
  9
$HANDSEED
  5
85
  9
$SURFTAB1
 70
     6
  9
$SURFTAB2
 70
     6
  9
$SURFTYPE
 70
     6
  9
$SURFU
 70
     6
  9
$SURFV
 70
     6
  9
$UCSBASE
  2

  9
$UCSNAME
  2

  9
$UCSORG
 10
0.0
 20
0.0
 30
0.0
  9
$UCSXDIR
 10
1.0
 20
0.0
 30
0.0
  9
$UCSYDIR
 10
0.0
 20
1.0
 30
0.0
  9
$UCSORTHOREF
  2

  9
$UCSORTHOVIEW
 70
     0
  9
$UCSORGTOP
 10
0.0
 20
0.0
 30
0.0
  9
$UCSORGBOTTOM
 10
0.0
 20
0.0
 30
0.0
  9
$UCSORGLEFT
 10
0.0
 20
0.0
 30
0.0
  9
$UCSORGRIGHT
 10
0.0
 20
0.0
 30
0.0
  9
$UCSORGFRONT
 10
0.0
 20
0.0
 30
0.0
  9
$UCSORGBACK
 10
0.0
 20
0.0
 30
0.0
  9
$PUCSBASE
  2

  9
$PUCSNAME
  2

  9
$PUCSORG
 10
0.0
 20
0.0
 30
0.0
  9
$PUCSXDIR
 10
1.0
 20
0.0
 30
0.0
  9
$PUCSYDIR
 10
0.0
 20
1.0
 30
0.0
  9
$PUCSORTHOREF
  2

  9
$PUCSORTHOVIEW
 70
     0
  9
$PUCSORGTOP
 10
0.0
 20
0.0
 30
0.0
  9
$PUCSORGBOTTOM
 10
0.0
 20
0.0
 30
0.0
  9
$PUCSORGLEFT
 10
0.0
 20
0.0
 30
0.0
  9
$PUCSORGRIGHT
 10
0.0
 20
0.0
 30
0.0
  9
$PUCSORGFRONT
 10
0.0
 20
0.0
 30
0.0
  9
$PUCSORGBACK
 10
0.0
 20
0.0
 30
0.0
  9
$USERI1
 70
     0
  9
$USERI2
 70
     0
  9
$USERI3
 70
     0
  9
$USERI4
 70
     0
  9
$USERI5
 70
     0
  9
$USERR1
 40
0.0
  9
$USERR2
 40
0.0
  9
$USERR3
 40
0.0
  9
$USERR4
 40
0.0
  9
$USERR5
 40
0.0
  9
$WORLDVIEW
 70
     1
  9
$SHADEDGE
 70
     3
  9
$SHADEDIF
 70
    70
  9
$TILEMODE
 70
     1
  9
$MAXACTVP
 70
    64
  9
$PINSBASE
 10
0.0
 20
0.0
 30
0.0
  9
$PLIMCHECK
 70
     0
  9
$PEXTMIN
 10
1.0000000000E+20
 20
1.0000000000E+20
 30
1.0000000000E+20
  9
$PEXTMAX
 10
-1.0000000000E+20
 20
-1.0000000000E+20
 30
-1.0000000000E+20
  9
$PLIMMIN
 10
0.0
 20
0.0
  9
$PLIMMAX
 10
420.0
 20
297.0
  9
$UNITMODE
 70
     0
  9
$VISRETAIN
 70
     1
  9
$PLINEGEN
 70
     0
  9
$PSLTSCALE
 70
     1
  9
$TREEDEPTH
 70
  3020
  9
$CMLSTYLE
  2
Standard
  9
$CMLJUST
 70
     0
  9
$CMLSCALE
 40
20.0
  9
$PROXYGRAPHICS
 70
     1
  9
$MEASUREMENT
 70
     1
  9
$CELWEIGHT
370
    -1
  9
$ENDCAPS
280
     0
  9
$JOINSTYLE
280
     0
  9
$LWDISPLAY
290
     1
  9
$INSUNITS
 70
     4
  9
$HYPERLINKBASE
  1

  9
$STYLESHEET
  1

  9
$XEDIT
290
     1
  9
$CEPSNTYPE
380
     0
  9
$PSTYLEMODE
290
     1
  9
$FINGERPRINTGUID
  2
{b0862383-5ef8-4a46-bc44-a59a8c1d9d8b}
  9
$VERSIONGUID
  2
{FAEB1C32-E019-11D5-929B-00C0DF256EC4}
  9
$EXTNAMES
290
     1
  9
$PSVPSCALE
 40
0.0
  9
$OLESTARTUP
290
     0
  0
ENDSEC
  0
SECTION
  2
CLASSES
  0
CLASS
  1
ACDBDICTIONARYWDFLT
  2
AcDbDictionaryWithDefault
  3
ObjectDBX Classes
 90
        0
280
     0
281
     0
  0
CLASS
  1
VISUALSTYLE
  2
AcDbVisualStyle
  3
ObjectDBX Classes
 90
     4095
280
     0
281
     0
  0
CLASS
  1
MATERIAL
  2
AcDbMaterial
  3
ObjectDBX Classes
 90
     1153
280
     0
281
     0
  0
CLASS
  1
SCALE
  2
AcDbScale
  3
ObjectDBX Classes
 90
     1153
280
     0
281
     0
  0
CLASS
  1
TABLESTYLE
  2
AcDbTableStyle
  3
ObjectDBX Classes
 90
     4095
280
     0
281
     0
  0
CLASS
  1
MLEADERSTYLE
  2
AcDbMLeaderStyle
  3
ACDB_MLEADERSTYLE_CLASS
 90
     4095
280
     0
281
     0
  0
CLASS
  1
SUN
  2
AcDbSun
  3
SCENEOE
 90
     1153
280
     0
281
     0
  0
CLASS
  1
ACDBPLACEHOLDER
  2
AcDbPlaceHolder
  3
ObjectDBX Classes
 90
        0
280
     0
281
     0
  0
CLASS
  1
LAYOUT
  2
AcDbLayout
  3
ObjectDBX Classes
 90
        0
280
     0
281
     0
  0
ENDSEC
  0
SECTION
  2
TABLES
  0
TABLE
  2
VPORT
  5
8
330
0
100
AcDbSymbolTable
 70
     1
  0
VPORT
  5
29
330
8
100
AcDbSymbolTableRecord
100
AcDbViewportTableRecord
  2
*Active
 70
     0
 10
0.0
 20
0.0
 11
1.0
 21
1.0
 12
0.0
 22
0.0
 13
0.0
 23
0.0
 14
10.0
 24
10.0
 15
10.0
 25
10.0
 16
0.0
 26
0.0
 36
1.0
 17
0.0
 27
0.0
 37
0.0
 40
102.0
 41
1.0
 42
50.0
 43
0.0
 44
0.0
 50
0.0
 51
0.0
 71
     0
 72
   100
 73
     1
 74
     3
 75
     0
 76
     0
 77
     0
 78
     0
281
     0
 65
     1
110
0.0
120
0.0
130
0.0
111
1.0
121
0.0
131
0.0
112
0.0
122
1.0
132
0.0
 79
     0
146
0.0
  0
ENDTAB
  0
TABLE
  2
LTYPE
  5
5
330
0
100
AcDbSymbolTable
 70
     6
  0
LTYPE
  5
14
330
5
100
AcDbSymbolTableRecord
100
AcDbLinetypeTableRecord
  2
ByBlock
 70
     0
  3

 72
    65
 73
     0
 40
0.0
  0
LTYPE
  5
15
330
5
100
AcDbSymbolTableRecord
100
AcDbLinetypeTableRecord
  2
ByLayer
 70
     0
  3

 72
    65
 73
     0
 40
0.0
  0
LTYPE
  5
16
330
5
100
AcDbSymbolTableRecord
100
AcDbLinetypeTableRecord
  2
Continuous
 70
     0
  3
Solid line
 72
    65
 73
     0
 40
0.0
  0
LTYPE
  5
5E
330
5
100
AcDbSymbolTableRecord
100
AcDbLinetypeTableRecord
  2
HIDDEN
 70
     0
  3
Hidden __ __ __ __ __ __ __ __ __ __ __ __ __ __
 72
    65
 73
     2
 40
1.905
 49
1.27
 74
     0
 49
-0.635
 74
     0
  0
LTYPE
  5
5F
330
5
100
AcDbSymbolTableRecord
100
AcDbLinetypeTableRecord
  2
PHANTOM
 70
     0
  3
Phantom ______  __  __  ______  __  __  ______
 72
    65
 73
     6
 40
12.7
 49
6.35
 74
     0
 49
-1.27
 74
     0
 49
1.27
 74
     0
 49
-1.27
 74
     0
 49
1.27
 74
     0
 49
-1.27
 74
     0
  0
LTYPE
  5
60
330
5
100
AcDbSymbolTableRecord
100
AcDbLinetypeTableRecord
  2
CENTER
 70
     0
  3
Center ____ _ ____ _ ____ _ ____ _ ____ _ ____
 72
    65
 73
     4
 40
10.16
 49
6.35
 74
     0
 49
-1.27
 74
     0
 49
1.27
 74
     0
 49
-1.27
 74
     0
  0
LTYPE
  5
61
330
5
100
AcDbSymbolTableRecord
100
AcDbLinetypeTableRecord
  2
CENTERX2
 70
     0
  3
Center (2x) ________  __  ________  __  _____
 72
    65
 73
     4
 40
20.32
 49
12.7
 74
     0
 49
-2.54
 74
     0
 49
2.54
 74
     0
 49
-2.54
 74
     0
  0
LTYPE
  5
62
330
5
100
AcDbSymbolTableRecord
100
AcDbLinetypeTableRecord
  2
DOT2
 70
     0
  3
Dot (.5x) ........................................
 72
    65
 73
     2
 40
0.635
 49
0.0
 74
     0
 49
-0.635
 74
     0
  0
ENDTAB
  0
TABLE
  2
LAYER
  5
2
330
0
100
AcDbSymbolTable
 70
     1
  0
LAYER
  5
10
330
2
100
AcDbSymbolTableRecord
100
AcDbLayerTableRecord
  2
0
 70
     0
 62
     7
  6
Continuous
370
    -3
390
F
  0
ENDTAB
  0
TABLE
  2
STYLE
  5
3
330
0
100
AcDbSymbolTable
 70
     1
  0
STYLE
  5
11
330
3
100
AcDbSymbolTableRecord
100
AcDbTextStyleTableRecord
  2
Standard
 70
     0
 40
0.0
 41
1.0
 50
0.0
 71
     0
 42
3.5
  3
txt
  4

  0
ENDTAB
  0
TABLE
  2
VIEW
  5
6
330
0
100
AcDbSymbolTable
 70
     0
  0
ENDTAB
  0
TABLE
  2
UCS
  5
7
330
0
100
AcDbSymbolTable
 70
     0
  0
ENDTAB
  0
TABLE
  2
APPID
  5
9
330
0
100
AcDbSymbolTable
 70
     1
  0
APPID
  5
12
330
9
100
AcDbSymbolTableRecord
100
AcDbRegAppTableRecord
  2
ACAD
 70
     0
  0
ENDTAB
  0
TABLE
  2
DIMSTYLE
  5
A
330
0
100
AcDbSymbolTable
 70
     1
100
AcDbDimStyleTable
  0
DIMSTYLE
105
27
330
A
100
AcDbSymbolTableRecord
100
AcDbDimStyleTableRecord
  2
ISO-25
 70
     0
 41
2.5
 42
0.625
 43
3.75
 44
1.25
 73
     0
 74
     0
 77
     1
 78
     8
140
2.5
141
2.5
143
0.0393700787
147
0.625
171
     3
172
     1
178
     0
271
     2
272
     2
274
     3
278
    44
283
     0
284
     8
340
11
  0
ENDTAB
  0
TABLE
  2
BLOCK_RECORD
  5
1
330
0
100
AcDbSymbolTable
 70
     1
  0
BLOCK_RECORD
  5
1F
330
1
100
AcDbSymbolTableRecord
100
AcDbBlockTableRecord
  2
*Model_Space
340
22
  0
BLOCK_RECORD
  5
1B
330
1
100
AcDbSymbolTableRecord
100
AcDbBlockTableRecord
  2
*Paper_Space
340
1E
  0
BLOCK_RECORD
  5
23
330
1
100
AcDbSymbolTableRecord
100
AcDbBlockTableRecord
  2
*Paper_Space0
340
26
  0
ENDTAB
  0
ENDSEC
  0
SECTION
  2
BLOCKS
  0
BLOCK
  5
20
330
1F
100
AcDbEntity
  8
0
100
AcDbBlockBegin
  2
*Model_Space
 70
     0
 10
0.0
 20
0.0
 30
0.0
  3
*Model_Space
  1

  0
ENDBLK
  5
21
330
1F
100
AcDbEntity
  8
0
100
AcDbBlockEnd
  0
BLOCK
  5
1C
330
1B
100
AcDbEntity
 67
     1
  8
0
100
AcDbBlockBegin
  2
*Paper_Space
 70
     0
 10
0.0
 20
0.0
 30
0.0
  3
*Paper_Space
  1

  0
ENDBLK
  5
1D
330
1B
100
AcDbEntity
 67
     1
  8
0
100
AcDbBlockEnd
  0
BLOCK
  5
24
330
23
100
AcDbEntity
  8
0
100
AcDbBlockBegin
  2
*Paper_Space0
 70
     0
 10
0.0
 20
0.0
 30
0.0
  3
*Paper_Space0
  1

  0
ENDBLK
  5
25
330
23
100
AcDbEntity
  8
0
100
AcDbBlockEnd
  0
ENDSEC
  0
SECTION
  2
ENTITIES
  0
CIRCLE
  5
63
330
1F
100
AcDbEntity
  8
0
  6
Continuous
 62
     7
100
AcDbCircle
 10
-42.4264068712
 20
42.4264068712
 30
0.0
 40
2.000000000000002
  0
CIRCLE
  5
64
330
1F
100
AcDbEntity
  8
0
  6
Continuous
 62
     7
100
AcDbCircle
 10
42.4264068712
 20
42.4264068712
 30
0.0
 40
2.000000000000011
  0
CIRCLE
  5
65
330
1F
100
AcDbEntity
  8
0
  6
Continuous
 62
     7
100
AcDbCircle
 10
42.4264068712
 20
-42.4264068712
 30
0.0
 40
1.999999999999998
  0
CIRCLE
  5
66
330
1F
100
AcDbEntity
  8
0
  6
Continuous
 62
     7
100
AcDbCircle
 10
-42.4264068712
 20
-42.4264068712
 30
0.0
 40
2.000000000000007
  0
LINE
  5
67
330
1F
100
AcDbEntity
  8
0
  6
CENTERX2
 62
     7
100
AcDbLine
 10
-42.4264068712
 20
-42.4264068712
 30
0.0
 11
42.4264068712
 21
-42.4264068712
 31
0.0
  0
LINE
  5
68
330
1F
100
AcDbEntity
  8
0
  6
Continuous
 62
     7
100
AcDbLine
 10
-50.0
 20
-50.0
 30
0.0
 11
50.0
 21
-50.0
 31
0.0
  0
LINE
  5
69
330
1F
100
AcDbEntity
  8
0
  6
Continuous
 62
     7
100
AcDbLine
 10
-50.0
 20
-50.0
 30
0.0
 11
-50.0
 21
50.0
 31
0.0
  0
LINE
  5
6A
330
1F
100
AcDbEntity
  8
0
  6
Continuous
 62
     7
100
AcDbLine
 10
-50.0
 20
50.0
 30
0.0
 11
50.0
 21
50.0
 31
0.0
  0
LINE
  5
6B
330
1F
100
AcDbEntity
  8
0
  6
Continuous
 62
     7
100
AcDbLine
 10
50.0
 20
-50.0
 30
0.0
 11
50.0
 21
50.0
 31
0.0
  0
LINE
  5
6C
330
1F
100
AcDbEntity
  8
0
  6
CENTERX2
 62
     7
100
AcDbLine
 10
-50.0
 20
-50.0
 30
0.0
 11
50.0
 21
50.0
 31
0.0
  0
LINE
  5
6D
330
1F
100
AcDbEntity
  8
0
  6
CENTERX2
 62
     7
100
AcDbLine
 10
-50.0
 20
50.0
 30
0.0
 11
50.0
 21
-50.0
 31
0.0
  0
LWPOLYLINE
  5
6E
330
1F
100
AcDbEntity
  8
0
  6
Continuous
 62
     7
100
AcDbPolyline
 90
       62
 70
   128
 43
0.0
 10
-29.960885644
 20
-38.9264068712
 10
-29.1454927885
 20
-38.9264068712
 10
-29.1454927885
 20
-38.9264068712
 10
-28.9772235577
 20
-38.927107993
 10
-28.8236778846
 20
-38.9299124802
 10
-28.6834535256
 20
-38.9341192109
 10
-28.5579527244
 20
-38.9397281853
 10
-28.4471754808
 20
-38.9467394032
 10
-28.3504206731
 20
-38.9558539866
 10
-28.2676883013
 20
-38.9663708135
 10
-28.1989783654
 20
-38.9789910058
 10
-28.1989783654
 20
-38.9789910058
 10
-28.1134415064
 20
-39.0000246597
 10
-28.0314102564
 20
-39.0259661661
 10
-27.954286859
 20
-39.056815525
 10
-27.8806690705
 20
-39.0925727366
 10
-27.810556891
 20
-39.1332378007
 10
-27.7453525641
 20
-39.1788107173
 10
-27.6836538462
 20
-39.2292914866
 10
-27.626161859
 20
-39.2846801084
 10
-27.5735777244
 20
-39.3442754609
 10
-27.5287059295
 20
-39.4073764225
 10
-27.4901442308
 20
-39.4746841148
 10
-27.45859375
 20
-39.5447962943
 10
-27.434755609
 20
-39.6198163263
 10
-27.4172275641
 20
-39.6976408456
 10
-27.4067107372
 20
-39.7796720956
 10
-27.4032051282
 20
-39.8652089545
 10
-27.4032051282
 20
-39.8652089545
 10
-27.4067107372
 20
-39.9514469353
 10
-27.4165264423
 20
-40.0334781853
 10
-27.4340544872
 20
-40.1120038263
 10
-27.4578926282
 20
-40.1863227366
 10
-27.4880408654
 20
-40.2571360379
 10
-27.5259014423
 20
-40.3237426084
 10
-27.5700721154
 20
-40.3868435699
 10
-27.6212540064
 20
-40.4457378007
 10
-27.6780448718
 20
-40.5004253007
 10
-27.7404447115
 20
-40.5509060699
 10
-27.8077524038
 20
-40.5964789866
 10
-27.8799679487
 20
-40.6371440507
 10
-27.9570913462
 20
-40.6729012622
 10
-28.0398237179
 20
-40.704451743
 10
-28.1274639423
 20
-40.7310943712
 10
-28.220713141
 20
-40.7535302686
 10
-28.220713141
 20
-40.7535302686
 10
-28.2978365385
 20
-40.7668515827
 10
-28.3903846154
 20
-40.7787706532
 10
-28.4983573718
 20
-40.7885863584
 10
-28.6210536859
 20
-40.7962986981
 10
-28.7591746795
 20
-40.8026087943
 10
-28.9120192308
 20
-40.8075166468
 10
-29.0802884615
 20
-40.810321134
 10
-29.2639823718
 20
-40.8110222558
 10
-29.2639823718
 20
-40.8110222558
 10
-29.5570512821
 20
-40.8110222558
 10
-29.5570512821
 20
-40.8110222558
 10
-29.5570512821
 20
-42.4264068712
 10
-29.5570512821
 20
-42.4264068712
 10
-29.9608974359
 20
-42.4264068712
 10
-29.9608974359
 20
-42.4264068712
 10
-29.9608974359
 20
-38.9264068712
  0
LWPOLYLINE
  5
6F
330
1F
100
AcDbEntity
  8
0
  6
Continuous
 62
     7
100
AcDbPolyline
 90
       40
 70
   128
 43
0.0
 10
-29.5570492744
 20
-39.2853812302
 10
-29.5570512821
 20
-40.4520478968
 10
-29.5570512821
 20
-40.4520478968
 10
-28.8545272436
 20
-40.4597602366
 10
-28.8545272436
 20
-40.4597602366
 10
-28.7514623397
 20
-40.4590591148
 10
-28.6554086538
 20
-40.4555535058
 10
-28.5670673077
 20
-40.4506456532
 10
-28.4850360577
 20
-40.4436344353
 10
-28.4107171474
 20
-40.434519852
 10
-28.3434094551
 20
-40.424003025
 10
-28.2838141026
 20
-40.4106817109
 10
-28.2305288462
 20
-40.3959581532
 10
-28.1372796474
 20
-40.3587986981
 10
-28.0538461538
 20
-40.3118235379
 10
-27.981630609
 20
-40.2543315507
 10
-27.919931891
 20
-40.1877249802
 10
-27.8708533654
 20
-40.1134060699
 10
-27.8350961538
 20
-40.0355815507
 10
-27.8140625
 20
-39.9528491789
 10
-27.8070512821
 20
-39.8666111981
 10
-27.8070512821
 20
-39.8666111981
 10
-27.8140625
 20
-39.7824765827
 10
-27.8350961538
 20
-39.7011464545
 10
-27.8708533654
 20
-39.6240230571
 10
-27.919931891
 20
-39.5504052686
 10
-27.9809294872
 20
-39.4837986981
 10
-28.0510416667
 20
-39.4277089545
 10
-28.1295673077
 20
-39.3814349161
 10
-28.2179086538
 20
-39.3463788263
 10
-28.2676883013
 20
-39.3323563904
 10
-28.3251802885
 20
-39.3197361981
 10
-28.3896834936
 20
-39.3092193712
 10
-28.4611979167
 20
-39.3008059097
 10
-28.5404246795
 20
-39.2937946917
 10
-28.6273637821
 20
-39.2888868391
 10
-28.7213141026
 20
-39.286082352
 10
-28.8229767628
 20
-39.2853812302
 10
-28.8229767628
 20
-39.2853812302
 10
-29.5570512821
 20
-39.2853812302
  0
LWPOLYLINE
  5
70
330
1F
100
AcDbEntity
  8
0
  6
Continuous
 62
     7
100
AcDbPolyline
 90
        8
 70
   128
 43
0.0
 10
-25.8506387472
 20
-38.9264068712
 10
-25.4467948718
 20
-38.9264068712
 10
-25.4467948718
 20
-38.9264068712
 10
-25.4467948718
 20
-42.4264068712
 10
-25.4467948718
 20
-42.4264068712
 10
-25.8506410256
 20
-42.4264068712
 10
-25.8506410256
 20
-42.4264068712
 10
-25.8506410256
 20
-38.9264068712
  0
LWPOLYLINE
  5
71
330
1F
100
AcDbEntity
  8
0
  6
Continuous
 62
     7
100
AcDbPolyline
 90
       20
 70
   128
 43
0.0
 10
-23.8493531942
 20
-42.4264068712
 10
-23.8493589744
 20
-38.9264068712
 10
-23.8493589744
 20
-38.9264068712
 10
-23.7645232372
 20
-38.9264068712
 10
-23.7645232372
 20
-38.9264068712
 10
-21.0224358974
 20
-41.599784275
 10
-21.0224358974
 20
-41.599784275
 10
-21.0224358974
 20
-38.9264068712
 10
-21.0224358974
 20
-38.9264068712
 10
-20.6185897436
 20
-38.9264068712
 10
-20.6185897436
 20
-38.9264068712
 10
-20.6185897436
 20
-42.4264068712
 10
-20.6185897436
 20
-42.4264068712
 10
-20.7104366987
 20
-42.4264068712
 10
-20.7104366987
 20
-42.4264068712
 10
-23.4455128205
 20
-39.7607418071
 10
-23.4455128205
 20
-39.7607418071
 10
-23.4455128205
 20
-42.4264068712
 10
-23.4455128205
 20
-42.4264068712
 10
-23.8493589744
 20
-42.4264068712
  0
LWPOLYLINE
  5
72
330
1F
100
AcDbEntity
  8
0
  6
Continuous
 62
     7
100
AcDbPolyline
 90
       16
 70
   128
 43
0.0
 10
-17.2262787819
 20
-38.9264068712
 10
-15.2967948718
 20
-42.4264068712
 10
-15.2967948718
 20
-42.4264068712
 10
-15.7420072115
 20
-42.4264068712
 10
-15.7420072115
 20
-42.4264068712
 10
-16.3610977564
 20
-41.3046119994
 10
-16.3610977564
 20
-41.3046119994
 10
-18.1812099359
 20
-41.3046119994
 10
-18.1812099359
 20
-41.3046119994
 10
-18.799599359
 20
-42.4264068712
 10
-18.799599359
 20
-42.4264068712
 10
-19.2455128205
 20
-42.4264068712
 10
-19.2455128205
 20
-42.4264068712
 10
-17.316025641
 20
-38.9264068712
 10
-17.316025641
 20
-38.9264068712
 10
-17.2262820513
 20
-38.9264068712
  0
LWPOLYLINE
  5
73
330
1F
100
AcDbEntity
  8
0
  6
Continuous
 62
     7
100
AcDbPolyline
 90
        6
 70
   128
 43
0.0
 10
-17.2711461782
 20
-39.6541712943
 10
-17.9827924679
 20
-40.9456376404
 10
-17.9827924679
 20
-40.9456376404
 10
-16.5588141026
 20
-40.9456376404
 10
-16.5588141026
 20
-40.9456376404
 10
-17.2711538462
 20
-39.6541712943
  0
LWPOLYLINE
  5
74
330
1F
100
AcDbEntity
  8
0
  6
Continuous
 62
     7
100
AcDbPolyline
 90
       22
 70
   128
 43
0.0
 10
-14.013454318
 20
-38.9264068712
 10
-13.6096153846
 20
-38.9264068712
 10
-13.6096153846
 20
-38.9264068712
 10
-13.6096153846
 20
-40.205253025
 10
-13.6096153846
 20
-40.205253025
 10
-11.9809094551
 20
-38.9264068712
 10
-11.9809094551
 20
-38.9264068712
 10
-11.3884615385
 20
-38.9264068712
 10
-11.3884615385
 20
-38.9264068712
 10
-13.3880608974
 20
-40.4969196917
 10
-13.3880608974
 20
-40.4969196917
 10
-11.208974359
 20
-42.4264068712
 10
-11.208974359
 20
-42.4264068712
 10
-11.7677684295
 20
-42.4264068712
 10
-11.7677684295
 20
-42.4264068712
 10
-13.6096153846
 20
-40.7948964545
 10
-13.6096153846
 20
-40.7948964545
 10
-13.6096153846
 20
-42.4264068712
 10
-13.6096153846
 20
-42.4264068712
 10
-14.0134615385
 20
-42.4264068712
 10
-14.0134615385
 20
-42.4264068712
 10
-14.0134615385
 20
-38.9264068712
  0
LWPOLYLINE
  5
75
330
1F
100
AcDbEntity
  8
0
  6
Continuous
 62
     7
100
AcDbPolyline
 90
       16
 70
   128
 43
0.0
 10
-8.2429423928
 20
-38.9264068712
 10
-6.3134615385
 20
-42.4264068712
 10
-6.3134615385
 20
-42.4264068712
 10
-6.7586738782
 20
-42.4264068712
 10
-6.7586738782
 20
-42.4264068712
 10
-7.3777644231
 20
-41.3046119994
 10
-7.3777644231
 20
-41.3046119994
 10
-9.1978766026
 20
-41.3046119994
 10
-9.1978766026
 20
-41.3046119994
 10
-9.8162660256
 20
-42.4264068712
 10
-9.8162660256
 20
-42.4264068712
 10
-10.2621794872
 20
-42.4264068712
 10
-10.2621794872
 20
-42.4264068712
 10
-8.3326923077
 20
-38.9264068712
 10
-8.3326923077
 20
-38.9264068712
 10
-8.2429487179
 20
-38.9264068712
  0
LWPOLYLINE
  5
76
330
1F
100
AcDbEntity
  8
0
  6
Continuous
 62
     7
100
AcDbPolyline
 90
        6
 70
   128
 43
0.0
 10
-8.2878172398
 20
-39.6541712943
 10
-8.9994591346
 20
-40.9456376404
 10
-8.9994591346
 20
-40.9456376404
 10
-7.5754807692
 20
-40.9456376404
 10
-7.5754807692
 20
-40.9456376404
 10
-8.2878205128
 20
-39.6541712943
  0
LWPOLYLINE
  5
77
330
1F
100
AcDbEntity
  8
0
  6
Continuous
 62
     7
100
AcDbPolyline
 90
       67
 70
   128
 43
0.0
 10
-2.7596149594
 20
-38.9264068712
 10
-1.9308894231
 20
-38.9264068712
 10
-1.9308894231
 20
-38.9264068712
 10
-1.7647235577
 20
-38.927107993
 10
-1.6118790064
 20
-38.9292113584
 10
-1.4737580128
 20
-38.9334180891
 10
-1.3489583333
 20
-38.9383259417
 10
-1.2388822115
 20
-38.9453371597
 10
-1.1421274038
 20
-38.9530494994
 10
-1.0600961538
 20
-38.9628652045
 10
-0.9913862179
 20
-38.9740831532
 10
-0.9913862179
 20
-38.9740831532
 10
-0.9009415064
 20
-38.9944156853
 10
-0.8147035256
 20
-39.0203571917
 10
-0.7333733974
 20
-39.0512065507
 10
-0.6555488782
 20
-39.0869637622
 10
-0.5826322115
 20
-39.1283299481
 10
-0.5139222756
 20
-39.1746039866
 10
-0.4494190705
 20
-39.2257858776
 10
-0.3891225962
 20
-39.282576743
 10
-0.3344350962
 20
-39.3428732173
 10
-0.2874599359
 20
-39.4073764225
 10
-0.2474959936
 20
-39.4746841148
 10
-0.215244391
 20
-39.5454974161
 10
-0.1900040064
 20
-39.6198163263
 10
-0.1717748397
 20
-39.6969397238
 10
-0.160556891
 20
-39.778269852
 10
-0.1570512821
 20
-39.8624044673
 10
-0.1570512821
 20
-39.8624044673
 10
-0.1598557692
 20
-39.9332177686
 10
-0.1668669872
 20
-40.0019277045
 10
-0.1794871795
 20
-40.068534275
 10
-0.1970152244
 20
-40.1323363584
 10
-0.2201522436
 20
-40.1947361981
 10
-0.2474959936
 20
-40.2543315507
 10
-0.2804487179
 20
-40.3125246597
 10
-0.3183092949
 20
-40.3679132814
 10
-0.3610777244
 20
-40.4204974161
 10
-0.4073517628
 20
-40.4702770635
 10
-0.4585336538
 20
-40.516551102
 10
-0.5139222756
 20
-40.5593195314
 10
-0.57421875
 20
-40.598582352
 10
-0.6380208333
 20
-40.6350406853
 10
-0.7067307692
 20
-40.6679934097
 10
-0.7796474359
 20
-40.697440525
 10
-0.8581730769
 20
-40.7233820314
 10
-0.9437099359
 20
-40.7465190507
 10
-1.0362580128
 20
-40.7654493391
 10
-1.1358173077
 20
-40.7815751404
 10
-1.2430889423
 20
-40.7941953327
 10
-1.3573717949
 20
-40.8033099161
 10
-1.4786658654
 20
-40.8089188904
 10
-1.6069711538
 20
-40.8110222558
 10
-1.6069711538
 20
-40.8110222558
 10
-0.1121794872
 20
-42.4264068712
 10
-0.1121794872
 20
-42.4264068712
 10
-0.6239983974
 20
-42.4264068712
 10
-0.6239983974
 20
-42.4264068712
 10
-2.1180889423
 20
-40.8110222558
 10
-2.1180889423
 20
-40.8110222558
 10
-2.3557692308
 20
-40.8110222558
 10
-2.3557692308
 20
-40.8110222558
 10
-2.3557692308
 20
-42.4264068712
 10
-2.3557692308
 20
-42.4264068712
 10
-2.7596153846
 20
-42.4264068712
 10
-2.7596153846
 20
-42.4264068712
 10
-2.7596153846
 20
-38.9264068712
  0
LWPOLYLINE
  5
78
330
1F
100
AcDbEntity
  8
0
  6
Continuous
 62
     7
100
AcDbPolyline
 90
       40
 70
   128
 43
0.0
 10
-2.355767414
 20
-39.2853812302
 10
-2.3557692308
 20
-40.4520478968
 10
-2.3557692308
 20
-40.4520478968
 10
-1.6230969551
 20
-40.4569557494
 10
-1.6230969551
 20
-40.4569557494
 10
-1.5200320513
 20
-40.4562546276
 10
-1.4239783654
 20
-40.4527490186
 10
-1.3349358974
 20
-40.4478411661
 10
-1.2529046474
 20
-40.4408299481
 10
-1.1778846154
 20
-40.4317153648
 10
-1.1091746795
 20
-40.4204974161
 10
-1.0481770833
 20
-40.407176102
 10
-0.9934895833
 20
-40.3917514225
 10
-0.8967347756
 20
-40.3538908456
 10
-0.8118990385
 20
-40.3069156853
 10
-0.7375801282
 20
-40.2494236981
 10
-0.6751802885
 20
-40.1828171276
 10
-0.625400641
 20
-40.1084982173
 10
-0.5896434295
 20
-40.0306736981
 10
-0.5679086538
 20
-39.9479413263
 10
-0.5608974359
 20
-39.8617033456
 10
-0.5608974359
 20
-39.8617033456
 10
-0.5679086538
 20
-39.7775687302
 10
-0.5896434295
 20
-39.6969397238
 10
-0.6261017628
 20
-39.6205174481
 10
-0.6765825321
 20
-39.5483019032
 10
-0.7389823718
 20
-39.4823964545
 10
-0.8104967949
 20
-39.4270078327
 10
-0.8911258013
 20
-39.3814349161
 10
-0.980869391
 20
-39.3463788263
 10
-1.0320512821
 20
-39.3323563904
 10
-1.090244391
 20
-39.3197361981
 10
-1.1568509615
 20
-39.3092193712
 10
-1.2311698718
 20
-39.3008059097
 10
-1.3132011218
 20
-39.2937946917
 10
-1.4029447115
 20
-39.2888868391
 10
-1.5011017628
 20
-39.286082352
 10
-1.6062700321
 20
-39.2853812302
 10
-1.6062700321
 20
-39.2853812302
 10
-2.3557692308
 20
-39.2853812302
  0
LWPOLYLINE
  5
79
330
1F
100
AcDbEntity
  8
0
  6
Continuous
 62
     7
100
AcDbPolyline
 90
      100
 70
   128
 43
0.0
 10
3.3432282507
 20
-38.8366632814
 10
3.5703926282
 20
-38.845076743
 10
3.7884415064
 20
-38.8696160058
 10
3.9973758013
 20
-38.9116833135
 10
4.196494391
 20
-38.9691753007
 10
4.3857972756
 20
-39.0441953327
 10
4.5659855769
 20
-39.1353411661
 10
4.7363581731
 20
-39.2433139225
 10
4.8976161859
 20
-39.368113602
 10
4.9733373397
 20
-39.4354212943
 10
5.044150641
 20
-39.504832352
 10
5.1100560897
 20
-39.5756456532
 10
5.1717548077
 20
-39.6485623199
 10
5.2278445513
 20
-39.723582352
 10
5.2790264423
 20
-39.8007057494
 10
5.3253004808
 20
-39.8792313904
 10
5.3673677885
 20
-39.9598603968
 10
5.4038261218
 20
-40.0425927686
 10
5.4353766026
 20
-40.1274285058
 10
5.4627203526
 20
-40.2136664866
 10
5.4844551282
 20
-40.3020078327
 10
5.5019831731
 20
-40.3924525443
 10
5.5139022436
 20
-40.4850006212
 10
5.5216145833
 20
-40.5789509417
 10
5.5237179487
 20
-40.6750046276
 10
5.5237179487
 20
-40.6750046276
 10
5.5216145833
 20
-40.7703571917
 10
5.5139022436
 20
-40.8636063904
 10
5.5019831731
 20
-40.9554533456
 10
5.4844551282
 20
-41.0451969353
 10
5.4627203526
 20
-41.1328371597
 10
5.4360777244
 20
-41.2190751404
 10
5.4038261218
 20
-41.3032097558
 10
5.3673677885
 20
-41.3859421276
 10
5.3260016026
 20
-41.466571134
 10
5.2797275641
 20
-41.5457978968
 10
5.2285456731
 20
-41.6222201725
 10
5.1724559295
 20
-41.6979413263
 10
5.1114583333
 20
-41.770857993
 10
5.0455528846
 20
-41.8430735379
 10
4.9747395833
 20
-41.9124845956
 10
4.8990184295
 20
-41.9804934097
 10
4.7384615385
 20
-42.1059942109
 10
4.5701923077
 20
-42.2146680891
 10
4.3928084936
 20
-42.3072161661
 10
4.2063100962
 20
-42.3822361981
 10
4.012099359
 20
-42.4411304289
 10
3.8087740385
 20
-42.4824966148
 10
3.5970352564
 20
-42.5077369994
 10
3.3768830128
 20
-42.5161504609
 10
3.3768830128
 20
-42.5161504609
 10
3.1539262821
 20
-42.5077369994
 10
2.9400841346
 20
-42.4824966148
 10
2.7346554487
 20
-42.4411304289
 10
2.5383413462
 20
-42.3829373199
 10
2.3511418269
 20
-42.3079172879
 10
2.1723557692
 20
-42.2160703327
 10
2.0026842949
 20
-42.1073964545
 10
1.8414262821
 20
-41.982596775
 10
1.7657051282
 20
-41.9152890827
 10
1.6948918269
 20
-41.845878025
 10
1.6289863782
 20
-41.774363602
 10
1.5679887821
 20
-41.7021480571
 10
1.5118990385
 20
-41.627128025
 10
1.4600160256
 20
-41.5507057494
 10
1.4137419872
 20
-41.4728812302
 10
1.3723758013
 20
-41.3929533456
 10
1.3359174679
 20
-41.3116232173
 10
1.3036658654
 20
-41.2281897238
 10
1.2770232372
 20
-41.1433539866
 10
1.2552884615
 20
-41.056414884
 10
1.2377604167
 20
-40.9680735379
 10
1.2258413462
 20
-40.8776288263
 10
1.2181290064
 20
-40.7857818712
 10
1.216025641
 20
-40.6918315507
 10
1.216025641
 20
-40.6918315507
 10
1.2202323718
 20
-40.5670318712
 10
1.2335536859
 20
-40.4443355571
 10
1.2559895833
 20
-40.3237426084
 10
1.2875400641
 20
-40.205253025
 10
1.3275040064
 20
-40.0895679289
 10
1.3758814103
 20
-39.9759861981
 10
1.4340745192
 20
-39.8645078327
 10
1.5006810897
 20
-39.7558339545
 10
1.575
 20
-39.6506656853
 10
1.6563301282
 20
-39.5518075122
 10
1.7439703526
 20
-39.4585583135
 10
1.8379206731
 20
-39.3716192109
 10
1.9381810897
 20
-39.2902890827
 10
2.0447516026
 20
-39.2145679289
 10
2.1583333333
 20
-39.1444557494
 10
2.2782251603
 20
-39.0806536661
 10
2.4023237179
 20
-39.0231616789
 10
2.5292267628
 20
-38.9740831532
 10
2.6589342949
 20
-38.9320158456
 10
2.7907451923
 20
-38.8976608776
 10
2.9246594551
 20
-38.8710182494
 10
3.0620793269
 20
-38.8520879609
 10
3.2016025641
 20
-38.8401688904
 10
3.3432291667
 20
-38.8366632814
  0
LWPOLYLINE
  5
7A
330
1F
100
AcDbEntity
  8
0
  6
Continuous
 62
     7
100
AcDbPolyline
 90
       92
 70
   128
 43
0.0
 10
3.3614579588
 20
-39.1956376404
 10
3.2478766026
 20
-39.1984421276
 10
3.1349959936
 20
-39.2082578327
 10
3.02421875
 20
-39.2236825122
 10
2.91484375
 20
-39.2454172879
 10
2.8068709936
 20
-39.2741632814
 10
2.7003004808
 20
-39.3085182494
 10
2.5958333333
 20
-39.3491833135
 10
2.4920673077
 20
-39.3961584738
 10
2.3925080128
 20
-39.4480414866
 10
2.2978565705
 20
-39.504832352
 10
2.2095152244
 20
-39.5658299481
 10
2.1260817308
 20
-39.631034275
 10
2.0489583333
 20
-39.7004453327
 10
1.9774439103
 20
-39.7740631212
 10
1.9108373397
 20
-39.8525887622
 10
1.8505408654
 20
-39.935321134
 10
1.7965544872
 20
-40.020857993
 10
1.7495793269
 20
-40.1091993391
 10
1.7103165064
 20
-40.2003451725
 10
1.6773637821
 20
-40.2935943712
 10
1.6521233974
 20
-40.3889469353
 10
1.6345953526
 20
-40.4871039866
 10
1.6233774038
 20
-40.5873644032
 10
1.6198717949
 20
-40.6904293071
 10
1.6198717949
 20
-40.6904293071
 10
1.6275841346
 20
-40.8418716148
 10
1.6521233974
 20
-40.9870038263
 10
1.6913862179
 20
-41.1258259417
 10
1.7474759615
 20
-41.2590390827
 10
1.8189903846
 20
-41.3866432494
 10
1.9073317308
 20
-41.5079373199
 10
2.0103966346
 20
-41.6229212943
 10
2.1302884615
 20
-41.7322962943
 10
2.2613982372
 20
-41.8318555891
 10
2.398818109
 20
-41.9180935699
 10
2.5432491987
 20
-41.9910102366
 10
2.6939903846
 20
-42.0506055891
 10
2.8510416667
 20
-42.0975807494
 10
3.0144030449
 20
-42.1305334738
 10
3.184775641
 20
-42.1508660058
 10
3.3614583333
 20
-42.157176102
 10
3.3614583333
 20
-42.157176102
 10
3.4806490385
 20
-42.1543716148
 10
3.5977363782
 20
-42.1452570314
 10
3.7120192308
 20
-42.129832352
 10
3.8248998397
 20
-42.1080975763
 10
3.9349759615
 20
-42.0807538263
 10
4.0429487179
 20
-42.047801102
 10
4.1481169872
 20
-42.0078371597
 10
4.2518830128
 20
-41.962264243
 10
4.3514423077
 20
-41.911082352
 10
4.4453926282
 20
-41.8556937302
 10
4.5337339744
 20
-41.7953972558
 10
4.6164663462
 20
-41.7308940507
 10
4.6935897436
 20
-41.6621841148
 10
4.7644030449
 20
-41.5885663263
 10
4.8303084936
 20
-41.5107418071
 10
4.8906049679
 20
-41.4280094353
 10
4.9445913462
 20
-41.3417714545
 10
4.9908653846
 20
-41.2534301084
 10
5.0301282051
 20
-41.1629853968
 10
5.0623798077
 20
-41.0697361981
 10
5.0876201923
 20
-40.974383634
 10
5.105849359
 20
-40.8769277045
 10
5.1163661859
 20
-40.7766672879
 10
5.1198717949
 20
-40.6743035058
 10
5.1198717949
 20
-40.6743035058
 10
5.1163661859
 20
-40.5726408456
 10
5.105849359
 20
-40.4730815507
 10
5.0876201923
 20
-40.376326743
 10
5.0623798077
 20
-40.2816753007
 10
5.0301282051
 20
-40.1898283456
 10
4.9908653846
 20
-40.1007858776
 10
4.9445913462
 20
-40.013846775
 10
4.8906049679
 20
-39.9290110379
 10
4.8303084936
 20
-39.8476809097
 10
4.7644030449
 20
-39.7705575122
 10
4.6921875
 20
-39.6976408456
 10
4.6143629808
 20
-39.6289309097
 10
4.5309294872
 20
-39.5644277045
 10
4.4411858974
 20
-39.5041312302
 10
4.3458333333
 20
-39.4480414866
 10
4.2448717949
 20
-39.3961584738
 10
4.1397035256
 20
-39.3491833135
 10
4.0338341346
 20
-39.3085182494
 10
3.9251602564
 20
-39.2741632814
 10
3.8157852564
 20
-39.2454172879
 10
3.704306891
 20
-39.2236825122
 10
3.5921274038
 20
-39.2082578327
 10
3.4771434295
 20
-39.1984421276
 10
3.3614583333
 20
-39.1956376404
  0
LWPOLYLINE
  5
7B
330
1F
100
AcDbEntity
  8
0
  6
Continuous
 62
     7
100
AcDbPolyline
 90
      165
 70
   128
 43
0.0
 10
10.8903795481
 20
-39.5686344353
 10
10.5650641026
 20
-39.7789709738
 10
10.5650641026
 20
-39.7789709738
 10
10.4963541667
 20
-39.7095599161
 10
10.4241386218
 20
-39.6443555891
 10
10.3484174679
 20
-39.583357993
 10
10.2698918269
 20
-39.5265671276
 10
10.1871594551
 20
-39.4746841148
 10
10.1016225962
 20
-39.4270078327
 10
10.0125801282
 20
-39.3835382814
 10
9.9200320513
 20
-39.3442754609
 10
9.8246794872
 20
-39.3092193712
 10
9.7272235577
 20
-39.279071134
 10
9.6276642628
 20
-39.2538307494
 10
9.5253004808
 20
-39.2327970956
 10
9.4208333333
 20
-39.2166712943
 10
9.3142628205
 20
-39.2047522238
 10
9.2048878205
 20
-39.1977410058
 10
9.0934094551
 20
-39.1956376404
 10
9.0934094551
 20
-39.1956376404
 10
8.9714142628
 20
-39.1984421276
 10
8.8515224359
 20
-39.2082578327
 10
8.7344350962
 20
-39.2236825122
 10
8.6194511218
 20
-39.2454172879
 10
8.5065705128
 20
-39.2734621597
 10
8.3957932692
 20
-39.3071160058
 10
8.287119391
 20
-39.3477810699
 10
8.18125
 20
-39.3940551084
 10
8.0795873397
 20
-39.4459381212
 10
7.9835336538
 20
-39.5020278648
 10
7.8930889423
 20
-39.5623243391
 10
7.8089543269
 20
-39.6268275443
 10
7.7311298077
 20
-39.6955374802
 10
7.658213141
 20
-39.7684541468
 10
7.5916065705
 20
-39.8462786661
 10
7.5313100962
 20
-39.9276087943
 10
7.4773237179
 20
-40.0124445314
 10
7.4303485577
 20
-40.1000847558
 10
7.3910857372
 20
-40.1898283456
 10
7.3581330128
 20
-40.2830775443
 10
7.3328926282
 20
-40.3784301084
 10
7.3153645833
 20
-40.4758860379
 10
7.3041466346
 20
-40.5768475763
 10
7.3006410256
 20
-40.6799124802
 10
7.3006410256
 20
-40.6799124802
 10
7.3090544872
 20
-40.8348603968
 10
7.3328926282
 20
-40.9827970956
 10
7.3735576923
 20
-41.1244236981
 10
7.4296474359
 20
-41.2590390827
 10
7.5025641026
 20
-41.388045493
 10
7.5909054487
 20
-41.5100406853
 10
7.6960737179
 20
-41.6257257814
 10
7.8166666667
 20
-41.7343996597
 10
7.9498798077
 20
-41.8332578327
 10
8.0915064103
 20
-41.9194958135
 10
8.2415464744
 20
-41.9917113584
 10
8.4
 20
-42.0513067109
 10
8.5668669872
 20
-42.0975807494
 10
8.7428485577
 20
-42.1305334738
 10
8.9265424679
 20
-42.1508660058
 10
9.1186498397
 20
-42.157176102
 10
9.1186498397
 20
-42.157176102
 10
9.2259214744
 20
-42.1550727366
 10
9.3303886218
 20
-42.1480615186
 10
9.4327524038
 20
-42.1368435699
 10
9.5330128205
 20
-42.1207177686
 10
9.6311698718
 20
-42.1003852366
 10
9.7272235577
 20
-42.075144852
 10
9.8211738782
 20
-42.0456977366
 10
9.9123197115
 20
-42.0113427686
 10
10.0020633013
 20
-41.9727810699
 10
10.0890024038
 20
-41.9293115186
 10
10.173838141
 20
-41.8816352366
 10
10.2565705128
 20
-41.829051102
 10
10.3371995192
 20
-41.7722602366
 10
10.4150240385
 20
-41.7105615186
 10
10.4914463141
 20
-41.6446560699
 10
10.5650641026
 20
-41.5738427686
 10
10.5650641026
 20
-41.5738427686
 10
10.8903846154
 20
-41.7820759417
 10
10.8903846154
 20
-41.7820759417
 10
10.8118589744
 20
-41.8669116789
 10
10.7284254808
 20
-41.9475406853
 10
10.6400841346
 20
-42.0225607173
 10
10.5468349359
 20
-42.0926728968
 10
10.4493790064
 20
-42.1585783456
 10
10.3470152244
 20
-42.2188748199
 10
10.2397435897
 20
-42.2742634417
 10
10.1275641026
 20
-42.3247442109
 10
10.0118790064
 20
-42.3696160058
 10
9.8926883013
 20
-42.4081777045
 10
9.7699919872
 20
-42.4411304289
 10
9.6444911859
 20
-42.4684741789
 10
9.5147836538
 20
-42.4895078327
 10
9.3822716346
 20
-42.5042313904
 10
9.2469551282
 20
-42.5133459738
 10
9.107431891
 20
-42.5161504609
 10
9.107431891
 20
-42.5161504609
 10
8.9749198718
 20
-42.5140470956
 10
8.8466145833
 20
-42.5063347558
 10
8.7211137821
 20
-42.4944156853
 10
8.5998197115
 20
-42.4775887622
 10
8.4813301282
 20
-42.4565551084
 10
8.3670472756
 20
-42.4299124802
 10
8.2562700321
 20
-42.3990631212
 10
8.1489983974
 20
-42.3633059097
 10
8.04453125
 20
-42.3226408456
 10
7.9442708333
 20
-42.2770679289
 10
7.8475160256
 20
-42.2265871597
 10
7.7542668269
 20
-42.1718996597
 10
7.6645232372
 20
-42.1123043071
 10
7.5782852564
 20
-42.047801102
 10
7.4955528846
 20
-41.9783900443
 10
7.4163261218
 20
-41.904071134
 10
7.4163261218
 20
-41.904071134
 10
7.2943309295
 20
-41.7715591148
 10
7.1891626603
 20
-41.6320358776
 10
7.0994190705
 20
-41.4862025443
 10
7.0265024038
 20
-41.333357993
 10
6.9697115385
 20
-41.1742033456
 10
6.9290464744
 20
-41.0080374802
 10
6.9052083333
 20
-40.8355615186
 10
6.8967948718
 20
-40.6560743391
 10
6.8967948718
 20
-40.6560743391
 10
6.899599359
 20
-40.560721775
 10
6.9066105769
 20
-40.4674725763
 10
6.9192307692
 20
-40.376326743
 10
6.9360576923
 20
-40.2865831532
 10
6.9584935897
 20
-40.1989429289
 10
6.9851362179
 20
-40.1134060699
 10
7.0173878205
 20
-40.0299725763
 10
7.0538461538
 20
-39.9479413263
 10
7.0959134615
 20
-39.8680134417
 10
7.1421875
 20
-39.7901889225
 10
7.1940705128
 20
-39.7137666468
 10
7.2508613782
 20
-39.6394477366
 10
7.3118589744
 20
-39.5672321917
 10
7.3784655449
 20
-39.4971200122
 10
7.4492788462
 20
-39.4284100763
 10
7.5257011218
 20
-39.3618035058
 10
7.6876602564
 20
-39.2384060699
 10
7.8601362179
 20
-39.1318355571
 10
8.0424278846
 20
-39.0420919673
 10
8.2345352564
 20
-38.9677730571
 10
8.4364583333
 20
-38.9102810699
 10
8.6481971154
 20
-38.8696160058
 10
8.8697516026
 20
-38.845076743
 10
9.1018229167
 20
-38.8366632814
 10
9.1018229167
 20
-38.8366632814
 10
9.2434495192
 20
-38.8394677686
 10
9.380869391
 20
-38.848582352
 10
9.5154847756
 20
-38.8640070314
 10
9.6458934295
 20
-38.8850406853
 10
9.7734975962
 20
-38.9116833135
 10
9.8975961538
 20
-38.9453371597
 10
10.0174879808
 20
-38.9845999802
 10
10.1345753205
 20
-39.029471775
 10
10.2474559295
 20
-39.0799525443
 10
10.3547275641
 20
-39.1353411661
 10
10.4570913462
 20
-39.1956376404
 10
10.5545472756
 20
-39.2601408456
 10
10.6463942308
 20
-39.330253025
 10
10.7326322115
 20
-39.4045719353
 10
10.8139623397
 20
-39.4844998199
 10
10.8903846154
 20
-39.5686344353
  0
LWPOLYLINE
  5
7C
330
1F
100
AcDbEntity
  8
0
  6
Continuous
 62
     7
100
AcDbPolyline
 90
       22
 70
   128
 43
0.0
 10
12.442946434
 20
-38.9264068712
 10
12.8467948718
 20
-38.9264068712
 10
12.8467948718
 20
-38.9264068712
 10
12.8467948718
 20
-40.205253025
 10
12.8467948718
 20
-40.205253025
 10
14.4755008013
 20
-38.9264068712
 10
14.4755008013
 20
-38.9264068712
 10
15.0679487179
 20
-38.9264068712
 10
15.0679487179
 20
-38.9264068712
 10
13.068349359
 20
-40.4969196917
 10
13.068349359
 20
-40.4969196917
 10
15.2474358974
 20
-42.4264068712
 10
15.2474358974
 20
-42.4264068712
 10
14.6886418269
 20
-42.4264068712
 10
14.6886418269
 20
-42.4264068712
 10
12.8467948718
 20
-40.7948964545
 10
12.8467948718
 20
-40.7948964545
 10
12.8467948718
 20
-42.4264068712
 10
12.8467948718
 20
-42.4264068712
 10
12.4429487179
 20
-42.4264068712
 10
12.4429487179
 20
-42.4264068712
 10
12.4429487179
 20
-38.9264068712
  0
LWPOLYLINE
  5
7D
330
1F
100
AcDbEntity
  8
0
  6
Continuous
 62
     7
100
AcDbPolyline
 90
       24
 70
   128
 43
0.0
 10
16.5083259344
 20
-38.9264068712
 10
18.8865384615
 20
-38.9264068712
 10
18.8865384615
 20
-38.9264068712
 10
18.8865384615
 20
-39.2853812302
 10
18.8865384615
 20
-39.2853812302
 10
16.9121794872
 20
-39.2853812302
 10
16.9121794872
 20
-39.2853812302
 10
16.9121794872
 20
-40.3623043071
 10
16.9121794872
 20
-40.3623043071
 10
18.8865384615
 20
-40.3623043071
 10
18.8865384615
 20
-40.3623043071
 10
18.8865384615
 20
-40.7212786661
 10
18.8865384615
 20
-40.7212786661
 10
16.9121794872
 20
-40.7212786661
 10
16.9121794872
 20
-40.7212786661
 10
16.9121794872
 20
-42.0674325122
 10
16.9121794872
 20
-42.0674325122
 10
18.8865384615
 20
-42.0674325122
 10
18.8865384615
 20
-42.0674325122
 10
18.8865384615
 20
-42.4264068712
 10
18.8865384615
 20
-42.4264068712
 10
16.5083333333
 20
-42.4264068712
 10
16.5083333333
 20
-42.4264068712
 10
16.5083333333
 20
-38.9264068712
  0
LWPOLYLINE
  5
7E
330
1F
100
AcDbEntity
  8
0
  6
Continuous
 62
     7
100
AcDbPolyline
 90
       16
 70
   128
 43
0.0
 10
19.8557674885
 20
-39.2853812302
 10
19.8557692308
 20
-38.9264068712
 10
19.8557692308
 20
-38.9264068712
 10
22.1442307692
 20
-38.9264068712
 10
22.1442307692
 20
-38.9264068712
 10
22.1442307692
 20
-39.2853812302
 10
22.1442307692
 20
-39.2853812302
 10
21.2019230769
 20
-39.2853812302
 10
21.2019230769
 20
-39.2853812302
 10
21.2019230769
 20
-42.4264068712
 10
21.2019230769
 20
-42.4264068712
 10
20.7980769231
 20
-42.4264068712
 10
20.7980769231
 20
-42.4264068712
 10
20.7980769231
 20
-39.2853812302
 10
20.7980769231
 20
-39.2853812302
 10
19.8557692308
 20
-39.2853812302
  0
LWPOLYLINE
  5
7F
330
1F
100
AcDbEntity
  8
0
  6
Continuous
 62
     7
100
AcDbPolyline
 90
       67
 70
   128
 43
0.0
 10
23.382678628
 20
-38.9264068712
 10
24.2114182692
 20
-38.9264068712
 10
24.2114182692
 20
-38.9264068712
 10
24.3775841346
 20
-38.927107993
 10
24.5304286859
 20
-38.9292113584
 10
24.6685496795
 20
-38.9334180891
 10
24.793349359
 20
-38.9383259417
 10
24.9034254808
 20
-38.9453371597
 10
25.0001802885
 20
-38.9530494994
 10
25.0822115385
 20
-38.9628652045
 10
25.1509214744
 20
-38.9740831532
 10
25.1509214744
 20
-38.9740831532
 10
25.2413661859
 20
-38.9944156853
 10
25.3276041667
 20
-39.0203571917
 10
25.4089342949
 20
-39.0512065507
 10
25.4867588141
 20
-39.0869637622
 10
25.5596754808
 20
-39.1283299481
 10
25.6283854167
 20
-39.1746039866
 10
25.6928886218
 20
-39.2257858776
 10
25.7531850962
 20
-39.282576743
 10
25.8078725962
 20
-39.3428732173
 10
25.8548477564
 20
-39.4073764225
 10
25.8948116987
 20
-39.4746841148
 10
25.9270633013
 20
-39.5454974161
 10
25.9523036859
 20
-39.6198163263
 10
25.9705328526
 20
-39.6969397238
 10
25.9817508013
 20
-39.778269852
 10
25.9852564103
 20
-39.8624044673
 10
25.9852564103
 20
-39.8624044673
 10
25.9824519231
 20
-39.9332177686
 10
25.9754407051
 20
-40.0019277045
 10
25.9628205128
 20
-40.068534275
 10
25.9452924679
 20
-40.1323363584
 10
25.9221554487
 20
-40.1947361981
 10
25.8948116987
 20
-40.2543315507
 10
25.8618589744
 20
-40.3125246597
 10
25.8239983974
 20
-40.3679132814
 10
25.7812299679
 20
-40.4204974161
 10
25.7349559295
 20
-40.4702770635
 10
25.6837740385
 20
-40.516551102
 10
25.6283854167
 20
-40.5593195314
 10
25.5680889423
 20
-40.598582352
 10
25.504286859
 20
-40.6350406853
 10
25.4355769231
 20
-40.6679934097
 10
25.3626602564
 20
-40.697440525
 10
25.2841346154
 20
-40.7233820314
 10
25.1985977564
 20
-40.7465190507
 10
25.1060496795
 20
-40.7654493391
 10
25.0064903846
 20
-40.7815751404
 10
24.89921875
 20
-40.7941953327
 10
24.7849358974
 20
-40.8033099161
 10
24.6636418269
 20
-40.8089188904
 10
24.5353365385
 20
-40.8110222558
 10
24.5353365385
 20
-40.8110222558
 10
26.0301282051
 20
-42.4264068712
 10
26.0301282051
 20
-42.4264068712
 10
25.5183092949
 20
-42.4264068712
 10
25.5183092949
 20
-42.4264068712
 10
24.02421875
 20
-40.8110222558
 10
24.02421875
 20
-40.8110222558
 10
23.7865384615
 20
-40.8110222558
 10
23.7865384615
 20
-40.8110222558
 10
23.7865384615
 20
-42.4264068712
 10
23.7865384615
 20
-42.4264068712
 10
23.3826923077
 20
-42.4264068712
 10
23.3826923077
 20
-42.4264068712
 10
23.3826923077
 20
-38.9264068712
  0
LWPOLYLINE
  5
80
330
1F
100
AcDbEntity
  8
0
  6
Continuous
 62
     7
100
AcDbPolyline
 90
       40
 70
   128
 43
0.0
 10
23.7865298986
 20
-39.2853812302
 10
23.7865384615
 20
-40.4520478968
 10
23.7865384615
 20
-40.4520478968
 10
24.5192107372
 20
-40.4569557494
 10
24.5192107372
 20
-40.4569557494
 10
24.622275641
 20
-40.4562546276
 10
24.7183293269
 20
-40.4527490186
 10
24.8073717949
 20
-40.4478411661
 10
24.8894030449
 20
-40.4408299481
 10
24.9644230769
 20
-40.4317153648
 10
25.0331330128
 20
-40.4204974161
 10
25.094130609
 20
-40.407176102
 10
25.148818109
 20
-40.3917514225
 10
25.2455729167
 20
-40.3538908456
 10
25.3304086538
 20
-40.3069156853
 10
25.4047275641
 20
-40.2494236981
 10
25.4671274038
 20
-40.1828171276
 10
25.5169070513
 20
-40.1084982173
 10
25.5526642628
 20
-40.0306736981
 10
25.5743990385
 20
-39.9479413263
 10
25.5814102564
 20
-39.8617033456
 10
25.5814102564
 20
-39.8617033456
 10
25.5743990385
 20
-39.7775687302
 10
25.5526642628
 20
-39.6969397238
 10
25.5162059295
 20
-39.6205174481
 10
25.4657251603
 20
-39.5483019032
 10
25.4033253205
 20
-39.4823964545
 10
25.3318108974
 20
-39.4270078327
 10
25.251181891
 20
-39.3814349161
 10
25.1614383013
 20
-39.3463788263
 10
25.1102564103
 20
-39.3323563904
 10
25.0520633013
 20
-39.3197361981
 10
24.9854567308
 20
-39.3092193712
 10
24.9111378205
 20
-39.3008059097
 10
24.8291065705
 20
-39.2937946917
 10
24.7393629808
 20
-39.2888868391
 10
24.6412059295
 20
-39.286082352
 10
24.5360376603
 20
-39.2853812302
 10
24.5360376603
 20
-39.2853812302
 10
23.7865384615
 20
-39.2853812302
  0
LWPOLYLINE
  5
81
330
1F
100
AcDbEntity
  8
0
  6
Continuous
 62
     7
100
AcDbPolyline
 90
       18
 70
   128
 43
0.0
 10
27.2237062454
 20
-38.9264068712
 10
27.6976762821
 20
-38.9264068712
 10
27.6976762821
 20
-38.9264068712
 10
28.77109375
 20
-40.3903491789
 10
28.77109375
 20
-40.3903491789
 10
29.8452123397
 20
-38.9264068712
 10
29.8452123397
 20
-38.9264068712
 10
30.3198717949
 20
-38.9264068712
 10
30.3198717949
 20
-38.9264068712
 10
28.9737179487
 20
-40.762644852
 10
28.9737179487
 20
-40.762644852
 10
28.9737179487
 20
-42.4264068712
 10
28.9737179487
 20
-42.4264068712
 10
28.5698717949
 20
-42.4264068712
 10
28.5698717949
 20
-42.4264068712
 10
28.5698717949
 20
-40.762644852
 10
28.5698717949
 20
-40.762644852
 10
27.2237179487
 20
-38.9264068712
  0
POINT
  5
82
330
1F
100
AcDbEntity
  8
0
  6
Continuous
 62
     7
100
AcDbPoint
 10
0.0
 20
0.0
 30
0.0
  0
POINT
  5
83
330
1F
100
AcDbEntity
  8
0
  6
Continuous
 62
     7
100
AcDbPoint
 10
0.0
 20
0.0
 30
0.0
  0
ENDSEC
  0
SECTION
  2
OBJECTS
  0
DICTIONARY
  5
C
330
0
100
AcDbDictionary
281
     1
  3
ACAD_GROUP
350
D
  3
ACAD_LAYOUT
350
1A
  3
ACAD_MLINESTYLE
350
17
  3
ACAD_PLOTSETTINGS
350
19
  3
ACAD_PLOTSTYLENAME
350
E
  3
ACAD_SCALELIST
350
47
  3
DWGPROPS
350
84
  0
DICTIONARY
  5
D
102
{ACAD_REACTORS
330
C
102
}
330
C
100
AcDbDictionary
281
     1
  0
DICTIONARY
  5
1A
102
{ACAD_REACTORS
330
C
102
}
330
C
100
AcDbDictionary
281
     1
  3
Layout1
350
1E
  3
Layout2
350
26
  3
Model
350
22
  0
DICTIONARY
  5
17
102
{ACAD_REACTORS
330
C
102
}
330
C
100
AcDbDictionary
281
     1
  3
Standard
350
18
  0
DICTIONARY
  5
19
102
{ACAD_REACTORS
330
C
102
}
330
C
100
AcDbDictionary
281
     1
  0
ACDBDICTIONARYWDFLT
  5
E
102
{ACAD_REACTORS
330
C
102
}
330
C
100
AcDbDictionary
281
     1
  3
Normal
350
F
100
AcDbDictionaryWithDefault
340
F
  0
DICTIONARY
  5
47
102
{ACAD_REACTORS
330
C
102
}
330
C
100
AcDbDictionary
281
     1
  3
A0
350
48
  3
A1
350
49
  3
A2
350
4A
  3
A3
350
4B
  3
A4
350
4C
  3
A5
350
4D
  3
A6
350
4E
  3
A7
350
4F
  3
A8
350
50
  3
A9
350
51
  3
B0
350
52
  3
B1
350
53
  3
B2
350
54
  3
B3
350
55
  3
B4
350
56
  3
B5
350
57
  3
B6
350
58
  0
XRECORD
  5
84
102
{ACAD_REACTORS
330
C
102
}
330
C
100
AcDbXrecord
280
     1
  1
DWGPROPS COOKIE
  2

  3

  4

  6

  7

  8
vijay
  9

300
=
301
=
302
=
303
=
304
=
305
=
306
=
307
=
308
=
309
=
 40
0.0
 41
2460698.465113287
 42
2460698.465174584
  1

 90
        0
  0
LAYOUT
  5
1E
102
{ACAD_REACTORS
330
1A
102
}
330
1A
100
AcDbPlotSettings
  1

  2
none_device
  4

  6

 40
0.0
 41
0.0
 42
0.0
 43
0.0
 44
0.0
 45
0.0
 46
0.0
 47
0.0
 48
0.0
 49
0.0
140
0.0
141
0.0
142
1.0
143
1.0
 70
   688
 72
     1
 73
     0
 74
     5
  7

 75
    16
147
1.0
148
0.0
149
0.0
100
AcDbLayout
  1
Layout1
 70
     1
 71
     1
 10
0.0
 20
0.0
 11
420.0
 21
297.0
 12
0.0
 22
0.0
 32
0.0
 14
1.0000000000E+20
 24
1.0000000000E+20
 34
1.0000000000E+20
 15
-1.0000000000E+20
 25
-1.0000000000E+20
 35
-1.0000000000E+20
146
0.0
 13
0.0
 23
0.0
 33
0.0
 16
1.0
 26
0.0
 36
0.0
 17
0.0
 27
1.0
 37
0.0
 76
     0
330
1B
  0
LAYOUT
  5
26
102
{ACAD_REACTORS
330
1A
102
}
330
1A
100
AcDbPlotSettings
  1

  2
none_device
  4

  6

 40
0.0
 41
0.0
 42
0.0
 43
0.0
 44
0.0
 45
0.0
 46
0.0
 47
0.0
 48
0.0
 49
0.0
140
0.0
141
0.0
142
1.0
143
1.0
 70
   688
 72
     1
 73
     0
 74
     5
  7

 75
    16
147
1.0
148
0.0
149
0.0
100
AcDbLayout
  1
Layout2
 70
     1
 71
     2
 10
0.0
 20
0.0
 11
0.0
 21
0.0
 12
0.0
 22
0.0
 32
0.0
 14
0.0
 24
0.0
 34
0.0
 15
0.0
 25
0.0
 35
0.0
146
0.0
 13
0.0
 23
0.0
 33
0.0
 16
1.0
 26
0.0
 36
0.0
 17
0.0
 27
1.0
 37
0.0
 76
     0
330
23
  0
LAYOUT
  5
22
102
{ACAD_REACTORS
330
1A
102
}
330
1A
100
AcDbPlotSettings
  1

  2
none_device
  4
ANSI_A_(11.00_x_8.50_Inches)
  6

 40
6.35
 41
19.05
 42
6.35000508
 43
19.05000254
 44
279.4
 45
215.9
 46
133.34999746
 47
88.89999873
 48
0.0
 49
0.0
140
0.0
141
0.0
142
0.08415
143
1.0
 70
  1696
 72
     0
 73
     0
 74
     0
  7

 75
     0
147
0.0179189148
148
-1300.4909072572
149
0.0
100
AcDbLayout
  1
Model
 70
     1
 71
     0
 10
0.0
 20
0.0
 11
420.0
 21
297.0
 12
0.0
 22
0.0
 32
0.0
 14
-50.0
 24
-50.0
 34
0.0
 15
50.0
 25
50.0
 35
0.0
146
0.0
 13
0.0
 23
0.0
 33
0.0
 16
1.0
 26
0.0
 36
0.0
 17
0.0
 27
1.0
 37
0.0
 76
     0
330
1F
331
29
  0
MLINESTYLE
  5
18
102
{ACAD_REACTORS
330
17
102
}
330
17
100
AcDbMlineStyle
  2
Standard
 70
     0
  3

 62
   256
 51
90.0
 52
90.0
 71
     2
 49
0.5
 62
   256
  6
BYLAYER
 49
-0.5
 62
   256
  6
BYLAYER
  0
ACDBPLACEHOLDER
  5
F
102
{ACAD_REACTORS
330
E
102
}
330
E
  0
SCALE
  5
48
102
{ACAD_REACTORS
330
47
102
}
330
47
100
AcDbScale
 70
     0
300
1:1
140
1.0
141
1.0
290
     1
  0
SCALE
  5
49
102
{ACAD_REACTORS
330
47
102
}
330
47
100
AcDbScale
 70
     0
300
1:2
140
1.0
141
2.0
290
     0
  0
SCALE
  5
4A
102
{ACAD_REACTORS
330
47
102
}
330
47
100
AcDbScale
 70
     0
300
1:4
140
1.0
141
4.0
290
     0
  0
SCALE
  5
4B
102
{ACAD_REACTORS
330
47
102
}
330
47
100
AcDbScale
 70
     0
300
1:5
140
1.0
141
5.0
290
     0
  0
SCALE
  5
4C
102
{ACAD_REACTORS
330
47
102
}
330
47
100
AcDbScale
 70
     0
300
1:8
140
1.0
141
8.0
290
     0
  0
SCALE
  5
4D
102
{ACAD_REACTORS
330
47
102
}
330
47
100
AcDbScale
 70
     0
300
1:10
140
1.0
141
10.0
290
     0
  0
SCALE
  5
4E
102
{ACAD_REACTORS
330
47
102
}
330
47
100
AcDbScale
 70
     0
300
1:16
140
1.0
141
16.0
290
     0
  0
SCALE
  5
4F
102
{ACAD_REACTORS
330
47
102
}
330
47
100
AcDbScale
 70
     0
300
1:20
140
1.0
141
20.0
290
     0
  0
SCALE
  5
50
102
{ACAD_REACTORS
330
47
102
}
330
47
100
AcDbScale
 70
     0
300
1:30
140
1.0
141
30.0
290
     0
  0
SCALE
  5
51
102
{ACAD_REACTORS
330
47
102
}
330
47
100
AcDbScale
 70
     0
300
1:40
140
1.0
141
40.0
290
     0
  0
SCALE
  5
52
102
{ACAD_REACTORS
330
47
102
}
330
47
100
AcDbScale
 70
     0
300
1:50
140
1.0
141
50.0
290
     0
  0
SCALE
  5
53
102
{ACAD_REACTORS
330
47
102
}
330
47
100
AcDbScale
 70
     0
300
1:100
140
1.0
141
100.0
290
     0
  0
SCALE
  5
54
102
{ACAD_REACTORS
330
47
102
}
330
47
100
AcDbScale
 70
     0
300
2:1
140
2.0
141
1.0
290
     0
  0
SCALE
  5
55
102
{ACAD_REACTORS
330
47
102
}
330
47
100
AcDbScale
 70
     0
300
4:1
140
4.0
141
1.0
290
     0
  0
SCALE
  5
56
102
{ACAD_REACTORS
330
47
102
}
330
47
100
AcDbScale
 70
     0
300
8:1
140
8.0
141
1.0
290
     0
  0
SCALE
  5
57
102
{ACAD_REACTORS
330
47
102
}
330
47
100
AcDbScale
 70
     0
300
10:1
140
10.0
141
1.0
290
     0
  0
SCALE
  5
58
102
{ACAD_REACTORS
330
47
102
}
330
47
100
AcDbScale
 70
     0
300
100:1
140
100.0
141
1.0
290
     0
  0
ENDSEC
  0
EOF
