  0
SECTION
  2
HEADER
  9
$ACADVER
  1
AC1015
  9
$ACADMAINTVER
 70
     6
  9
$DWGCODEPAGE
  3
ANSI_1252
  9
$INSBASE
 10
0.0
 20
0.0
 30
0.0
  9
$EXTMIN
 10
-72.0
 20
-72.0
 30
0.0
  9
$EXTMAX
 10
72.0
 20
72.0
 30
0.0
  9
$LIMMIN
 10
0.0
 20
0.0
  9
$LIMMAX
 10
420.0
 20
297.0
  9
$ORTHOMODE
 70
     0
  9
$REGENMODE
 70
     1
  9
$FILLMODE
 70
     1
  9
$QTEXTMODE
 70
     0
  9
$MIRRTEXT
 70
     1
  9
$LTSCALE
 40
1.0
  9
$ATTMODE
 70
     1
  9
$TEXTSIZE
 40
3.5
  9
$TRACEWID
 40
1.0
  9
$TEXTSTYLE
  7
Standard
  9
$CLAYER
  8
0
  9
$CELTYPE
  6
ByLayer
  9
$CECOLOR
 62
   256
  9
$CELTSCALE
 40
1.0
  9
$DISPSILH
 70
     0
  9
$DIMSCALE
 40
1.0
  9
$DIMASZ
 40
3.302
  9
$DIMEXO
 40
0.0
  9
$DIMDLI
 40
3.75
  9
$DIMRND
 40
0.0
  9
$DIMDLE
 40
0.0
  9
$DIMEXE
 40
1.0
  9
$DIMTP
 40
0.0
  9
$DIMTM
 40
0.0
  9
$DIMTXT
 40
3.5
  9
$DIMCEN
 40
2.5
  9
$DIMTSZ
 40
0.0
  9
$DIMTOL
 70
     0
  9
$DIMLIM
 70
     0
  9
$DIMTIH
 70
     1
  9
$DIMTOH
 70
     1
  9
$DIMSE1
 70
     0
  9
$DIMSE2
 70
     0
  9
$DIMTAD
 70
     1
  9
$DIMZIN
 70
     1
  9
$DIMBLK
  1

  9
$DIMASO
 70
     1
  9
$DIMSHO
 70
     1
  9
$DIMPOST
  1

  9
$DIMAPOST
  1

  9
$DIMALT
 70
     0
  9
$DIMALTD
 70
     3
  9
$DIMALTF
 40
0.0393700787
  9
$DIMLFAC
 40
1.0
  9
$DIMTOFL
 70
     1
  9
$DIMTVP
 40
0.0
  9
$DIMTIX
 70
     0
  9
$DIMSOXD
 70
     0
  9
$DIMSAH
 70
     0
  9
$DIMBLK1
  1

  9
$DIMBLK2
  1

  9
$DIMSTYLE
  2
ISO-25
  9
$DIMCLRD
 70
     0
  9
$DIMCLRE
 70
     0
  9
$DIMCLRT
 70
     0
  9
$DIMTFAC
 40
1.0
  9
$DIMGAP
 40
1.524
  9
$DIMJUST
 70
     0
  9
$DIMSD1
 70
     0
  9
$DIMSD2
 70
     0
  9
$DIMTOLJ
 70
     0
  9
$DIMTZIN
 70
     1
  9
$DIMALTZ
 70
     0
  9
$DIMALTTZ
 70
     0
  9
$DIMUPT
 70
     0
  9
$DIMDEC
 70
     2
  9
$DIMTDEC
 70
     2
  9
$DIMALTU
 70
     2
  9
$DIMALTTD
 70
     3
  9
$DIMTXSTY
  7
Standard
  9
$DIMAUNIT
 70
     0
  9
$DIMADEC
 70
     2
  9
$DIMALTRND
 40
0.0
  9
$DIMAZIN
 70
     0
  9
$DIMDSEP
 70
    44
  9
$DIMATFIT
 70
     3
  9
$DIMFRAC
 70
     0
  9
$DIMLDRBLK
  1

  9
$DIMLUNIT
 70
     2
  9
$DIMLWD
 70
    -2
  9
$DIMLWE
 70
    -2
  9
$DIMTMOVE
 70
     0
  9
$LUNITS
 70
     2
  9
$LUPREC
 70
     2
  9
$SKETCHINC
 40
1.0
  9
$FILLETRAD
 40
0.0
  9
$AUNITS
 70
     0
  9
$AUPREC
 70
     2
  9
$MENU
  1
.
  9
$ELEVATION
 40
0.0
  9
$PELEVATION
 40
0.0
  9
$THICKNESS
 40
0.0
  9
$LIMCHECK
 70
     0
  9
$CHAMFERA
 40
0.0
  9
$CHAMFERB
 40
0.0
  9
$CHAMFERC
 40
0.0
  9
$CHAMFERD
 40
0.0
  9
$SKPOLY
 70
     0
  9
$TDCREATE
 40
2460684.808864931
  9
$TDUCREATE
 40
2460684.579698264
  9
$TDUPDATE
 40
2460684.808928993
  9
$TDUUPDATE
 40
2460684.579762327
  9
$TDINDWG
 40
0.0000000116
  9
$TDUSRTIMER
 40
0.0000000116
  9
$USRTIMER
 70
     1
  9
$ANGBASE
 50
0.0
  9
$ANGDIR
 70
     0
  9
$PDMODE
 70
     0
  9
$PDSIZE
 40
-1.0
  9
$PLINEWID
 40
0.0
  9
$SPLFRAME
 70
     0
  9
$SPLINETYPE
 70
     6
  9
$SPLINESEGS
 70
     8
  9
$HANDSEED
  5
84
  9
$SURFTAB1
 70
     6
  9
$SURFTAB2
 70
     6
  9
$SURFTYPE
 70
     6
  9
$SURFU
 70
     6
  9
$SURFV
 70
     6
  9
$UCSBASE
  2

  9
$UCSNAME
  2

  9
$UCSORG
 10
0.0
 20
0.0
 30
0.0
  9
$UCSXDIR
 10
1.0
 20
0.0
 30
0.0
  9
$UCSYDIR
 10
0.0
 20
1.0
 30
0.0
  9
$UCSORTHOREF
  2

  9
$UCSORTHOVIEW
 70
     0
  9
$UCSORGTOP
 10
0.0
 20
0.0
 30
0.0
  9
$UCSORGBOTTOM
 10
0.0
 20
0.0
 30
0.0
  9
$UCSORGLEFT
 10
0.0
 20
0.0
 30
0.0
  9
$UCSORGRIGHT
 10
0.0
 20
0.0
 30
0.0
  9
$UCSORGFRONT
 10
0.0
 20
0.0
 30
0.0
  9
$UCSORGBACK
 10
0.0
 20
0.0
 30
0.0
  9
$PUCSBASE
  2

  9
$PUCSNAME
  2

  9
$PUCSORG
 10
0.0
 20
0.0
 30
0.0
  9
$PUCSXDIR
 10
1.0
 20
0.0
 30
0.0
  9
$PUCSYDIR
 10
0.0
 20
1.0
 30
0.0
  9
$PUCSORTHOREF
  2

  9
$PUCSORTHOVIEW
 70
     0
  9
$PUCSORGTOP
 10
0.0
 20
0.0
 30
0.0
  9
$PUCSORGBOTTOM
 10
0.0
 20
0.0
 30
0.0
  9
$PUCSORGLEFT
 10
0.0
 20
0.0
 30
0.0
  9
$PUCSORGRIGHT
 10
0.0
 20
0.0
 30
0.0
  9
$PUCSORGFRONT
 10
0.0
 20
0.0
 30
0.0
  9
$PUCSORGBACK
 10
0.0
 20
0.0
 30
0.0
  9
$USERI1
 70
     0
  9
$USERI2
 70
     0
  9
$USERI3
 70
     0
  9
$USERI4
 70
     0
  9
$USERI5
 70
     0
  9
$USERR1
 40
0.0
  9
$USERR2
 40
0.0
  9
$USERR3
 40
0.0
  9
$USERR4
 40
0.0
  9
$USERR5
 40
0.0
  9
$WORLDVIEW
 70
     1
  9
$SHADEDGE
 70
     3
  9
$SHADEDIF
 70
    70
  9
$TILEMODE
 70
     1
  9
$MAXACTVP
 70
    64
  9
$PINSBASE
 10
0.0
 20
0.0
 30
0.0
  9
$PLIMCHECK
 70
     0
  9
$PEXTMIN
 10
1.0000000000E+20
 20
1.0000000000E+20
 30
1.0000000000E+20
  9
$PEXTMAX
 10
-1.0000000000E+20
 20
-1.0000000000E+20
 30
-1.0000000000E+20
  9
$PLIMMIN
 10
0.0
 20
0.0
  9
$PLIMMAX
 10
420.0
 20
297.0
  9
$UNITMODE
 70
     0
  9
$VISRETAIN
 70
     1
  9
$PLINEGEN
 70
     0
  9
$PSLTSCALE
 70
     1
  9
$TREEDEPTH
 70
  3020
  9
$CMLSTYLE
  2
Standard
  9
$CMLJUST
 70
     0
  9
$CMLSCALE
 40
20.0
  9
$PROXYGRAPHICS
 70
     1
  9
$MEASUREMENT
 70
     1
  9
$CELWEIGHT
370
    -1
  9
$ENDCAPS
280
     0
  9
$JOINSTYLE
280
     0
  9
$LWDISPLAY
290
     1
  9
$INSUNITS
 70
     4
  9
$HYPERLINKBASE
  1

  9
$STYLESHEET
  1

  9
$XEDIT
290
     1
  9
$CEPSNTYPE
380
     0
  9
$PSTYLEMODE
290
     1
  9
$FINGERPRINTGUID
  2
{efa3b431-a727-433f-910f-dc9e037f57e9}
  9
$VERSIONGUID
  2
{FAEB1C32-E019-11D5-929B-00C0DF256EC4}
  9
$EXTNAMES
290
     1
  9
$PSVPSCALE
 40
0.0
  9
$OLESTARTUP
290
     0
  0
ENDSEC
  0
SECTION
  2
CLASSES
  0
CLASS
  1
ACDBDICTIONARYWDFLT
  2
AcDbDictionaryWithDefault
  3
ObjectDBX Classes
 90
        0
280
     0
281
     0
  0
CLASS
  1
VISUALSTYLE
  2
AcDbVisualStyle
  3
ObjectDBX Classes
 90
     4095
280
     0
281
     0
  0
CLASS
  1
MATERIAL
  2
AcDbMaterial
  3
ObjectDBX Classes
 90
     1153
280
     0
281
     0
  0
CLASS
  1
SCALE
  2
AcDbScale
  3
ObjectDBX Classes
 90
     1153
280
     0
281
     0
  0
CLASS
  1
TABLESTYLE
  2
AcDbTableStyle
  3
ObjectDBX Classes
 90
     4095
280
     0
281
     0
  0
CLASS
  1
MLEADERSTYLE
  2
AcDbMLeaderStyle
  3
ACDB_MLEADERSTYLE_CLASS
 90
     4095
280
     0
281
     0
  0
CLASS
  1
SUN
  2
AcDbSun
  3
SCENEOE
 90
     1153
280
     0
281
     0
  0
CLASS
  1
ACDBPLACEHOLDER
  2
AcDbPlaceHolder
  3
ObjectDBX Classes
 90
        0
280
     0
281
     0
  0
CLASS
  1
LAYOUT
  2
AcDbLayout
  3
ObjectDBX Classes
 90
        0
280
     0
281
     0
  0
ENDSEC
  0
SECTION
  2
TABLES
  0
TABLE
  2
VPORT
  5
8
330
0
100
AcDbSymbolTable
 70
     1
  0
VPORT
  5
29
330
8
100
AcDbSymbolTableRecord
100
AcDbViewportTableRecord
  2
*Active
 70
     0
 10
0.0
 20
0.0
 11
1.0
 21
1.0
 12
0.0
 22
0.0
 13
0.0
 23
0.0
 14
10.0
 24
10.0
 15
10.0
 25
10.0
 16
0.0
 26
0.0
 36
1.0
 17
0.0
 27
0.0
 37
0.0
 40
146.88
 41
1.0
 42
50.0
 43
0.0
 44
0.0
 50
0.0
 51
0.0
 71
     0
 72
   100
 73
     1
 74
     3
 75
     0
 76
     0
 77
     0
 78
     0
281
     0
 65
     1
110
0.0
120
0.0
130
0.0
111
1.0
121
0.0
131
0.0
112
0.0
122
1.0
132
0.0
 79
     0
146
0.0
  0
ENDTAB
  0
TABLE
  2
LTYPE
  5
5
330
0
100
AcDbSymbolTable
 70
     6
  0
LTYPE
  5
14
330
5
100
AcDbSymbolTableRecord
100
AcDbLinetypeTableRecord
  2
ByBlock
 70
     0
  3

 72
    65
 73
     0
 40
0.0
  0
LTYPE
  5
15
330
5
100
AcDbSymbolTableRecord
100
AcDbLinetypeTableRecord
  2
ByLayer
 70
     0
  3

 72
    65
 73
     0
 40
0.0
  0
LTYPE
  5
16
330
5
100
AcDbSymbolTableRecord
100
AcDbLinetypeTableRecord
  2
Continuous
 70
     0
  3
Solid line
 72
    65
 73
     0
 40
0.0
  0
LTYPE
  5
5E
330
5
100
AcDbSymbolTableRecord
100
AcDbLinetypeTableRecord
  2
HIDDEN
 70
     0
  3
Hidden __ __ __ __ __ __ __ __ __ __ __ __ __ __
 72
    65
 73
     2
 40
1.905
 49
1.27
 74
     0
 49
-0.635
 74
     0
  0
LTYPE
  5
5F
330
5
100
AcDbSymbolTableRecord
100
AcDbLinetypeTableRecord
  2
PHANTOM
 70
     0
  3
Phantom ______  __  __  ______  __  __  ______
 72
    65
 73
     6
 40
12.7
 49
6.35
 74
     0
 49
-1.27
 74
     0
 49
1.27
 74
     0
 49
-1.27
 74
     0
 49
1.27
 74
     0
 49
-1.27
 74
     0
  0
LTYPE
  5
60
330
5
100
AcDbSymbolTableRecord
100
AcDbLinetypeTableRecord
  2
CENTER
 70
     0
  3
Center ____ _ ____ _ ____ _ ____ _ ____ _ ____
 72
    65
 73
     4
 40
10.16
 49
6.35
 74
     0
 49
-1.27
 74
     0
 49
1.27
 74
     0
 49
-1.27
 74
     0
  0
LTYPE
  5
61
330
5
100
AcDbSymbolTableRecord
100
AcDbLinetypeTableRecord
  2
CENTERX2
 70
     0
  3
Center (2x) ________  __  ________  __  _____
 72
    65
 73
     4
 40
20.32
 49
12.7
 74
     0
 49
-2.54
 74
     0
 49
2.54
 74
     0
 49
-2.54
 74
     0
  0
LTYPE
  5
62
330
5
100
AcDbSymbolTableRecord
100
AcDbLinetypeTableRecord
  2
DOT2
 70
     0
  3
Dot (.5x) ........................................
 72
    65
 73
     2
 40
0.635
 49
0.0
 74
     0
 49
-0.635
 74
     0
  0
ENDTAB
  0
TABLE
  2
LAYER
  5
2
330
0
100
AcDbSymbolTable
 70
     1
  0
LAYER
  5
10
330
2
100
AcDbSymbolTableRecord
100
AcDbLayerTableRecord
  2
0
 70
     0
 62
     7
  6
Continuous
370
    -3
390
F
  0
ENDTAB
  0
TABLE
  2
STYLE
  5
3
330
0
100
AcDbSymbolTable
 70
     1
  0
STYLE
  5
11
330
3
100
AcDbSymbolTableRecord
100
AcDbTextStyleTableRecord
  2
Standard
 70
     0
 40
0.0
 41
1.0
 50
0.0
 71
     0
 42
3.5
  3
txt
  4

  0
ENDTAB
  0
TABLE
  2
VIEW
  5
6
330
0
100
AcDbSymbolTable
 70
     0
  0
ENDTAB
  0
TABLE
  2
UCS
  5
7
330
0
100
AcDbSymbolTable
 70
     0
  0
ENDTAB
  0
TABLE
  2
APPID
  5
9
330
0
100
AcDbSymbolTable
 70
     1
  0
APPID
  5
12
330
9
100
AcDbSymbolTableRecord
100
AcDbRegAppTableRecord
  2
ACAD
 70
     0
  0
ENDTAB
  0
TABLE
  2
DIMSTYLE
  5
A
330
0
100
AcDbSymbolTable
 70
     1
100
AcDbDimStyleTable
  0
DIMSTYLE
105
27
330
A
100
AcDbSymbolTableRecord
100
AcDbDimStyleTableRecord
  2
ISO-25
 70
     0
 41
2.5
 42
0.625
 43
3.75
 44
1.25
 73
     0
 74
     0
 77
     1
 78
     8
140
2.5
141
2.5
143
0.0393700787
147
0.625
171
     3
172
     1
178
     0
271
     2
272
     2
274
     3
278
    44
283
     0
284
     8
340
11
  0
ENDTAB
  0
TABLE
  2
BLOCK_RECORD
  5
1
330
0
100
AcDbSymbolTable
 70
     1
  0
BLOCK_RECORD
  5
1F
330
1
100
AcDbSymbolTableRecord
100
AcDbBlockTableRecord
  2
*Model_Space
340
22
  0
BLOCK_RECORD
  5
1B
330
1
100
AcDbSymbolTableRecord
100
AcDbBlockTableRecord
  2
*Paper_Space
340
1E
  0
BLOCK_RECORD
  5
23
330
1
100
AcDbSymbolTableRecord
100
AcDbBlockTableRecord
  2
*Paper_Space0
340
26
  0
ENDTAB
  0
ENDSEC
  0
SECTION
  2
BLOCKS
  0
BLOCK
  5
20
330
1F
100
AcDbEntity
  8
0
100
AcDbBlockBegin
  2
*Model_Space
 70
     0
 10
0.0
 20
0.0
 30
0.0
  3
*Model_Space
  1

  0
ENDBLK
  5
21
330
1F
100
AcDbEntity
  8
0
100
AcDbBlockEnd
  0
BLOCK
  5
1C
330
1B
100
AcDbEntity
 67
     1
  8
0
100
AcDbBlockBegin
  2
*Paper_Space
 70
     0
 10
0.0
 20
0.0
 30
0.0
  3
*Paper_Space
  1

  0
ENDBLK
  5
1D
330
1B
100
AcDbEntity
 67
     1
  8
0
100
AcDbBlockEnd
  0
BLOCK
  5
24
330
23
100
AcDbEntity
  8
0
100
AcDbBlockBegin
  2
*Paper_Space0
 70
     0
 10
0.0
 20
0.0
 30
0.0
  3
*Paper_Space0
  1

  0
ENDBLK
  5
25
330
23
100
AcDbEntity
  8
0
100
AcDbBlockEnd
  0
ENDSEC
  0
SECTION
  2
ENTITIES
  0
CIRCLE
  5
63
330
1F
100
AcDbEntity
  8
0
  6
Continuous
 62
     7
100
AcDbCircle
 10
0.0
 20
0.0
 30
0.0
 40
72.0
  0
CIRCLE
  5
64
330
1F
100
AcDbEntity
  8
0
  6
Continuous
 62
     7
100
AcDbCircle
 10
0.0
 20
55.0
 30
0.0
 40
2.000000000000002
  0
CIRCLE
  5
65
330
1F
100
AcDbEntity
  8
0
  6
Continuous
 62
     7
100
AcDbCircle
 10
55.0
 20
0.0
 30
0.0
 40
2.000000000000002
  0
CIRCLE
  5
66
330
1F
100
AcDbEntity
  8
0
  6
Continuous
 62
     7
100
AcDbCircle
 10
0.0
 20
-55.0
 30
0.0
 40
2.000000000000002
  0
CIRCLE
  5
67
330
1F
100
AcDbEntity
  8
0
  6
Continuous
 62
     7
100
AcDbCircle
 10
-55.0
 20
0.0
 30
0.0
 40
2.000000000000002
  0
ARC
  5
68
330
1F
100
AcDbEntity
  8
0
  6
CENTERX2
 62
     7
100
AcDbCircle
 10
0.0
 20
0.0
 30
0.0
 40
67.5
100
AcDbArc
 50
180.0
 51
270.0
  0
ARC
  5
69
330
1F
100
AcDbEntity
  8
0
  6
CENTERX2
 62
     7
100
AcDbCircle
 10
0.0
 20
0.0
 30
0.0
 40
67.5
100
AcDbArc
 50
0.0
 51
90.0
  0
ARC
  5
6A
330
1F
100
AcDbEntity
  8
0
  6
CENTERX2
 62
     7
100
AcDbCircle
 10
0.0
 20
0.0
 30
0.0
 40
67.5
100
AcDbArc
 50
270.0
 51
0.0
  0
ARC
  5
6B
330
1F
100
AcDbEntity
  8
0
  6
CENTERX2
 62
     7
100
AcDbCircle
 10
0.0
 20
0.0
 30
0.0
 40
67.5
100
AcDbArc
 50
90.0
 51
180.0
  0
LINE
  5
6C
330
1F
100
AcDbEntity
  8
0
  6
CENTERX2
 62
     7
100
AcDbLine
 10
0.0
 20
55.0
 30
0.0
 11
0.0
 21
0.0
 31
0.0
  0
LINE
  5
6D
330
1F
100
AcDbEntity
  8
0
  6
CENTERX2
 62
     7
100
AcDbLine
 10
55.0
 20
0.0
 30
0.0
 11
0.0
 21
0.0
 31
0.0
  0
LINE
  5
6E
330
1F
100
AcDbEntity
  8
0
  6
CENTERX2
 62
     7
100
AcDbLine
 10
0.0
 20
-55.0
 30
0.0
 11
0.0
 21
0.0
 31
0.0
  0
LINE
  5
6F
330
1F
100
AcDbEntity
  8
0
  6
CENTERX2
 62
     7
100
AcDbLine
 10
-55.0
 20
0.0
 30
0.0
 11
0.0
 21
0.0
 31
0.0
  0
LINE
  5
70
330
1F
100
AcDbEntity
  8
0
  6
CENTERX2
 62
     7
100
AcDbLine
 10
55.0
 20
0.0
 30
0.0
 11
72.0
 21
0.0
 31
0.0
  0
LINE
  5
71
330
1F
100
AcDbEntity
  8
0
  6
Continuous
 62
     7
100
AcDbLine
 10
0.0
 20
55.0
 30
0.0
 11
0.0
 21
72.0
 31
0.0
  0
LINE
  5
72
330
1F
100
AcDbEntity
  8
0
  6
CENTERX2
 62
     7
100
AcDbLine
 10
0.0
 20
-55.0
 30
0.0
 11
0.0
 21
-72.0
 31
0.0
  0
LINE
  5
73
330
1F
100
AcDbEntity
  8
0
  6
CENTERX2
 62
     7
100
AcDbLine
 10
-55.0
 20
0.0
 30
0.0
 11
-72.0
 21
0.0
 31
0.0
  0
LWPOLYLINE
  5
74
330
1F
100
AcDbEntity
  8
0
  6
Continuous
 62
     7
100
AcDbPolyline
 90
       82
 70
   128
 43
0.0
 10
-60.5978667736
 20
-20.769170613
 10
-63.4520562397
 20
-21.7743789463
 10
-63.4520562397
 20
-21.7743789463
 10
-63.4911187397
 20
-21.7917400574
 10
-63.5232367953
 20
-21.8134414463
 10
-63.5475423508
 20
-21.8386150574
 10
-63.5649034619
 20
-21.8689970018
 10
-63.5753201286
 20
-21.9054553352
 10
-63.5805284619
 20
-21.9505942241
 10
-63.5805284619
 20
-22.0052817241
 10
-63.5753201286
 20
-22.0677817241
 10
-63.5753201286
 20
-22.0677817241
 10
-63.6864312397
 20
-22.1068442241
 10
-63.6864312397
 20
-22.1068442241
 10
-64.1951117953
 20
-20.6623997796
 10
-64.1951117953
 20
-20.6623997796
 10
-64.0840006842
 20
-20.6233372796
 10
-64.0840006842
 20
-20.6233372796
 10
-64.0484104064
 20
-20.6762886685
 10
-64.0145562397
 20
-20.7179553352
 10
-63.9824381842
 20
-20.7500733907
 10
-63.9511881842
 20
-20.7717747796
 10
-63.9190701286
 20
-20.7839275574
 10
-63.8843479064
 20
-20.7891358907
 10
-63.8461534619
 20
-20.7856636685
 10
-63.8044867953
 20
-20.7743789463
 10
-63.8044867953
 20
-20.7743789463
 10
-60.9503201286
 20
-19.769170613
 10
-60.9503201286
 20
-19.769170613
 10
-61.4346951286
 20
-18.3915664463
 10
-61.4346951286
 20
-18.3915664463
 10
-61.4529242953
 20
-18.3464275574
 10
-61.4737576286
 20
-18.3091011685
 10
-61.4971951286
 20
-18.2787192241
 10
-61.5232367953
 20
-18.2552817241
 10
-61.5536187397
 20
-18.237920613
 10
-61.5900770731
 20
-18.2257678352
 10
-61.6334798508
 20
-18.2188233907
 10
-61.6838270731
 20
-18.2170872796
 10
-61.6838270731
 20
-18.2170872796
 10
-61.7228895731
 20
-18.1059761685
 10
-61.7228895731
 20
-18.1059761685
 10
-60.7784451286
 20
-17.7726428352
 10
-60.7784451286
 20
-17.7726428352
 10
-60.7393826286
 20
-17.8837539463
 10
-60.7393826286
 20
-17.8837539463
 10
-60.7767090175
 20
-17.9184761685
 10
-60.8053548508
 20
-17.9514622796
 10
-60.8270562397
 20
-17.9844483907
 10
-60.8400770731
 20
-18.0165664463
 10
-60.8452854064
 20
-18.050420613
 10
-60.8444173508
 20
-18.0886150574
 10
-60.8374729064
 20
-18.1311497796
 10
-60.8235840175
 20
-18.1780247796
 10
-60.8235840175
 20
-18.1780247796
 10
-59.5041395731
 20
-21.9262886685
 10
-59.5041395731
 20
-21.9262886685
 10
-59.4850423508
 20
-21.9731636685
 10
-59.4633409619
 20
-22.0122261685
 10
-59.4399034619
 20
-22.0443442241
 10
-59.4138617953
 20
-22.0677817241
 10
-59.3834798508
 20
-22.0851428352
 10
-59.3461534619
 20
-22.0964275574
 10
-59.3027506842
 20
-22.1042400574
 10
-59.2532715175
 20
-22.1059761685
 10
-59.2532715175
 20
-22.1059761685
 10
-59.2142090175
 20
-22.2170872796
 10
-59.2142090175
 20
-22.2170872796
 10
-60.1586534619
 20
-22.550420613
 10
-60.1586534619
 20
-22.550420613
 10
-60.1977159619
 20
-22.4393095018
 10
-60.1977159619
 20
-22.4393095018
 10
-60.1595215175
 20
-22.4063233907
 10
-60.1300076286
 20
-22.3733372796
 10
-60.1091742953
 20
-22.3412192241
 10
-60.0961534619
 20
-22.3091011685
 10
-60.0909451286
 20
-22.2743789463
 10
-60.0918131842
 20
-22.2353164463
 10
-60.0996256842
 20
-22.191045613
 10
-60.1143826286
 20
-22.1433025574
 10
-60.1143826286
 20
-22.1433025574
 10
-60.5978895731
 20
-20.769170613
  0
LWPOLYLINE
  5
75
330
1F
100
AcDbEntity
  8
0
  6
Continuous
 62
     7
100
AcDbPolyline
 90
      112
 70
   128
 43
0.0
 10
-60.4947209358
 20
-25.5890925522
 10
-61.4947492563
 20
-26.0344050522
 10
-61.4947492563
 20
-26.0344050522
 10
-60.2378048118
 20
-28.8581897745
 10
-60.2378048118
 20
-28.8581897745
 10
-60.2152353674
 20
-28.9024606078
 10
-60.1909298118
 20
-28.9389189411
 10
-60.1648881452
 20
-28.96843283
 10
-60.1362423118
 20
-28.9901342189
 10
-60.1032562007
 20
-29.0048911634
 10
-60.0641937007
 20
-29.0135717189
 10
-60.0190548118
 20
-29.0170439411
 10
-59.9678395341
 20
-29.01530783
 10
-59.9678395341
 20
-29.01530783
 10
-59.9183603674
 20
-29.1264189411
 10
-59.9183603674
 20
-29.1264189411
 10
-60.8628048118
 20
-29.54655783
 10
-60.8628048118
 20
-29.54655783
 10
-60.9122839785
 20
-29.4354467189
 10
-60.9122839785
 20
-29.4354467189
 10
-60.8766937007
 20
-29.3989883856
 10
-60.8497839785
 20
-29.3633981078
 10
-60.8306867563
 20
-29.32780783
 10
-60.8202700896
 20
-29.2939536634
 10
-60.8167978674
 20
-29.2583633856
 10
-60.8202700896
 20
-29.2193008856
 10
-60.8315548118
 20
-29.1758981078
 10
-60.848915923
 20
-29.1298911634
 10
-60.848915923
 20
-29.1298911634
 10
-62.6258256452
 20
-25.1394397745
 10
-62.6258256452
 20
-25.1394397745
 10
-62.5147145341
 20
-25.0899606078
 10
-62.5147145341
 20
-25.0899606078
 10
-62.4747839785
 20
-25.1411758856
 10
-62.4365895341
 20
-25.1828425522
 10
-62.4018673118
 20
-25.2132244967
 10
-62.3688812007
 20
-25.2331897745
 10
-62.3358950896
 20
-25.2436064411
 10
-62.3003048118
 20
-25.2462106078
 10
-62.2621103674
 20
-25.2401342189
 10
-62.2221798118
 20
-25.22624533
 10
-62.2221798118
 20
-25.22624533
 10
-59.1648881452
 20
-23.8651342189
 10
-59.1648881452
 20
-23.8651342189
 10
-59.1275617563
 20
-23.8443008856
 10
-59.0980478674
 20
-23.81999533
 10
-59.075478423
 20
-23.7922175522
 10
-59.0615895341
 20
-23.7609675522
 10
-59.0537770341
 20
-23.7227731078
 10
-59.0529089785
 20
-23.6758981078
 10
-59.0581173118
 20
-23.6203425522
 10
-59.0702700896
 20
-23.5561064411
 10
-59.0702700896
 20
-23.5561064411
 10
-58.9591589785
 20
-23.50749533
 10
-58.9591589785
 20
-23.50749533
 10
-57.2074228674
 20
-27.4415231078
 10
-57.2074228674
 20
-27.4415231078
 10
-57.184853423
 20
-27.4857939411
 10
-57.1605478674
 20
-27.5222522745
 10
-57.1336381452
 20
-27.5517661634
 10
-57.1041242563
 20
-27.5734675522
 10
-57.0711381452
 20
-27.5882244967
 10
-57.0320756452
 20
-27.5969050522
 10
-56.9878048118
 20
-27.60124533
 10
-56.9374575896
 20
-27.5995092189
 10
-56.9374575896
 20
-27.5995092189
 10
-56.887978423
 20
-27.71062033
 10
-56.887978423
 20
-27.71062033
 10
-57.8324228674
 20
-28.1307592189
 10
-57.8324228674
 20
-28.1307592189
 10
-57.8819020341
 20
-28.0196481078
 10
-57.8819020341
 20
-28.0196481078
 10
-57.8463117563
 20
-27.9831897745
 10
-57.8194020341
 20
-27.9475994967
 10
-57.8003048118
 20
-27.9128772745
 10
-57.7898881452
 20
-27.8781550522
 10
-57.786415923
 20
-27.8416967189
 10
-57.7898881452
 20
-27.8026342189
 10
-57.8011728674
 20
-27.7592314411
 10
-57.8185339785
 20
-27.7123564411
 10
-57.8185339785
 20
-27.7123564411
 10
-59.0503048118
 20
-24.9458633856
 10
-59.0503048118
 20
-24.9458633856
 10
-59.8836381452
 20
-25.3165231078
 10
-59.8836381452
 20
-25.3165231078
 10
-59.0737423118
 20
-27.1359675522
 10
-59.0737423118
 20
-27.1359675522
 10
-59.0511728674
 20
-27.1811064411
 10
-59.0259992563
 20
-27.21843283
 10
-58.9990895341
 20
-27.2488147745
 10
-58.9704437007
 20
-27.2705161634
 10
-58.9374575896
 20
-27.2861411634
 10
-58.8983950896
 20
-27.2956897745
 10
-58.8532562007
 20
-27.3000300522
 10
-58.802040923
 20
-27.2982939411
 10
-58.802040923
 20
-27.2982939411
 10
-58.7525617563
 20
-27.4094050522
 10
-58.7525617563
 20
-27.4094050522
 10
-59.6970062007
 20
-27.8295439411
 10
-59.6970062007
 20
-27.8295439411
 10
-59.7464853674
 20
-27.71843283
 10
-59.7464853674
 20
-27.71843283
 10
-59.7117631452
 20
-27.6819744967
 10
-59.6857214785
 20
-27.6455161634
 10
-59.6666242563
 20
-27.6107939411
 10
-59.6562075896
 20
-27.5760717189
 10
-59.6527353674
 20
-27.5396133856
 10
-59.6562075896
 20
-27.49968283
 10
-59.6666242563
 20
-27.4554119967
 10
-59.684853423
 20
-27.4085369967
 10
-59.684853423
 20
-27.4085369967
 10
-60.4947492563
 20
-25.5890925522
  0
LWPOLYLINE
  5
76
330
1F
100
AcDbEntity
  8
0
  6
Continuous
 62
     7
100
AcDbPolyline
 90
      102
 70
   128
 43
0.0
 10
-57.347625494
 20
-33.646268531
 10
-58.4257748839
 20
-31.7408865865
 10
-58.4257748839
 20
-31.7408865865
 10
-59.0386221061
 20
-31.7582476976
 10
-59.0386221061
 20
-31.7582476976
 10
-59.1002540506
 20
-31.7591157532
 10
-59.1514693283
 20
-31.7643240865
 10
-59.1940040506
 20
-31.7738726976
 10
-59.2269901617
 20
-31.7877615865
 10
-59.2269901617
 20
-31.7877615865
 10
-59.2512957172
 20
-31.8059907532
 10
-59.2695248839
 20
-31.8294282532
 10
-59.2825457172
 20
-31.8580740865
 10
-59.2894901617
 20
-31.8910601976
 10
-59.2912262728
 20
-31.9309907532
 10
-59.286885995
 20
-31.9752615865
 10
-59.2764693283
 20
-32.0247407532
 10
-59.2608443283
 20
-32.0794282532
 10
-59.2608443283
 20
-32.0794282532
 10
-59.3163998839
 20
-32.1106782532
 10
-59.3163998839
 20
-32.1106782532
 10
-60.1176151617
 20
-30.6940115865
 10
-60.1176151617
 20
-30.6940115865
 10
-60.0620596061
 20
-30.6627615865
 10
-60.0620596061
 20
-30.6627615865
 10
-60.0169207172
 20
-30.7131088087
 10
-59.9726498839
 20
-30.7539074198
 10
-59.9283790506
 20
-30.7860254754
 10
-59.8849762728
 20
-30.8085949198
 10
-59.8346290506
 20
-30.8233518643
 10
-59.7703929394
 20
-30.8346365865
 10
-59.693135995
 20
-30.8407129754
 10
-59.6019901617
 20
-30.8424490865
 10
-59.6019901617
 20
-30.8424490865
 10
-56.0464346061
 20
-30.8554699198
 10
-56.0464346061
 20
-30.8554699198
 10
-55.9674415506
 20
-30.8537338087
 10
-55.8997332172
 20
-30.8459213087
 10
-55.8441776617
 20
-30.8329004754
 10
-55.7999068283
 20
-30.8138032532
 10
-55.7999068283
 20
-30.8138032532
 10
-55.7729971061
 20
-30.794706031
 10
-55.7512957172
 20
-30.771268531
 10
-55.7348026617
 20
-30.7443588087
 10
-55.7235179394
 20
-30.7122407532
 10
-55.7174415506
 20
-30.6757824198
 10
-55.7174415506
 20
-30.6349838087
 10
-55.7217818283
 20
-30.5898449198
 10
-55.7313304394
 20
-30.5403657532
 10
-55.7313304394
 20
-30.5403657532
 10
-55.6757748839
 20
-30.5082476976
 10
-55.6757748839
 20
-30.5082476976
 10
-54.8363651617
 20
-31.9926226976
 10
-54.8363651617
 20
-31.9926226976
 10
-54.8919207172
 20
-32.0247407532
 10
-54.8919207172
 20
-32.0247407532
 10
-54.927510995
 20
-31.9891504754
 10
-54.9622332172
 20
-31.9605046421
 10
-54.9952193283
 20
-31.9379351976
 10
-55.0273373839
 20
-31.9223101976
 10
-55.0585873839
 20
-31.9144976976
 10
-55.0881012728
 20
-31.9127615865
 10
-55.1167471061
 20
-31.9171018643
 10
-55.1445248839
 20
-31.9292546421
 10
-55.1445248839
 20
-31.9292546421
 10
-55.1809832172
 20
-31.9544282532
 10
-55.2157054394
 20
-31.9891504754
 10
-55.2495596061
 20
-32.0316851976
 10
-55.2808096061
 20
-32.0829004754
 10
-55.2808096061
 20
-32.0829004754
 10
-57.0707401617
 20
-35.2096365865
 10
-57.0707401617
 20
-35.2096365865
 10
-57.1219554394
 20
-35.3033865865
 10
-57.1610179394
 20
-35.3867199198
 10
-57.1879276617
 20
-35.458768531
 10
-57.2035526617
 20
-35.5204004754
 10
-57.208760995
 20
-35.5785601976
 10
-57.2044207172
 20
-35.6393240865
 10
-57.1922679394
 20
-35.7052963087
 10
-57.1705665506
 20
-35.7738726976
 10
-57.1705665506
 20
-35.7738726976
 10
-57.2261221061
 20
-35.8051226976
 10
-57.2261221061
 20
-35.8051226976
 10
-58.1063304394
 20
-34.2495671421
 10
-58.1063304394
 20
-34.2495671421
 10
-58.0507748839
 20
-34.2183171421
 10
-58.0507748839
 20
-34.2183171421
 10
-58.0177887728
 20
-34.2565115865
 10
-57.9856707172
 20
-34.2877615865
 10
-57.9535526617
 20
-34.3111990865
 10
-57.9205665506
 20
-34.3268240865
 10
-57.8893165506
 20
-34.3355046421
 10
-57.857198495
 20
-34.3363726976
 10
-57.8250804394
 20
-34.3294282532
 10
-57.7938304394
 20
-34.3155393643
 10
-57.7938304394
 20
-34.3155393643
 10
-57.7669207172
 20
-34.2955740865
 10
-57.7382748839
 20
-34.2643240865
 10
-57.7078929394
 20
-34.2226574198
 10
-57.6749068283
 20
-34.1688379754
 10
-57.6749068283
 20
-34.1688379754
 10
-57.3476498839
 20
-33.646268531
  0
LWPOLYLINE
  5
77
330
1F
100
AcDbEntity
  8
0
  6
Continuous
 62
     7
100
AcDbPolyline
 90
        6
 70
   128
 43
0.0
 10
-57.0064783096
 20
-33.0829004754
 10
-56.1575457172
 20
-31.7209213087
 10
-56.1575457172
 20
-31.7209213087
 10
-57.7651846061
 20
-31.7417546421
 10
-57.7651846061
 20
-31.7417546421
 10
-57.0065040506
 20
-33.0829004754
  0
LWPOLYLINE
  5
78
330
1F
100
AcDbEntity
  8
0
  6
Continuous
 62
     7
100
AcDbPolyline
 90
      118
 70
   128
 43
0.0
 10
-54.6083152294
 20
-39.4277349268
 10
-53.4590339896
 20
-36.3582904824
 10
-53.4590339896
 20
-36.3582904824
 10
-55.4399367674
 20
-37.8400613157
 10
-55.4399367674
 20
-37.8400613157
 10
-55.4729228785
 20
-37.868707149
 10
-55.4980964896
 20
-37.8982210379
 10
-55.5145895452
 20
-37.9286029824
 10
-55.5241381563
 20
-37.9607210379
 10
-55.5258742674
 20
-37.9954432601
 10
-55.5197978785
 20
-38.0362418712
 10
-55.5076451008
 20
-38.0831168712
 10
-55.487679823
 20
-38.1360682601
 10
-55.487679823
 20
-38.1360682601
 10
-55.5432353785
 20
-38.1777349268
 10
-55.5432353785
 20
-38.1777349268
 10
-56.3748326008
 20
-37.0666238157
 10
-56.3748326008
 20
-37.0666238157
 10
-56.3192770452
 20
-37.024957149
 10
-56.3192770452
 20
-37.024957149
 10
-56.2741381563
 20
-37.0588113157
 10
-56.2324714896
 20
-37.0839849268
 10
-56.1951451008
 20
-37.1013460379
 10
-56.1604228785
 20
-37.1100265935
 10
-56.1274367674
 20
-37.1100265935
 10
-56.0935826008
 20
-37.1022140935
 10
-56.057992323
 20
-37.0865890935
 10
-56.0224020452
 20
-37.0631515935
 10
-56.0224020452
 20
-37.0631515935
 10
-53.307992323
 20
-35.032769649
 10
-53.307992323
 20
-35.032769649
 10
-53.276742323
 20
-35.0058599268
 10
-53.2524367674
 20
-34.9772140935
 10
-53.2359437119
 20
-34.946832149
 10
-53.2272631563
 20
-34.915582149
 10
-53.2255270452
 20
-34.8799918712
 10
-53.2307353785
 20
-34.8391932601
 10
-53.2437562119
 20
-34.7923182601
 10
-53.2637214896
 20
-34.7393668712
 10
-53.2637214896
 20
-34.7393668712
 10
-53.2081659341
 20
-34.6977002046
 10
-53.2081659341
 20
-34.6977002046
 10
-52.0996589896
 20
-36.1794710379
 10
-52.0996589896
 20
-36.1794710379
 10
-52.1552145452
 20
-36.2211377046
 10
-52.1552145452
 20
-36.2211377046
 10
-52.2168464896
 20
-36.1768668712
 10
-52.2758742674
 20
-36.1569015935
 10
-52.331429823
 20
-36.1595057601
 10
-52.3835131563
 20
-36.1855474268
 10
-52.3835131563
 20
-36.1855474268
 10
-52.4060826008
 20
-36.2063807601
 10
-52.4260478785
 20
-36.2332904824
 10
-52.4451451008
 20
-36.2662765935
 10
-52.4616381563
 20
-36.3053390935
 10
-52.4616381563
 20
-36.3053390935
 10
-53.448617323
 20
-38.6959640935
 10
-53.448617323
 20
-38.6959640935
 10
-50.8947978785
 20
-38.4598529824
 10
-50.8947978785
 20
-38.4598529824
 10
-50.8218812119
 20
-38.4520404824
 10
-50.7619853785
 20
-38.4416238157
 10
-50.7168464896
 20
-38.4277349268
 10
-50.6855964896
 20
-38.4112418712
 10
-50.6855964896
 20
-38.4112418712
 10
-50.6647631563
 20
-38.392144649
 10
-50.6491381563
 20
-38.3704432601
 10
-50.6395895452
 20
-38.3461377046
 10
-50.636117323
 20
-38.3200960379
 10
-50.6387214896
 20
-38.2914502046
 10
-50.6474020452
 20
-38.2602002046
 10
-50.6621589896
 20
-38.2263460379
 10
-50.6821242674
 20
-38.1907557601
 10
-50.6821242674
 20
-38.1907557601
 10
-50.6265687119
 20
-38.1490890935
 10
-50.6265687119
 20
-38.1490890935
 10
-49.5510478785
 20
-39.5865890935
 10
-49.5510478785
 20
-39.5865890935
 10
-49.6066034341
 20
-39.6282557601
 10
-49.6066034341
 20
-39.6282557601
 10
-49.651742323
 20
-39.5944015935
 10
-49.6934089896
 20
-39.5692279824
 10
-49.7307353785
 20
-39.5518668712
 10
-49.7654576008
 20
-39.5440543712
 10
-49.7984437119
 20
-39.5431863157
 10
-49.831429823
 20
-39.5509988157
 10
-49.8661520452
 20
-39.5657557601
 10
-49.9008742674
 20
-39.5883252046
 10
-49.9008742674
 20
-39.5883252046
 10
-52.6152839896
 20
-41.618707149
 10
-52.6152839896
 20
-41.618707149
 10
-52.6474020452
 20
-41.6464849268
 10
-52.6725756563
 20
-41.6759988157
 10
-52.6890687119
 20
-41.7063807601
 10
-52.698617323
 20
-41.7384988157
 10
-52.7003534341
 20
-41.7732210379
 10
-52.6942770452
 20
-41.814019649
 10
-52.6821242674
 20
-41.860894649
 10
-52.6621589896
 20
-41.9138460379
 10
-52.6621589896
 20
-41.9138460379
 10
-52.7177145452
 20
-41.9555127046
 10
-52.7177145452
 20
-41.9555127046
 10
-53.5901103785
 20
-40.7888460379
 10
-53.5901103785
 20
-40.7888460379
 10
-53.534554823
 20
-40.7471793712
 10
-53.534554823
 20
-40.7471793712
 10
-53.4911520452
 20
-40.7801654824
 10
-53.4503534341
 20
-40.8053390935
 10
-53.4130270452
 20
-40.8227002046
 10
-53.378304823
 20
-40.8313807601
 10
-53.3444506563
 20
-40.8313807601
 10
-53.3097284341
 20
-40.8235682601
 10
-53.2741381563
 20
-40.8079432601
 10
-53.237679823
 20
-40.7845057601
 10
-53.237679823
 20
-40.7845057601
 10
-51.2567770452
 20
-39.3027349268
 10
-51.2567770452
 20
-39.3027349268
 10
-54.6083395452
 20
-39.4277349268
  0
LWPOLYLINE
  5
79
330
1F
100
AcDbEntity
  8
0
  6
Continuous
 62
     7
100
AcDbPolyline
 90
       88
 70
   128
 43
0.0
 10
-47.7328598499
 20
-45.314811867
 10
-48.6903445586
 20
-46.2557840892
 10
-48.6903445586
 20
-46.2557840892
 10
-48.7181223364
 20
-46.2879021448
 10
-48.7380876142
 20
-46.3208882559
 10
-48.7493723364
 20
-46.3556104781
 10
-48.7528445586
 20
-46.3912007559
 10
-48.7476362253
 20
-46.4293952003
 10
-48.7337473364
 20
-46.4727979781
 10
-48.7120459475
 20
-46.5205410337
 10
-48.6807959475
 20
-46.5734924226
 10
-48.6807959475
 20
-46.5734924226
 10
-48.7363515031
 20
-46.6281799226
 10
-48.7363515031
 20
-46.6281799226
 10
-49.773677892
 20
-45.572624367
 10
-49.773677892
 20
-45.572624367
 10
-49.7181223364
 20
-45.517936867
 10
-49.7181223364
 20
-45.517936867
 10
-49.664302892
 20
-45.5500549226
 10
-49.6156917809
 20
-45.5743604781
 10
-49.5731570586
 20
-45.5891174226
 10
-49.5358306698
 20
-45.5951938115
 10
-49.5011084475
 20
-45.5925896448
 10
-49.4681223364
 20
-45.5821729781
 10
-49.4351362253
 20
-45.5630757559
 10
-49.4030181698
 20
-45.5361660337
 10
-49.4030181698
 20
-45.5361660337
 10
-46.984615392
 20
-43.1602979781
 10
-46.984615392
 20
-43.1602979781
 10
-46.9559695586
 20
-43.1281799226
 10
-46.9360042809
 20
-43.0943257559
 10
-46.9247195586
 20
-43.0613396448
 10
-46.922115392
 20
-43.0266174226
 10
-46.9273237253
 20
-42.9892910337
 10
-46.9412126142
 20
-42.9458882559
 10
-46.9646501142
 20
-42.8972771448
 10
-46.9959001142
 20
-42.8434577003
 10
-46.9959001142
 20
-42.8434577003
 10
-46.9403445586
 20
-42.7887702003
 10
-46.9403445586
 20
-42.7887702003
 10
-44.8318376142
 20
-44.9337354781
 10
-44.8318376142
 20
-44.9337354781
 10
-44.742427892
 20
-45.025749367
 10
-44.6590945586
 20
-45.1142910337
 10
-44.5827056698
 20
-45.1993604781
 10
-44.5115251142
 20
-45.2809577003
 10
-44.4464209475
 20
-45.3582146448
 10
-44.3873931698
 20
-45.4328674226
 10
-44.3344417809
 20
-45.5031799226
 10
-44.2875667809
 20
-45.5700202003
 10
-44.2068376142
 20
-45.7010965892
 10
-44.1399973364
 20
-45.8321729781
 10
-44.086177892
 20
-45.9649854781
 10
-44.047115392
 20
-46.0986660337
 10
-44.047115392
 20
-46.0986660337
 10
-44.0228098364
 20
-46.2358188115
 10
-44.015865392
 20
-46.3721035337
 10
-44.0262820586
 20
-46.5075202003
 10
-44.054927892
 20
-46.6412007559
 10
-44.054927892
 20
-46.6412007559
 10
-44.1026709475
 20
-46.7722771448
 10
-44.164302892
 20
-46.892936867
 10
-44.2415598364
 20
-47.0049160337
 10
-44.3327056698
 20
-47.1064785337
 10
-44.3327056698
 20
-47.1064785337
 10
-44.4056223364
 20
-47.1724507559
 10
-44.4820112253
 20
-47.2297424226
 10
-44.5618723364
 20
-47.2792215892
 10
-44.6452056698
 20
-47.3208882559
 10
-44.7320112253
 20
-47.3547424226
 10
-44.8231570586
 20
-47.3799160337
 10
-44.9169070586
 20
-47.3972771448
 10
-45.0149973364
 20
-47.4068257559
 10
-45.0149973364
 20
-47.4068257559
 10
-45.1860042809
 20
-47.4024854781
 10
-45.3561431698
 20
-47.3721035337
 10
-45.5271501142
 20
-47.314811867
 10
-45.6972890031
 20
-47.2323465892
 10
-45.7840945586
 20
-47.1793952003
 10
-45.875240392
 20
-47.1177632559
 10
-45.9707265031
 20
-47.0474507559
 10
-46.070552892
 20
-46.9675896448
 10
-46.1738515031
 20
-46.8790479781
 10
-46.281490392
 20
-46.7818257559
 10
-46.3934695586
 20
-46.6750549226
 10
-46.5097890031
 20
-46.5596035337
 10
-46.5097890031
 20
-46.5596035337
 10
-47.7328792809
 20
-45.314811867
  0
LWPOLYLINE
  5
7A
330
1F
100
AcDbEntity
  8
0
  6
Continuous
 62
     7
100
AcDbPolyline
 90
       42
 70
   128
 43
0.0
 10
-47.2884178162
 20
-44.8781799226
 10
-46.156490392
 20
-46.0300896448
 10
-46.156490392
 20
-46.0300896448
 10
-46.0740251142
 20
-46.111686867
 10
-45.9959001142
 20
-46.1854715892
 10
-45.922115392
 20
-46.2514438115
 10
-45.8526709475
 20
-46.3078674226
 10
-45.7875667809
 20
-46.3564785337
 10
-45.7276709475
 20
-46.3972771448
 10
-45.6712473364
 20
-46.4293952003
 10
-45.6191640031
 20
-46.4528327003
 10
-45.6191640031
 20
-46.4528327003
 10
-45.5540598364
 20
-46.4719299226
 10
-45.4863515031
 20
-46.4806104781
 10
-45.4177751142
 20
-46.4797424226
 10
-45.3474626142
 20
-46.4684577003
 10
-45.2780181698
 20
-46.4467563115
 10
-45.2137820586
 20
-46.416374367
 10
-45.1530181698
 20
-46.377311867
 10
-45.0974626142
 20
-46.3287007559
 10
-45.0974626142
 20
-46.3287007559
 10
-45.0488515031
 20
-46.2740132559
 10
-45.0089209475
 20
-46.2149854781
 10
-44.9776709475
 20
-46.1516174226
 10
-44.9551015031
 20
-46.0830410337
 10
-44.9420806698
 20
-46.0127285337
 10
-44.9394765031
 20
-45.9441521448
 10
-44.9481570586
 20
-45.8764438115
 10
-44.9663862253
 20
-45.8113396448
 10
-44.9663862253
 20
-45.8113396448
 10
-44.9880876142
 20
-45.7592563115
 10
-45.0184695586
 20
-45.7028327003
 10
-45.0575320586
 20
-45.6420688115
 10
-45.1052751142
 20
-45.5760965892
 10
-45.1608306698
 20
-45.5057840892
 10
-45.2250667809
 20
-45.4302632559
 10
-45.2979834475
 20
-45.3504021448
 10
-45.3787126142
 20
-45.2662007559
 10
-45.3787126142
 20
-45.2662007559
 10
-46.5106570586
 20
-44.1142910337
 10
-46.5106570586
 20
-44.1142910337
 10
-47.2884348364
 20
-44.8781799226
  0
LWPOLYLINE
  5
7B
330
1F
100
AcDbEntity
  8
0
  6
Continuous
 62
     7
100
AcDbPolyline
 90
       52
 70
   128
 43
0.0
 10
-44.7109341621
 20
-50.170479033
 10
-42.4566139469
 20
-47.6036387552
 10
-42.4566139469
 20
-47.6036387552
 10
-42.4314403358
 20
-47.5697845886
 10
-42.4140792246
 20
-47.5367984775
 10
-42.4045306135
 20
-47.5029443108
 10
-42.403662558
 20
-47.4699581997
 10
-42.4106070024
 20
-47.4334998663
 10
-42.4262320024
 20
-47.3927012552
 10
-42.4496695024
 20
-47.3475623663
 10
-42.4826556135
 20
-47.2972151441
 10
-42.4826556135
 20
-47.2972151441
 10
-42.4340445024
 20
-47.2416595886
 10
-42.4340445024
 20
-47.2416595886
 10
-41.3229333913
 20
-48.2182220886
 10
-41.3229333913
 20
-48.2182220886
 10
-41.3715445024
 20
-48.2737776441
 10
-41.3715445024
 20
-48.2737776441
 10
-41.4244958913
 20
-48.2468679219
 10
-41.4722389469
 20
-48.2277706997
 10
-41.5139056135
 20
-48.217354033
 10
-41.5512320024
 20
-48.2156179219
 10
-41.5850861691
 20
-48.2216943108
 10
-41.6172042246
 20
-48.2355831997
 10
-41.6484542246
 20
-48.2572845886
 10
-41.6788361691
 20
-48.2867984775
 10
-41.6788361691
 20
-48.2867984775
 10
-43.9331764469
 20
-50.8536387552
 10
-43.9331764469
 20
-50.8536387552
 10
-43.9592181135
 20
-50.8883609775
 10
-43.9774472802
 20
-50.9230831997
 10
-43.9869958913
 20
-50.9586734775
 10
-43.9887320024
 20
-50.9933956997
 10
-43.981787558
 20
-51.029854033
 10
-43.9652945024
 20
-51.0706526441
 10
-43.9418570024
 20
-51.1149234775
 10
-43.9088708913
 20
-51.162666533
 10
-43.9088708913
 20
-51.162666533
 10
-43.9574820024
 20
-51.2182220886
 10
-43.9574820024
 20
-51.2182220886
 10
-45.0685931135
 20
-50.2416595886
 10
-45.0685931135
 20
-50.2416595886
 10
-45.0199820024
 20
-50.186104033
 10
-45.0199820024
 20
-50.186104033
 10
-44.966162558
 20
-50.2121456997
 10
-44.9175514469
 20
-50.2303748663
 10
-44.8758847802
 20
-50.240791533
 10
-44.8394264469
 20
-50.2433956997
 10
-44.8055722802
 20
-50.2373193108
 10
-44.7734542246
 20
-50.2234304219
 10
-44.7413361691
 20
-50.2008609775
 10
-44.7109542246
 20
-50.170479033
  0
LWPOLYLINE
  5
7C
330
1F
100
AcDbEntity
  8
0
  6
Continuous
 62
     7
100
AcDbPolyline
 90
      110
 70
   128
 43
0.0
 10
-39.8362576962
 20
-50.9575848528
 10
-41.3163127159
 20
-52.9428279083
 10
-41.3163127159
 20
-52.9428279083
 10
-41.3397502159
 20
-52.9792862417
 10
-41.3553752159
 20
-53.0148765194
 10
-41.3631877159
 20
-53.0487306861
 10
-41.3631877159
 20
-53.0825848528
 10
-41.3545071604
 20
-53.117307075
 10
-41.3380141048
 20
-53.1546334639
 10
-41.3128404937
 20
-53.1963001305
 10
-41.278986327
 20
-53.2414390194
 10
-41.278986327
 20
-53.2414390194
 10
-41.3206529937
 20
-53.296994575
 10
-41.3206529937
 20
-53.296994575
 10
-42.4317641048
 20
-52.468869575
 10
-42.4317641048
 20
-52.468869575
 10
-42.3900974381
 20
-52.4133140194
 10
-42.3900974381
 20
-52.4133140194
 10
-42.3371460492
 20
-52.4324112417
 10
-42.2902710492
 20
-52.4445640194
 10
-42.2486043826
 20
-52.4497723528
 10
-42.2138821604
 20
-52.4480362417
 10
-42.1817641048
 20
-52.4384876305
 10
-42.1513821604
 20
-52.4211265194
 10
-42.1218682715
 20
-52.3959529083
 10
-42.0940904937
 20
-52.3629667972
 10
-42.0940904937
 20
-52.3629667972
 10
-40.0333266048
 20
-49.5982098528
 10
-40.0333266048
 20
-49.5982098528
 10
-40.0107571604
 20
-49.562619575
 10
-39.9951321604
 20
-49.5287654083
 10
-39.9881877159
 20
-49.4949112417
 10
-39.9881877159
 20
-49.4619251305
 10
-39.9960002159
 20
-49.4272029083
 10
-40.0124932715
 20
-49.3890084639
 10
-40.0376668826
 20
-49.3473417972
 10
-40.0715210492
 20
-49.3022029083
 10
-40.0715210492
 20
-49.3022029083
 10
-40.0307224381
 20
-49.2466473528
 10
-40.0307224381
 20
-49.2466473528
 10
-38.7347154937
 20
-50.2127931861
 10
-38.7347154937
 20
-50.2127931861
 10
-38.7755141048
 20
-50.2683487417
 10
-38.7755141048
 20
-50.2683487417
 10
-38.8406182715
 20
-50.2457792972
 10
-38.896173827
 20
-50.2414390194
 10
-38.9421807715
 20
-50.2553279083
 10
-38.9786391048
 20
-50.2883140194
 10
-38.9786391048
 20
-50.2883140194
 10
-38.9960002159
 20
-50.3213001305
 10
-39.0038127159
 20
-50.3629667972
 10
-39.0038127159
 20
-50.414182075
 10
-38.9951321604
 20
-50.4732098528
 10
-38.9951321604
 20
-50.4732098528
 10
-38.310236327
 20
-53.8959529083
 10
-38.310236327
 20
-53.8959529083
 10
-36.8666599381
 20
-51.9584529083
 10
-36.8666599381
 20
-51.9584529083
 10
-36.8440904937
 20
-51.9228626305
 10
-36.8284654937
 20
-51.8890084639
 10
-36.8215210492
 20
-51.8551542972
 10
-36.8215210492
 20
-51.8221681861
 10
-36.8293335492
 20
-51.7874459639
 10
-36.8458266048
 20
-51.7492515194
 10
-36.8710002159
 20
-51.7075848528
 10
-36.9048543826
 20
-51.6624459639
 10
-36.9048543826
 20
-51.6624459639
 10
-36.8640557715
 20
-51.6068904083
 10
-36.8640557715
 20
-51.6068904083
 10
-35.7529446604
 20
-52.4350154083
 10
-35.7529446604
 20
-52.4350154083
 10
-35.7937432715
 20
-52.4905709639
 10
-35.7937432715
 20
-52.4905709639
 10
-35.8466946604
 20
-52.4714737417
 10
-35.8935696604
 20
-52.4593209639
 10
-35.935236327
 20
-52.4549806861
 10
-35.9708266048
 20
-52.4567167972
 10
-36.0029446604
 20
-52.4653973528
 10
-36.0324585492
 20
-52.4818904083
 10
-36.0619724381
 20
-52.5061959639
 10
-36.0888821604
 20
-52.5383140194
 10
-36.0888821604
 20
-52.5383140194
 10
-38.1496460492
 20
-55.3030709639
 10
-38.1496460492
 20
-55.3030709639
 10
-38.1730835492
 20
-55.3395292972
 10
-38.1887085492
 20
-55.375119575
 10
-38.1965210492
 20
-55.4089737417
 10
-38.1965210492
 20
-55.4428279083
 10
-38.1878404937
 20
-55.4775501305
 10
-38.1713474381
 20
-55.5148765194
 10
-38.146173827
 20
-55.5565431861
 10
-38.1123196604
 20
-55.601682075
 10
-38.1123196604
 20
-55.601682075
 10
-38.153986327
 20
-55.6572376305
 10
-38.153986327
 20
-55.6572376305
 10
-39.3545071604
 20
-54.7622723528
 10
-39.3545071604
 20
-54.7622723528
 10
-39.3128404937
 20
-54.7067167972
 10
-39.3128404937
 20
-54.7067167972
 10
-39.2512085492
 20
-54.7301542972
 10
-39.1982571604
 20
-54.7362306861
 10
-39.153986327
 20
-54.7232098528
 10
-39.1192641048
 20
-54.6919598528
 10
-39.1192641048
 20
-54.6919598528
 10
-39.107111327
 20
-54.6572376305
 10
-39.1045071604
 20
-54.6008140194
 10
-39.1131877159
 20
-54.5218209639
 10
-39.1322849381
 20
-54.421994575
 10
-39.1322849381
 20
-54.421994575
 10
-39.8362779937
 20
-50.9575848528
  0
LWPOLYLINE
  5
7D
330
1F
100
AcDbEntity
  8
0
  6
Continuous
 62
     7
100
AcDbPolyline
 90
      102
 70
   128
 43
0.0
 10
-33.0674648285
 20
-57.670381611
 10
-34.9615733231
 20
-56.545381611
 10
-34.9615733231
 20
-56.545381611
 10
-35.4876149898
 20
-56.8717704999
 10
-35.4876149898
 20
-56.8717704999
 10
-35.5405663787
 20
-56.9038885554
 10
-35.5831011009
 20
-56.9342704999
 10
-35.6152191565
 20
-56.9646524443
 10
-35.6369205454
 20
-56.9932982776
 10
-35.6369205454
 20
-56.9932982776
 10
-35.6490733231
 20
-57.0210760554
 10
-35.6542816565
 20
-57.0505899443
 10
-35.6516774898
 20
-57.0818399443
 10
-35.6412608231
 20
-57.1148260554
 10
-35.623899712
 20
-57.1495482776
 10
-35.5987261009
 20
-57.1851385554
 10
-35.5657399898
 20
-57.2233329999
 10
-35.5258094343
 20
-57.2623954999
 10
-35.5258094343
 20
-57.2623954999
 10
-35.5587955454
 20
-57.3179510554
 10
-35.5587955454
 20
-57.3179510554
 10
-36.8921288787
 20
-56.5262843887
 10
-36.8921288787
 20
-56.5262843887
 10
-36.8591427676
 20
-56.4707288332
 10
-36.8591427676
 20
-56.4707288332
 10
-36.795774712
 20
-56.4915621665
 10
-36.7367469343
 20
-56.5045829999
 10
-36.6829274898
 20
-56.5097913332
 10
-36.6343163787
 20
-56.5071871665
 10
-36.5831011009
 20
-56.4941663332
 10
-36.522337212
 20
-56.4707288332
 10
-36.452024712
 20
-56.4368746665
 10
-36.3721636009
 20
-56.3926038332
 10
-36.3721636009
 20
-56.3926038332
 10
-33.2766774898
 20
-54.5957288332
 10
-33.2766774898
 20
-54.5957288332
 10
-33.2089691565
 20
-54.553194111
 10
-33.1542816565
 20
-54.5123954999
 10
-33.1117469343
 20
-54.4724649443
 10
-33.0831011009
 20
-54.4334024443
 10
-33.0831011009
 20
-54.4334024443
 10
-33.069212212
 20
-54.4030204999
 10
-33.061399712
 20
-54.3717704999
 10
-33.0605316565
 20
-54.3396524443
 10
-33.0666080454
 20
-54.3057982776
 10
-33.0787608231
 20
-54.271944111
 10
-33.0978580454
 20
-54.2354857776
 10
-33.123899712
 20
-54.1990274443
 10
-33.1568858231
 20
-54.1608329999
 10
-33.1568858231
 20
-54.1608329999
 10
-33.123899712
 20
-54.1052774443
 10
-33.123899712
 20
-54.1052774443
 10
-31.670774712
 20
-54.9681246665
 10
-31.670774712
 20
-54.9681246665
 10
-31.7037608231
 20
-55.0236802221
 10
-31.7037608231
 20
-55.0236802221
 10
-31.7523719343
 20
-55.0106593887
 10
-31.7966427676
 20
-55.0028468887
 10
-31.8365733231
 20
-55.0011107776
 10
-31.8721636009
 20
-55.0037149443
 10
-31.9034136009
 20
-55.0123954999
 10
-31.9303233231
 20
-55.0254163332
 10
-31.9528927676
 20
-55.0445135554
 10
-31.9711219343
 20
-55.068819111
 10
-31.9711219343
 20
-55.068819111
 10
-31.9902191565
 20
-55.1096177221
 10
-32.0041080454
 20
-55.1564927221
 10
-32.0119205454
 20
-55.2111802221
 10
-32.014524712
 20
-55.271944111
 10
-32.014524712
 20
-55.271944111
 10
-32.0475108231
 20
-58.8986802221
 10
-32.0475108231
 20
-58.8986802221
 10
-32.045774712
 20
-59.006319111
 10
-32.0396983231
 20
-59.0983329999
 10
-32.0284136009
 20
-59.1755899443
 10
-32.0119205454
 20
-59.2372218887
 10
-31.9876149898
 20
-59.2901732776
 10
-31.9546288787
 20
-59.3413885554
 10
-31.9112261009
 20
-59.3917357776
 10
-31.8591427676
 20
-59.4403468887
 10
-31.8591427676
 20
-59.4403468887
 10
-31.8921288787
 20
-59.4959024443
 10
-31.8921288787
 20
-59.4959024443
 10
-33.4476844343
 20
-58.5722913332
 10
-33.4476844343
 20
-58.5722913332
 10
-33.4146983231
 20
-58.5167357776
 10
-33.4146983231
 20
-58.5167357776
 10
-33.3634830454
 20
-58.5358329999
 10
-33.3166080454
 20
-58.5488538332
 10
-33.2732052676
 20
-58.5549302221
 10
-33.2350108231
 20
-58.553194111
 10
-33.2011566565
 20
-58.5462496665
 10
-33.1716427676
 20
-58.5314927221
 10
-33.1464691565
 20
-58.5097913332
 10
-33.1256358231
 20
-58.4820135554
 10
-33.1256358231
 20
-58.4820135554
 10
-33.1117469343
 20
-58.4507635554
 10
-33.1021983231
 20
-58.4090968887
 10
-33.0969899898
 20
-58.3561454999
 10
-33.0952538787
 20
-58.2927774443
 10
-33.0952538787
 20
-58.2927774443
 10
-33.0674761009
 20
-57.670381611
  0
LWPOLYLINE
  5
7E
330
1F
100
AcDbEntity
  8
0
  6
Continuous
 62
     7
100
AcDbPolyline
 90
        6
 70
   128
 43
0.0
 10
-33.0431461334
 20
-57.0089232776
 10
-32.9702538787
 20
-55.3596177221
 10
-32.9702538787
 20
-55.3596177221
 10
-34.3851844343
 20
-56.2120482776
 10
-34.3851844343
 20
-56.2120482776
 10
-33.0431705454
 20
-57.0089232776
  0
LWPOLYLINE
  5
7F
330
1F
100
AcDbEntity
  8
0
  6
Continuous
 62
     7
100
AcDbPolyline
 90
      132
 70
   128
 43
0.0
 10
-27.9186517
 20
-59.3161487172
 10
-28.77716816
 20
-59.4463570506
 10
-28.77716816
 20
-59.4463570506
 10
-29.2250848267
 20
-60.4151070506
 10
-29.2250848267
 20
-60.4151070506
 10
-29.2398417712
 20
-60.4550376061
 10
-29.24591816
 20
-60.4941001061
 10
-29.2441820489
 20
-60.5305584395
 10
-29.2328973267
 20
-60.5652806617
 10
-29.2129320489
 20
-60.5991348283
 10
-29.1825501045
 20
-60.6347251061
 10
-29.1426195489
 20
-60.672051495
 10
-29.0922723267
 20
-60.711113995
 10
-29.0922723267
 20
-60.711113995
 10
-29.1434876045
 20
-60.8222251061
 10
-29.1434876045
 20
-60.8222251061
 10
-30.5323764934
 20
-60.1807320506
 10
-30.5323764934
 20
-60.1807320506
 10
-30.4811612156
 20
-60.0696209395
 10
-30.4811612156
 20
-60.0696209395
 10
-30.4169251045
 20
-60.0826417728
 10
-30.3613695489
 20
-60.0887181617
 10
-30.3144945489
 20
-60.0887181617
 10
-30.2763001045
 20
-60.0817737172
 10
-30.2441820489
 20
-60.0678848283
 10
-30.2155362156
 20
-60.0453153839
 10
-30.1903626045
 20
-60.015801495
 10
-30.1695292712
 20
-59.9784751061
 10
-30.1695292712
 20
-59.9784751061
 10
-28.7563348267
 20
-56.9185792728
 10
-28.7563348267
 20
-56.9185792728
 10
-28.7415778823
 20
-56.8795167728
 10
-28.7355014934
 20
-56.8421903839
 10
-28.73810566
 20
-56.8074681617
 10
-28.7485223267
 20
-56.7744820506
 10
-28.7684876045
 20
-56.7406278839
 10
-28.7980014934
 20
-56.7041695506
 10
-28.8388001045
 20
-56.6659751061
 10
-28.8900153823
 20
-56.625176495
 10
-28.8900153823
 20
-56.625176495
 10
-28.8388001045
 20
-56.5140653839
 10
-28.8388001045
 20
-56.5140653839
 10
-27.4499112156
 20
-57.1555584395
 10
-27.4499112156
 20
-57.1555584395
 10
-27.5011264934
 20
-57.2666695506
 10
-27.5011264934
 20
-57.2666695506
 10
-27.5653626045
 20
-57.2527806617
 10
-27.6200501045
 20
-57.2458362172
 10
-27.66779316
 20
-57.2458362172
 10
-27.7059876045
 20
-57.2527806617
 10
-27.73810566
 20
-57.2666695506
 10
-27.7658834378
 20
-57.2866348283
 10
-27.7893209378
 20
-57.3152806617
 10
-27.8092862156
 20
-57.3500028839
 10
-27.8092862156
 20
-57.3500028839
 10
-28.3769945489
 20
-58.5800376061
 10
-28.3769945489
 20
-58.5800376061
 10
-26.05841816
 20
-58.226738995
 10
-26.05841816
 20
-58.226738995
 10
-25.9837653823
 20
-58.2119820506
 10
-25.9264737156
 20
-58.1946209395
 10
-25.8882792712
 20
-58.1737876061
 10
-25.8674459378
 20
-58.1503501061
 10
-25.8674459378
 20
-58.1503501061
 10
-25.8622376045
 20
-58.1303848283
 10
-25.86310566
 20
-58.109551495
 10
-25.87091816
 20
-58.0869820506
 10
-25.8848070489
 20
-58.0635445506
 10
-25.9065084378
 20
-58.039238995
 10
-25.93341816
 20
-58.0131973283
 10
-25.9672723267
 20
-57.9854195506
 10
-26.0080709378
 20
-57.9567737172
 10
-26.0080709378
 20
-57.9567737172
 10
-25.95685566
 20
-57.8456626061
 10
-25.95685566
 20
-57.8456626061
 10
-24.1165778823
 20
-58.6963570506
 10
-24.1165778823
 20
-58.6963570506
 10
-24.16779316
 20
-58.8074681617
 10
-24.16779316
 20
-58.8074681617
 10
-24.2250848267
 20
-58.7927112172
 10
-24.2736959378
 20
-58.7822945506
 10
-24.3153626045
 20
-58.7770862172
 10
-24.3492167712
 20
-58.7753501061
 10
-24.3674459378
 20
-58.7762181617
 10
-24.39435566
 20
-58.7788223283
 10
-24.4282098267
 20
-58.7822945506
 10
-24.4698764934
 20
-58.7883709395
 10
-24.51935566
 20
-58.7953153839
 10
-24.5757792712
 20
-58.8031278839
 10
-24.6408834378
 20
-58.8135445506
 10
-24.7129320489
 20
-58.8248292728
 10
-24.7129320489
 20
-58.8248292728
 10
-25.0393209378
 20
-58.8795167728
 10
-25.0393209378
 20
-58.8795167728
 10
-26.9941820489
 20
-59.1737876061
 10
-26.9941820489
 20
-59.1737876061
 10
-26.0714389934
 20
-61.6355931617
 10
-26.0714389934
 20
-61.6355931617
 10
-26.0419251045
 20
-61.7206626061
 10
-26.0141473267
 20
-61.7979195506
 10
-25.9872376045
 20
-61.8682320506
 10
-25.9620639934
 20
-61.9307320506
 10
-25.9386264934
 20
-61.9871556617
 10
-25.9169251045
 20
-62.0348987172
 10
-25.8969598267
 20
-62.0756973283
 10
-25.8778626045
 20
-62.109551495
 10
-25.8370639934
 20
-62.1677112172
 10
-25.7858487156
 20
-62.2232667728
 10
-25.7268209378
 20
-62.2753501061
 10
-25.6573764934
 20
-62.3248292728
 10
-25.6573764934
 20
-62.3248292728
 10
-25.69904316
 20
-62.414238995
 10
-25.69904316
 20
-62.414238995
 10
-27.4108487156
 20
-61.6234403839
 10
-27.4108487156
 20
-61.6234403839
 10
-27.3596334378
 20
-61.5123292728
 10
-27.3596334378
 20
-61.5123292728
 10
-27.27716816
 20
-61.5288223283
 10
-27.2129320489
 20
-61.5305584395
 10
-27.1686612156
 20
-61.5175376061
 10
-27.1426195489
 20
-61.4897598283
 10
-27.1426195489
 20
-61.4897598283
 10
-27.1400153823
 20
-61.4776070506
 10
-27.1400153823
 20
-61.4593778839
 10
-27.1434876045
 20
-61.4350723283
 10
-27.1495639934
 20
-61.4038223283
 10
-27.15998066
 20
-61.3682320506
 10
-27.1721334378
 20
-61.3256973283
 10
-27.1877584378
 20
-61.2770862172
 10
-27.20685566
 20
-61.2223987172
 10
-27.20685566
 20
-61.2223987172
 10
-27.9186612156
 20
-59.3161487172
  0
LWPOLYLINE
  5
80
330
1F
100
AcDbEntity
  8
0
  6
Continuous
 62
     7
100
AcDbPolyline
 90
       98
 70
   128
 43
0.0
 10
-20.6731557846
 20
-63.0873844355
 10
-22.6662207703
 20
-62.400752491
 10
-22.6662207703
 20
-62.400752491
 10
-23.1801096592
 20
-62.8278358243
 10
-23.1801096592
 20
-62.8278358243
 10
-23.2261166037
 20
-62.8721066577
 10
-23.2617068814
 20
-62.9120372132
 10
-23.2877485481
 20
-62.9493636021
 10
-23.3042416037
 20
-62.9832177688
 10
-23.3042416037
 20
-62.9832177688
 10
-23.3111860481
 20
-63.0144677688
 10
-23.3103179925
 20
-63.0457177688
 10
-23.3007693814
 20
-63.0760997132
 10
-23.2842763259
 20
-63.1073497132
 10
-23.2599707703
 20
-63.1385997132
 10
-23.2278527148
 20
-63.1698497132
 10
-23.1879221592
 20
-63.2010997132
 10
-23.1401791037
 20
-63.2323497132
 10
-23.1401791037
 20
-63.2323497132
 10
-23.1783735481
 20
-63.3434608243
 10
-23.1783735481
 20
-63.3434608243
 10
-24.6783735481
 20
-62.8269677688
 10
-24.6783735481
 20
-62.8269677688
 10
-24.6401791037
 20
-62.7158566577
 10
-24.6401791037
 20
-62.7158566577
 10
-24.5733388259
 20
-62.7245372132
 10
-24.5134429925
 20
-62.7254052688
 10
-24.4596235481
 20
-62.721064991
 10
-24.4127485481
 20
-62.7089122132
 10
-24.3650054925
 20
-62.6872108243
 10
-24.3111860481
 20
-62.6533566577
 10
-24.2495541037
 20
-62.6082177688
 10
-24.1809777148
 20
-62.5500580466
 10
-24.1809777148
 20
-62.5500580466
 10
-21.5394846592
 20
-60.2531830466
 10
-21.5394846592
 20
-60.2531830466
 10
-21.4821929925
 20
-60.2002316577
 10
-21.4370541037
 20
-60.1498844355
 10
-21.4049360481
 20
-60.103877491
 10
-21.3849707703
 20
-60.0613427688
 10
-21.3849707703
 20
-60.0613427688
 10
-21.3762902148
 20
-59.9988427688
 10
-21.395387437
 20
-59.9363427688
 10
-21.4405263259
 20
-59.8755788799
 10
-21.5134429925
 20
-59.814814991
 10
-21.5134429925
 20
-59.814814991
 10
-21.4752485481
 20
-59.7037038799
 10
-21.4752485481
 20
-59.7037038799
 10
-19.8771582703
 20
-60.2540511021
 10
-19.8771582703
 20
-60.2540511021
 10
-19.9153527148
 20
-60.3651622132
 10
-19.9153527148
 20
-60.3651622132
 10
-19.965699937
 20
-60.3625580466
 10
-20.0108388259
 20
-60.3634261021
 10
-20.0499013259
 20
-60.369502491
 10
-20.0837554925
 20
-60.3790511021
 10
-20.1124013259
 20
-60.392939991
 10
-20.1358388259
 20
-60.4111691577
 10
-20.1540679925
 20
-60.4328705466
 10
-20.1662207703
 20
-60.4597802688
 10
-20.1662207703
 20
-60.4597802688
 10
-20.176637437
 20
-60.502314991
 10
-20.1801096592
 20
-60.5500580466
 10
-20.176637437
 20
-60.6030094355
 10
-20.1662207703
 20
-60.6620372132
 10
-20.1662207703
 20
-60.6620372132
 10
-19.4370541037
 20
-64.1290511021
 10
-19.4370541037
 20
-64.1290511021
 10
-19.4127485481
 20
-64.2314816577
 10
-19.3867068814
 20
-64.3182872132
 10
-19.3597971592
 20
-64.3894677688
 10
-19.3311513259
 20
-64.4450233243
 10
-19.2964291037
 20
-64.4910302688
 10
-19.2530263259
 20
-64.533564991
 10
-19.2009429925
 20
-64.572627491
 10
-19.1401791037
 20
-64.6090858243
 10
-19.1401791037
 20
-64.6090858243
 10
-19.1783735481
 20
-64.7201969355
 10
-19.1783735481
 20
-64.7201969355
 10
-20.8450402148
 20
-64.1464122132
 10
-20.8450402148
 20
-64.1464122132
 10
-20.8068457703
 20
-64.0353011021
 10
-20.8068457703
 20
-64.0353011021
 10
-20.7495541037
 20
-64.0448497132
 10
-20.6983388259
 20
-64.0474538799
 10
-20.653199937
 20
-64.0448497132
 10
-20.614137437
 20
-64.0361691577
 10
-20.5811513259
 20
-64.0214122132
 10
-20.5533735481
 20
-64.0005788799
 10
-20.5325402148
 20
-63.9736691577
 10
-20.5169152148
 20
-63.9406830466
 10
-20.5169152148
 20
-63.9406830466
 10
-20.5091027148
 20
-63.9059608243
 10
-20.5073666037
 20
-63.861689991
 10
-20.5117068814
 20
-63.807002491
 10
-20.5221235481
 20
-63.7427663799
 10
-20.5221235481
 20
-63.7427663799
 10
-20.6731652148
 20
-63.0873844355
  0
LWPOLYLINE
  5
81
330
1F
100
AcDbEntity
  8
0
  6
Continuous
 62
     7
100
AcDbPolyline
 90
        6
 70
   128
 43
0.0
 10
-20.7781940699
 20
-62.4918983243
 10
-21.0446929925
 20
-60.9537038799
 10
-21.0446929925
 20
-60.9537038799
 10
-22.2061513259
 20
-62.0005788799
 10
-22.2061513259
 20
-62.0005788799
 10
-20.778199937
 20
-62.4918983243
  0
POINT
  5
82
330
1F
100
AcDbEntity
  8
0
  6
Continuous
 62
     7
100
AcDbPoint
 10
0.0
 20
0.0
 30
0.0
  0
ENDSEC
  0
SECTION
  2
OBJECTS
  0
DICTIONARY
  5
C
330
0
100
AcDbDictionary
281
     1
  3
ACAD_GROUP
350
D
  3
ACAD_LAYOUT
350
1A
  3
ACAD_MLINESTYLE
350
17
  3
ACAD_PLOTSETTINGS
350
19
  3
ACAD_PLOTSTYLENAME
350
E
  3
ACAD_SCALELIST
350
47
  3
DWGPROPS
350
83
  0
DICTIONARY
  5
D
102
{ACAD_REACTORS
330
C
102
}
330
C
100
AcDbDictionary
281
     1
  0
DICTIONARY
  5
1A
102
{ACAD_REACTORS
330
C
102
}
330
C
100
AcDbDictionary
281
     1
  3
Layout1
350
1E
  3
Layout2
350
26
  3
Model
350
22
  0
DICTIONARY
  5
17
102
{ACAD_REACTORS
330
C
102
}
330
C
100
AcDbDictionary
281
     1
  3
Standard
350
18
  0
DICTIONARY
  5
19
102
{ACAD_REACTORS
330
C
102
}
330
C
100
AcDbDictionary
281
     1
  0
ACDBDICTIONARYWDFLT
  5
E
102
{ACAD_REACTORS
330
C
102
}
330
C
100
AcDbDictionary
281
     1
  3
Normal
350
F
100
AcDbDictionaryWithDefault
340
F
  0
DICTIONARY
  5
47
102
{ACAD_REACTORS
330
C
102
}
330
C
100
AcDbDictionary
281
     1
  3
A0
350
48
  3
A1
350
49
  3
A2
350
4A
  3
A3
350
4B
  3
A4
350
4C
  3
A5
350
4D
  3
A6
350
4E
  3
A7
350
4F
  3
A8
350
50
  3
A9
350
51
  3
B0
350
52
  3
B1
350
53
  3
B2
350
54
  3
B3
350
55
  3
B4
350
56
  3
B5
350
57
  3
B6
350
58
  0
XRECORD
  5
83
102
{ACAD_REACTORS
330
C
102
}
330
C
100
AcDbXrecord
280
     1
  1
DWGPROPS COOKIE
  2

  3

  4

  6

  7

  8
vijay
  9

300
=
301
=
302
=
303
=
304
=
305
=
306
=
307
=
308
=
309
=
 40
0.0
 41
2460684.579698264
 42
2460684.579762327
  1

 90
        0
  0
LAYOUT
  5
1E
102
{ACAD_REACTORS
330
1A
102
}
330
1A
100
AcDbPlotSettings
  1

  2
none_device
  4

  6

 40
0.0
 41
0.0
 42
0.0
 43
0.0
 44
0.0
 45
0.0
 46
0.0
 47
0.0
 48
0.0
 49
0.0
140
0.0
141
0.0
142
1.0
143
1.0
 70
   688
 72
     1
 73
     0
 74
     5
  7

 75
    16
147
1.0
148
0.0
149
0.0
100
AcDbLayout
  1
Layout1
 70
     1
 71
     1
 10
0.0
 20
0.0
 11
420.0
 21
297.0
 12
0.0
 22
0.0
 32
0.0
 14
1.0000000000E+20
 24
1.0000000000E+20
 34
1.0000000000E+20
 15
-1.0000000000E+20
 25
-1.0000000000E+20
 35
-1.0000000000E+20
146
0.0
 13
0.0
 23
0.0
 33
0.0
 16
1.0
 26
0.0
 36
0.0
 17
0.0
 27
1.0
 37
0.0
 76
     0
330
1B
  0
LAYOUT
  5
26
102
{ACAD_REACTORS
330
1A
102
}
330
1A
100
AcDbPlotSettings
  1

  2
none_device
  4

  6

 40
0.0
 41
0.0
 42
0.0
 43
0.0
 44
0.0
 45
0.0
 46
0.0
 47
0.0
 48
0.0
 49
0.0
140
0.0
141
0.0
142
1.0
143
1.0
 70
   688
 72
     1
 73
     0
 74
     5
  7

 75
    16
147
1.0
148
0.0
149
0.0
100
AcDbLayout
  1
Layout2
 70
     1
 71
     2
 10
0.0
 20
0.0
 11
0.0
 21
0.0
 12
0.0
 22
0.0
 32
0.0
 14
0.0
 24
0.0
 34
0.0
 15
0.0
 25
0.0
 35
0.0
146
0.0
 13
0.0
 23
0.0
 33
0.0
 16
1.0
 26
0.0
 36
0.0
 17
0.0
 27
1.0
 37
0.0
 76
     0
330
23
  0
LAYOUT
  5
22
102
{ACAD_REACTORS
330
1A
102
}
330
1A
100
AcDbPlotSettings
  1

  2
none_device
  4
ANSI_A_(11.00_x_8.50_Inches)
  6

 40
6.35
 41
19.05
 42
6.35000508
 43
19.05000254
 44
279.4
 45
215.9
 46
133.34999746
 47
88.89999873
 48
0.0
 49
0.0
140
0.0
141
0.0
142
0.0584375
143
1.0
 70
  1696
 72
     0
 73
     0
 74
     0
  7

 75
     0
147
0.0179189148
148
-1300.4909072572
149
0.0
100
AcDbLayout
  1
Model
 70
     1
 71
     0
 10
0.0
 20
0.0
 11
420.0
 21
297.0
 12
0.0
 22
0.0
 32
0.0
 14
-72.0
 24
-72.0
 34
0.0
 15
72.0
 25
72.0
 35
0.0
146
0.0
 13
0.0
 23
0.0
 33
0.0
 16
1.0
 26
0.0
 36
0.0
 17
0.0
 27
1.0
 37
0.0
 76
     0
330
1F
331
29
  0
MLINESTYLE
  5
18
102
{ACAD_REACTORS
330
17
102
}
330
17
100
AcDbMlineStyle
  2
Standard
 70
     0
  3

 62
   256
 51
90.0
 52
90.0
 71
     2
 49
0.5
 62
   256
  6
BYLAYER
 49
-0.5
 62
   256
  6
BYLAYER
  0
ACDBPLACEHOLDER
  5
F
102
{ACAD_REACTORS
330
E
102
}
330
E
  0
SCALE
  5
48
102
{ACAD_REACTORS
330
47
102
}
330
47
100
AcDbScale
 70
     0
300
1:1
140
1.0
141
1.0
290
     1
  0
SCALE
  5
49
102
{ACAD_REACTORS
330
47
102
}
330
47
100
AcDbScale
 70
     0
300
1:2
140
1.0
141
2.0
290
     0
  0
SCALE
  5
4A
102
{ACAD_REACTORS
330
47
102
}
330
47
100
AcDbScale
 70
     0
300
1:4
140
1.0
141
4.0
290
     0
  0
SCALE
  5
4B
102
{ACAD_REACTORS
330
47
102
}
330
47
100
AcDbScale
 70
     0
300
1:5
140
1.0
141
5.0
290
     0
  0
SCALE
  5
4C
102
{ACAD_REACTORS
330
47
102
}
330
47
100
AcDbScale
 70
     0
300
1:8
140
1.0
141
8.0
290
     0
  0
SCALE
  5
4D
102
{ACAD_REACTORS
330
47
102
}
330
47
100
AcDbScale
 70
     0
300
1:10
140
1.0
141
10.0
290
     0
  0
SCALE
  5
4E
102
{ACAD_REACTORS
330
47
102
}
330
47
100
AcDbScale
 70
     0
300
1:16
140
1.0
141
16.0
290
     0
  0
SCALE
  5
4F
102
{ACAD_REACTORS
330
47
102
}
330
47
100
AcDbScale
 70
     0
300
1:20
140
1.0
141
20.0
290
     0
  0
SCALE
  5
50
102
{ACAD_REACTORS
330
47
102
}
330
47
100
AcDbScale
 70
     0
300
1:30
140
1.0
141
30.0
290
     0
  0
SCALE
  5
51
102
{ACAD_REACTORS
330
47
102
}
330
47
100
AcDbScale
 70
     0
300
1:40
140
1.0
141
40.0
290
     0
  0
SCALE
  5
52
102
{ACAD_REACTORS
330
47
102
}
330
47
100
AcDbScale
 70
     0
300
1:50
140
1.0
141
50.0
290
     0
  0
SCALE
  5
53
102
{ACAD_REACTORS
330
47
102
}
330
47
100
AcDbScale
 70
     0
300
1:100
140
1.0
141
100.0
290
     0
  0
SCALE
  5
54
102
{ACAD_REACTORS
330
47
102
}
330
47
100
AcDbScale
 70
     0
300
2:1
140
2.0
141
1.0
290
     0
  0
SCALE
  5
55
102
{ACAD_REACTORS
330
47
102
}
330
47
100
AcDbScale
 70
     0
300
4:1
140
4.0
141
1.0
290
     0
  0
SCALE
  5
56
102
{ACAD_REACTORS
330
47
102
}
330
47
100
AcDbScale
 70
     0
300
8:1
140
8.0
141
1.0
290
     0
  0
SCALE
  5
57
102
{ACAD_REACTORS
330
47
102
}
330
47
100
AcDbScale
 70
     0
300
10:1
140
10.0
141
1.0
290
     0
  0
SCALE
  5
58
102
{ACAD_REACTORS
330
47
102
}
330
47
100
AcDbScale
 70
     0
300
100:1
140
100.0
141
1.0
290
     0
  0
ENDSEC
  0
EOF
